<svg width="150" height="150" viewBox="0 0 150 150" fill="none" xmlns="http://www.w3.org/2000/svg">
<path d="M113.927 100.809C112.485 103.872 109.422 105.298 107.136 107.656C109.106 108.993 111.058 110.322 113.02 111.643C122.493 118.037 131.966 124.414 141.431 130.824C142.314 131.424 143.635 131.821 143.311 133.263C142.962 134.787 142.306 136.197 140.701 136.829C138.708 137.615 136.585 137.728 134.486 137.988C131.933 138.296 129.753 137.534 127.663 136.108C117.412 129.147 107.128 122.242 96.8529 115.322C95.1998 114.212 95.1998 114.212 96.1398 112.453C92.7849 111.205 89.3976 112.907 86.0508 112.097C86.0022 112.202 85.9455 112.307 85.8969 112.413C86.4479 112.931 86.9746 113.466 87.5419 113.961C88.0767 114.423 88.1497 114.771 87.6148 115.354C83.2146 120.095 78.8468 124.86 74.4708 129.625C70.9539 133.45 67.4288 137.267 63.92 141.099C61.967 143.231 59.544 144.479 56.7078 144.851C54.0336 145.2 51.3594 145.346 48.669 144.779C46.3838 144.292 45.5005 142.477 44.5605 140.743C44.1635 140.006 44.7307 139.276 45.2736 138.685C48.9527 134.69 52.6236 130.703 56.3026 126.708C60.5003 122.145 64.6898 117.583 68.8794 113.021C69.1468 112.729 69.552 112.486 68.9118 112.064C67.5342 111.157 67.5099 110.865 68.4742 109.479C68.7335 109.098 69.0333 108.75 69.3818 108.304C67.4855 107.016 65.8243 105.444 64.0334 104.018C62.3155 102.648 61.3592 100.987 61.3025 98.6935C61.2296 95.452 62.0967 92.2592 61.9103 89.0583C61.6915 85.3631 63.6769 83.1913 66.3591 81.287C68.8875 79.4961 71.7156 78.2644 74.4708 76.8949C75.4757 76.3924 75.3622 76.1169 74.641 75.4524C69.2035 70.5011 63.7903 65.5336 58.4014 60.5256C57.7694 59.9422 57.2345 60.0232 56.6673 60.3798C55.8488 60.8984 55.3059 60.4527 54.7305 59.9746C54.1146 59.4641 54.5603 58.9373 54.7953 58.5403C55.2653 57.738 54.9412 57.3571 54.3091 56.8547C50.7841 54.0671 47.6075 50.9472 45.3223 47.0332C44.1472 45.0154 43.2234 42.8923 43.345 40.5017C43.4665 38.1517 44.6578 36.3851 46.5621 35.048C47.0726 34.6914 47.4778 34.7725 47.8992 35.1533C48.4016 35.6071 47.8263 35.8259 47.6642 36.0934C47.0726 37.0739 46.7404 38.1111 46.8376 39.2781C47.3806 39.3915 47.5102 38.9539 47.7047 38.6622C48.5718 37.3413 49.4227 36.0204 50.2654 34.6833C50.7922 33.8568 51.0677 32.9573 51.1244 31.9686C51.2946 29.0594 53.5312 26.6041 56.4161 26.0611C56.8699 25.972 57.2426 26.0692 57.6316 26.2799C60.0465 27.5927 62.6234 28.3706 65.33 28.9136C71.3023 30.121 76.3184 33.2166 80.6782 37.3899C81.7154 38.3786 82.8013 39.27 83.9925 40.056C91.7476 45.2018 99.5352 50.3151 107.234 55.55C111.221 58.2647 114.689 61.571 116.707 66.0523C117.865 68.6292 119.097 71.2224 119.413 74.0991C119.559 75.4362 119.324 76.7085 118.587 77.8592C117.323 79.8365 116.05 81.8056 114.778 83.7748C114.673 83.9369 114.584 84.1395 114.43 84.2286C112.282 85.4441 113.546 87.4052 113.384 89.0421C113.36 89.3257 113.562 89.6013 113.83 89.6499C114.089 89.6985 114.122 89.3582 114.219 89.1718C115.224 87.2512 115.645 87 117.841 87.2512C119.089 87.3971 120.515 87.1378 121.245 88.6531C121.553 89.2933 121.747 89.9497 121.812 90.6385C122.063 93.5882 121.796 96.4893 120.799 99.285C120.126 101.181 119.235 102.202 116.917 101.7C116.391 101.586 115.848 101.522 115.313 101.522C114.737 101.489 114.34 101.157 113.927 100.809Z" fill="white"/>
<path d="M101.99 105.266C101.942 105.282 101.893 105.306 101.844 105.314C101.836 105.314 101.796 105.241 101.812 105.217C101.836 105.16 101.877 105.112 101.917 105.063C101.942 105.128 101.966 105.193 101.99 105.266Z" fill="#293040"/>
<path d="M51.1241 36.077L49.1792 34.6265" stroke="#FF4040" stroke-width="2.43107"/>
<path d="M45.4352 31.8307L17.3726 10.8667" stroke="#FF4040" stroke-width="2.43107" stroke-dasharray="4.67 4.67"/>
<path d="M15.5008 9.47305L13.5479 8.0144" stroke="#FF4040" stroke-width="2.43107"/>
<path d="M15.314 5.90725C14.0985 4.99965 12.3805 5.25086 11.4729 6.4664C10.5653 7.68193 10.8165 9.39989 12.0321 10.3075C13.2476 11.2151 14.9656 10.9639 15.8732 9.74834C16.7808 8.53281 16.5296 6.81485 15.314 5.90725Z" fill="white"/>
<path d="M15.5329 5.61549C16.9024 6.63654 17.186 8.5895 16.1649 9.96711C15.1439 11.3366 13.1909 11.6202 11.8133 10.5992C10.4438 9.57814 10.1602 7.62518 11.1812 6.24757C12.2023 4.86996 14.1633 4.59444 15.5329 5.61549C16.9024 6.64464 14.1633 4.59444 15.5329 5.61549ZM12.2509 10.0157C13.3044 10.8018 14.7954 10.583 15.5815 9.52952C16.3675 8.47605 16.1487 6.98499 15.0953 6.19895C14.0418 5.4129 12.5507 5.6317 11.7647 6.68516C10.9867 7.73863 11.2055 9.22969 12.2509 10.0157C13.3044 10.7937 11.2055 9.22969 12.2509 10.0157Z" fill="#FF4040"/>
<path d="M34.1794 49.8054C33.7337 49.7243 33.2718 49.7973 32.8747 50.0404C20.1521 57.9333 12.6887 73.087 11.9351 90.4772L16.7162 90.1369C17.7777 75.0723 24.4632 62.0256 35.5894 55.1375C36.651 54.4811 36.9022 52.8118 36.1567 51.4018C35.6866 50.5185 34.9411 49.9512 34.1794 49.8054Z" fill="#15A6BD"/>
<path d="M20.2656 89.8774L16.7162 90.1287L11.9351 90.4771L7 90.8256L19.5849 120.768L20.2656 89.8774Z" fill="#15A6BD"/>
<path d="M86.2211 112.705C86.7073 113.118 87.1773 113.547 87.6797 113.953C88.4171 114.544 88.3766 115.055 87.7202 115.743C85.5485 118.037 83.4577 120.395 81.3184 122.721C75.5811 128.952 69.8437 135.184 64.0983 141.407C61.9346 143.757 59.2037 144.908 56.0514 145.2C53.6285 145.427 51.2217 145.532 48.815 144.981C46.5703 144.462 45.6627 142.655 44.7632 140.873C44.4228 140.2 44.8847 139.527 45.3709 139.001C48.7744 135.281 52.186 131.562 55.5976 127.85C60.0789 122.972 64.5602 118.102 69.0496 113.231C69.3575 112.899 69.633 112.648 69.0577 112.243C67.8016 111.359 67.7773 111.076 68.6201 109.763C68.766 109.536 68.9037 109.293 69.0901 109.107C69.6087 108.596 69.3575 108.337 68.8713 107.956C67.1128 106.578 65.3868 105.16 63.6931 103.71C62.275 102.494 61.6267 100.938 61.5214 99.0419C61.3593 96.0598 62.0967 93.1506 62.0805 90.1847C62.0805 89.6904 62.2426 89.1799 62.194 88.6937C61.9022 85.9141 63.3366 84.0179 65.3219 82.3729C67.3883 80.663 69.7627 79.4637 72.137 78.2806C72.996 77.8511 73.8307 77.3649 74.714 76.984C75.6702 76.5707 75.4757 76.1817 74.8436 75.6064C72.8177 73.775 70.8243 71.9031 68.8065 70.0554C65.484 67.0085 62.1453 63.994 58.8472 60.9227C58.2232 60.3393 57.6641 60.1205 56.9185 60.5662C56.1892 61.0037 55.6057 60.6796 55.0385 60.2096C54.4226 59.691 54.7549 59.1318 55.0061 58.6456C55.3951 57.892 55.1114 57.4787 54.5118 57.0087C50.9705 54.2292 47.8263 51.0931 45.533 47.179C44.7713 45.8744 44.1797 44.5049 43.7988 43.0381C42.9723 39.8777 44.0014 37.3413 46.4811 35.3721C47.2185 34.7887 46.9997 34.5861 46.4082 34.1485C45.9625 33.8162 44.8847 33.638 45.4682 32.7871C46.0516 31.9362 46.5865 32.9086 47.0808 33.168C47.9722 33.638 48.6853 34.4807 49.9008 34.1242C50.5491 33.9378 50.9057 33.6947 50.9381 32.9816C51.0191 31.3933 51.716 30.0319 52.5912 28.7353C53.5799 27.2686 55.0061 26.523 56.6754 26.1422C57.1211 26.0368 57.5182 26.1422 57.8991 26.3529C60.3139 27.6818 62.899 28.4355 65.6137 28.9865C71.586 30.2102 76.6102 33.2976 80.9699 37.4872C81.9748 38.4515 83.0364 39.3186 84.1952 40.0884C91.9584 45.2423 99.754 50.3556 107.461 55.5987C111.585 58.4025 115.143 61.8303 117.161 66.5061C118.206 68.929 119.373 71.3358 119.697 74.0181C119.867 75.4443 119.64 76.7895 118.87 78.005C117.574 80.0553 116.528 82.3729 114.851 84.0422C113.336 85.5495 113.579 87.0405 113.652 88.7099C113.668 89.0502 113.603 89.4878 114.024 89.5851C114.43 89.6742 114.438 89.2042 114.575 88.9611C115.28 87.7212 116.196 86.9271 117.752 87.2836C118.238 87.3971 118.741 87.4052 119.243 87.47C120.896 87.6888 121.65 88.2966 121.942 89.9254C122.566 93.4262 122.128 96.8378 120.815 100.12C120.224 101.611 119.186 102.154 117.598 101.919C116.545 101.765 115.426 101.927 114.454 101.327C114.178 101.157 114.016 101.343 113.903 101.562C112.631 103.928 110.297 105.201 108.409 106.935C107.412 107.842 107.363 107.802 108.514 108.58C119.559 116.035 130.612 123.482 141.658 130.93C144.056 132.55 144.226 134.292 142.136 136.326C141.787 136.667 141.317 136.942 140.855 137.088C137.817 138.036 134.729 138.547 131.536 138.085C130.313 137.907 129.292 137.267 128.311 136.602C117.671 129.447 107.047 122.267 96.4072 115.103C95.7022 114.625 95.2565 114.179 95.9454 113.369C96.3992 112.826 96.1641 112.599 95.5564 112.461C94.3003 112.17 93.0686 112.162 91.7882 112.324C90.0135 112.551 88.2226 112.769 86.4155 112.364C86.3507 112.461 86.2859 112.583 86.2211 112.705ZM87.9957 105.371C94.4948 105.403 100.872 104.593 106.982 102.186C108.23 101.692 108.271 101.149 107.509 100.079C106.699 98.9366 105.516 97.9155 105.686 96.2543C105.734 95.7681 105.581 95.2657 105.532 94.7632C105.483 94.2365 105.37 94.0096 104.689 94.042C102.177 94.1555 99.6973 93.9205 97.3554 92.867C94.5353 91.6028 92.5986 89.423 90.9779 86.8785C89.1059 83.9207 86.3669 82.1784 82.9958 81.441C78.4984 80.4604 75.2002 81.7327 72.7853 85.3469C72.3802 85.9547 71.9426 86.5381 71.4644 87.0892C68.9685 89.974 66.8454 90.5251 63.3447 89.1313C62.6802 88.8638 62.6964 89.2852 62.664 89.6499C62.5181 91.4084 62.5343 93.1993 62.2507 94.9334C61.9346 96.8702 62.7774 98.2073 64.1064 99.3661C65.5083 100.59 67.1209 101.497 68.847 102.186C75.0057 104.642 81.4318 105.387 87.9957 105.371ZM57.2346 35.9718C56.6754 35.7287 56.2459 35.5747 55.8489 35.3559C55.079 34.9183 54.8197 35.2101 54.8035 35.9961C54.7792 37.2684 55.1438 38.3948 55.8651 39.4644C58.0692 42.7464 60.865 45.4368 64.1064 47.6247C74.56 54.6505 85.0541 61.6034 95.5402 68.5725C98.7006 70.6713 102.039 72.3974 105.694 73.4833C108.417 74.2936 111.18 74.7474 114.008 74.1072C116.156 73.621 117.493 72.0651 117.614 69.8853C117.679 68.7832 117.266 67.7702 116.812 66.7897C114.559 61.9438 110.84 58.4268 106.512 55.5014C100.354 51.3443 94.1464 47.2601 87.9471 43.1597C86.7478 42.3655 85.589 41.4984 84.0736 40.7772C84.576 41.7983 85.0217 42.6005 85.3783 43.4271C87.0962 47.3897 85.0866 50.461 80.7917 50.4367C79.8679 50.4286 78.9359 50.4124 78.0364 50.2422C72.1127 49.1482 67.048 46.3525 62.6478 42.3007C60.5651 40.3801 58.7661 38.2408 57.6559 35.5909C56.1892 32.0659 57.3723 29.5619 60.9784 28.5975C61.0351 28.5813 61.0757 28.5165 61.1243 28.4679C58.8715 27.1956 56.1892 27.9493 55.0385 30.1696C54.0499 32.074 54.6495 34.0513 56.5052 35.0642C56.7808 35.2263 57.1778 35.2911 57.2346 35.9718ZM86.1967 114.358L80.1191 113.312L73.4984 112.907L69.9896 112.802C65.4597 117.632 58.8877 124.981 54.3902 129.844C51.5378 132.923 48.7258 136.035 45.9139 139.155C44.9333 140.241 44.9982 140.889 46.0111 141.942C46.4811 142.437 47.0241 142.761 47.6967 142.882C50.5005 143.377 53.3124 143.806 56.173 143.757C56.7484 143.757 57.3318 143.733 57.9072 143.757C60.1843 143.855 62.0157 142.931 63.5229 141.286C69.1468 135.16 81.6506 121.197 87.2826 115.071L86.1967 114.358ZM96.5855 114.528L109.073 122.907L127.306 135.281C129.138 136.529 131.107 137.461 133.343 137.153C136.196 136.764 139.016 136.148 141.69 134.997C142.427 134.681 142.938 134.268 143.084 133.466C143.124 133.231 143.116 133.036 143.06 132.858C142.873 132.234 142.201 131.861 142.087 131.805C141.212 131.327 126.942 121.821 107.169 108.628C106.707 108.928 105.986 109.406 105.094 110.022C103.773 110.946 103.636 111.092 103.117 111.327C102.477 111.611 101.715 111.732 100.232 111.959C98.498 112.218 98.1819 112.162 97.7119 112.502C96.8205 113.134 96.5855 114.528 96.5855 114.528ZM116.828 80.2173C116.148 80.4037 115.783 80.5009 115.426 80.6063C113.627 81.1411 111.78 81.2465 109.932 81.0277C103.522 80.2578 97.8173 77.6404 92.477 74.1558C88.1335 71.3196 83.8143 68.4266 79.5356 65.4931C78.0527 64.4721 76.594 64.2533 74.8517 64.6909C71.586 65.5093 68.4094 65.0636 65.5164 63.3052C63.1502 61.8708 60.8488 60.3149 58.5473 58.7753C54.1633 55.8499 50.2331 52.4302 47.1213 48.1353C46.3839 47.1142 45.8166 45.9797 45.1035 44.9506C45.1845 45.6313 45.533 46.1904 45.849 46.7496C48.742 51.871 53.0693 55.6878 57.7694 58.9697C65.6866 64.5045 73.8145 69.7394 81.8937 75.0472C86.14 77.8349 90.2161 80.8818 94.8433 83.0698C96.9016 84.0422 99.0328 84.8202 101.18 85.5576C102.809 86.1167 103.093 86.9919 102.242 88.4911C101.901 89.0907 101.504 89.6661 101.164 90.2658C100.921 90.7034 100.84 91.1896 101.375 91.4651C102.193 91.8865 103.044 92.1944 104.033 91.8865C102.963 90.5899 102.89 89.9659 103.765 88.9692C104.089 88.5964 104.478 88.2561 104.9 88.0049C105.605 87.5835 106.375 87.2917 107.201 87.6483C107.995 87.9887 107.793 88.7585 107.882 89.4797C108.109 89.3582 108.206 89.188 108.311 89.034C109.438 87.3728 110.905 86.1572 112.744 85.2821C114.77 84.3096 115.491 82.2027 116.828 80.2173ZM79.3168 61.887C79.0818 61.7007 78.8549 61.5062 78.6037 61.3441C74.3817 58.5078 70.1922 55.6392 65.9378 52.8597C61.6348 50.0558 57.5101 47.0818 54.1552 43.1029C52.421 41.0527 51.481 38.8243 51.6026 36.1501C51.6431 35.2668 51.6998 34.3835 51.7484 33.5002C50.4276 35.7449 49.3174 38.0706 47.486 39.9344C47.3077 40.1208 47.1699 40.291 47.2591 40.5341C47.6318 41.539 47.648 42.6897 48.2477 43.5973C49.601 45.6313 50.7922 47.7949 52.6885 49.4318C54.1714 50.7122 55.468 52.2276 57.0401 53.3783C59.3658 55.08 62.0562 56.2388 64.3495 58.0216C64.6088 58.2242 64.9735 58.3458 65.3057 58.3863C65.9054 58.4592 66.3268 58.8806 66.8211 59.0994C68.2959 59.7477 69.6168 60.7687 71.197 61.1172C73.15 61.5467 75.103 62.0248 77.1288 62.0653C77.8339 62.0572 78.5308 61.6682 79.3168 61.887ZM99.7864 72.0894C98.4088 71.2548 96.9988 70.4687 95.6536 69.5854C87.7769 64.391 79.8922 59.2047 72.0641 53.9374C67.4046 50.8013 62.4776 48.0461 58.4501 44.0268C55.784 41.3607 53.5393 38.5649 54.1228 34.4402C54.1795 34.035 54.0174 33.6056 53.9688 33.1842C53.6366 30.4938 54.7062 28.6462 57.194 27.5684C57.4777 27.4468 57.9072 27.5117 57.9882 27.0498C57.6235 26.6932 57.2022 26.5554 56.7159 26.6446C53.6447 27.1956 51.6593 29.9914 52.2752 32.39C52.4129 32.9249 52.2995 33.4597 52.2347 33.9945C51.8133 37.4304 52.3805 40.526 54.8764 43.1921C57.2022 45.6799 59.6413 48.0218 62.4695 49.9099C73.1662 57.0573 83.8953 64.156 94.6002 71.2791C95.1755 71.6599 95.759 71.8625 96.4397 71.7977C97.5661 71.6924 98.6681 71.7734 99.7864 72.0894ZM62.1129 99.5443C62.1291 100.971 62.6883 101.886 63.45 102.745C65.8649 105.452 69.082 106.7 72.445 107.648C79.3573 109.593 86.4074 109.836 93.5143 109.35C94.276 109.301 95.1026 109.228 95.5564 109.852C96.6179 111.327 97.9793 111.238 99.4704 110.873C100.289 110.671 101.115 110.468 101.958 110.346C103.206 110.16 104.106 109.439 104.705 108.426C105.362 107.324 106.277 106.667 107.428 106.238C108.781 105.735 109.965 104.949 111.042 104.009C111.302 103.783 111.65 103.572 111.569 103.183C111.488 102.77 111.034 102.794 110.734 102.648C110.345 102.462 109.989 102.624 109.632 102.794C108.862 103.159 108.125 103.661 107.323 103.831C105.345 104.261 104.276 105.249 104.349 107.413C104.389 108.483 103.668 109.309 102.598 109.609C101.375 109.949 100.135 110.233 98.8788 110.436C97.7606 110.614 97.0393 110.055 96.7881 108.928C96.699 108.523 96.6504 108.086 96.6747 107.664C96.7314 106.684 96.2614 106.513 95.3943 106.611C89.1627 107.324 82.9391 107.21 76.7642 106.076C71.4563 105.103 66.2457 103.758 62.1129 99.5443ZM67.1128 29.8941C65.954 29.4241 64.7223 29.335 63.531 29.0675C62.1048 28.7434 60.7758 29.027 59.5117 29.6753C58.3285 30.2912 57.6965 31.2798 57.6479 32.6493C57.583 34.3349 58.1098 35.8502 59.0174 37.2197C63.1988 43.5486 69.1873 47.3816 76.3266 49.5291C78.0851 50.0558 79.957 50.1449 81.8127 49.8532C83.709 49.5615 85.1433 48.4108 85.3297 46.863C85.6943 43.8809 84.2195 41.62 82.3881 39.505C82.3151 39.4239 82.1774 39.4239 82.0558 39.6103C82.5177 40.5746 83.1417 41.5065 83.4821 42.5762C84.3248 45.2747 83.1012 47.3573 80.3379 47.8841C79.3816 48.0704 78.4335 48.0866 77.4692 47.9165C72.0398 46.9765 67.518 44.3104 63.6769 40.4693C62.0967 38.8891 60.7353 37.1063 60.1924 34.8373C59.5927 32.3495 60.7515 30.4776 63.2393 29.9427C64.5359 29.6672 65.8163 29.805 67.1128 29.8941ZM68.9361 107.056C68.8875 107.137 68.8308 107.227 68.7822 107.308C69.5439 107.721 70.2894 108.191 71.0836 108.547C76.9992 111.149 83.2552 111.708 89.6165 111.578C90.6294 111.562 91.1886 110.857 92.0313 110.063C83.9845 110.371 76.3185 109.795 68.9361 107.056ZM121.674 93.0534C121.642 91.8216 121.715 90.7844 121.399 89.7714C121.31 89.4797 121.277 89.0907 120.945 89.0259C120.491 88.9449 120.41 89.4068 120.288 89.6985C118.943 92.8994 118.7 96.2381 119.089 99.6497C119.138 100.039 119.113 100.646 119.608 100.703C120.151 100.76 120.288 100.152 120.451 99.7469C121.334 97.5428 121.626 95.2252 121.674 93.0534ZM115.467 75.4524C113.53 76.1169 111.593 76.1493 109.648 76.0035C109.357 75.9792 109.114 76.0602 109.049 76.4005C108.992 76.7004 109.114 76.9597 109.381 77.065C109.73 77.2028 110.11 77.3568 110.475 77.3406C111.934 77.3 113.368 77.065 114.697 76.4167C115.037 76.2466 115.402 76.0764 115.467 75.4524ZM118.919 101.36C117.914 96.781 118.295 92.4294 120.402 88.1507C118.125 89.6904 117.015 99.7794 118.919 101.36ZM69.2765 88.3533C67.988 88.7747 66.8778 89.188 65.6704 88.9044C64.4305 88.6207 63.5067 87.9481 62.9071 86.7731C62.6802 88.1993 63.5229 88.8152 64.5521 89.2609C66.0756 89.9254 67.9961 89.5932 69.2765 88.3533Z" fill="#293040"/>
<path d="M103.62 59.5857C104.738 59.6262 105.694 60.0233 106.561 60.6067C108.79 62.1059 110.978 63.6699 113.036 65.4041C113.927 66.1577 114.641 67.0491 115.03 68.1755C115.24 68.7751 115.192 69.31 114.786 69.7962C114.357 70.3067 113.79 70.3067 113.198 70.1528C112.404 69.9583 111.691 69.5693 111.043 69.0831C108.547 67.2274 106.059 65.3554 103.571 63.4916C102.947 63.0297 102.453 62.4463 102.023 61.798C101.229 60.5824 101.529 59.9098 102.971 59.6586C103.206 59.6424 103.433 59.6181 103.62 59.5857ZM103.676 60.2016C103.077 60.2259 102.907 60.5824 103.287 61.2388C103.701 61.9519 104.284 62.5192 104.924 63.0135C107.153 64.7315 109.389 66.417 111.626 68.1269C112.185 68.5482 112.793 68.8724 113.449 69.1074C113.79 69.2289 114.13 69.3019 114.414 68.9939C114.657 68.7265 114.551 68.4186 114.454 68.1188C114.162 67.2031 113.547 66.5142 112.834 65.9146C110.743 64.148 108.514 62.5597 106.237 61.0443C105.516 60.5743 104.722 60.2745 103.676 60.2016Z" fill="#293040"/>
</svg>
