<svg width="534" height="101" viewBox="0 0 534 101" fill="none" xmlns="http://www.w3.org/2000/svg">
<path d="M119.083 50.571C131.407 58.471 143.731 66.371 168.419 66.371C193.106 66.371 205.43 58.471 217.794 50.571C230.157 42.671 242.481 34.771 267.169 34.771C291.856 34.771 304.18 42.671 316.544 50.571C328.907 58.471 341.231 66.371 365.919 66.371C390.606 66.371 402.97 58.471 415.333 50.571" stroke="white" stroke-width="3.95" stroke-miterlimit="10" stroke-linecap="round" stroke-linejoin="round" stroke-dasharray="7.9 7.9"/>
<path fill-rule="evenodd" clip-rule="evenodd" d="M414.85 34.6C417.121 34.6 426.7 21.3873 426.7 14.85C426.7 8.31275 421.387 3 414.85 3C408.313 3 403 8.31275 403 14.85C403 21.3873 412.579 34.6 414.85 34.6ZM418.8 12.8748C418.8 15.0563 417.032 16.8248 414.85 16.8248C412.669 16.8248 410.9 15.0563 410.9 12.8748C410.9 10.6933 412.669 8.9248 414.85 8.9248C417.032 8.9248 418.8 10.6933 418.8 12.8748Z" fill="#FF5D5D"/>
<circle cx="119" cy="51" r="7" fill="#1B6478"/>
<circle cx="415" cy="51" r="7" fill="#F8CD37"/>
<g opacity="0.6">
<path d="M66.7423 63.1873C65.5556 65.7073 63.0356 66.8806 61.1556 68.8206C62.7756 69.9206 64.3823 71.0139 65.9956 72.1006C73.7889 77.3606 81.5823 82.6073 89.3689 87.8806C90.0956 88.3739 91.1823 88.7006 90.9156 89.8873C90.6289 91.1406 90.0889 92.3006 88.7689 92.8206C87.1289 93.4673 85.3823 93.5606 83.6556 93.7739C81.5556 94.0273 79.7623 93.4006 78.0423 92.2273C69.6089 86.5006 61.1489 80.8206 52.6956 75.1273C51.3356 74.2139 51.3356 74.214 52.1089 72.7673C49.3489 71.7406 46.5623 73.1406 43.8089 72.4739C43.7689 72.5606 43.7223 72.6473 43.6823 72.7339C44.1356 73.1606 44.5689 73.6006 45.0356 74.0073C45.4756 74.3873 45.5356 74.674 45.0956 75.1539C41.4756 79.0539 37.8823 82.974 34.2823 86.894C31.3889 90.0406 28.4889 93.1806 25.6023 96.3339C23.9956 98.0873 22.0023 99.1139 19.6689 99.4206C17.4689 99.7073 15.2689 99.8273 13.0556 99.3606C11.1756 98.9606 10.4489 97.4673 9.6756 96.0406C9.34894 95.4339 9.8156 94.8339 10.2623 94.3473C13.2889 91.0606 16.3089 87.7806 19.3356 84.4939C22.7889 80.7406 26.2356 76.9873 29.6823 73.2339C29.9023 72.9939 30.2356 72.7939 29.7089 72.4473C28.5756 71.7006 28.5556 71.4606 29.3489 70.3206C29.5623 70.0073 29.8089 69.7206 30.0956 69.3539C28.5356 68.2939 27.1689 67.0006 25.6956 65.8273C24.2823 64.7006 23.4956 63.3339 23.4489 61.4473C23.3889 58.7806 24.1023 56.1539 23.9489 53.5206C23.7689 50.4806 25.4023 48.6939 27.6089 47.1273C29.6889 45.6539 32.0156 44.6406 34.2823 43.5139C35.1089 43.1006 35.0156 42.8739 34.4223 42.3273C29.9489 38.2539 25.4956 34.1673 21.0623 30.0473C20.5423 29.5673 20.1023 29.6339 19.6356 29.9273C18.9623 30.3539 18.5156 29.9873 18.0423 29.5939C17.5356 29.1739 17.9023 28.7406 18.0956 28.4139C18.4823 27.7539 18.2156 27.4406 17.6956 27.0273C14.7956 24.7339 12.1823 22.1673 10.3023 18.9473C9.3356 17.2873 8.5756 15.5406 8.6756 13.5739C8.7756 11.6406 9.7556 10.1873 11.3223 9.08727C11.7423 8.79394 12.0756 8.86061 12.4223 9.17394C12.8356 9.54727 12.3623 9.72727 12.2289 9.94727C11.7423 10.7539 11.4689 11.6073 11.5489 12.5673C11.9956 12.6606 12.1023 12.3006 12.2623 12.0606C12.9756 10.9739 13.6756 9.88727 14.3689 8.78727C14.8023 8.10727 15.0289 7.36727 15.0756 6.55394C15.2156 4.1606 17.0556 2.1406 19.4289 1.69394C19.8023 1.6206 20.1089 1.7006 20.4289 1.87394C22.4156 2.95394 24.5356 3.59394 26.7623 4.0406C31.6756 5.03394 35.8023 7.5806 39.3889 11.0139C40.2423 11.8273 41.1356 12.5606 42.1156 13.2073C48.4956 17.4406 54.9023 21.6473 61.2356 25.9539C64.5156 28.1873 67.3689 30.9073 69.0289 34.5939C69.9823 36.7139 70.9956 38.8473 71.2556 41.2139C71.3756 42.3139 71.1823 43.3606 70.5756 44.3073C69.5356 45.9339 68.4889 47.5539 67.4423 49.1739C67.3556 49.3073 67.2823 49.4739 67.1556 49.5473C65.3889 50.5473 66.4289 52.1606 66.2956 53.5073C66.2756 53.7406 66.4423 53.9673 66.6623 54.0073C66.8756 54.0473 66.9023 53.7673 66.9823 53.6139C67.8089 52.0339 68.1556 51.8273 69.9623 52.0339C70.9889 52.1539 72.1623 51.9406 72.7623 53.1873C73.0156 53.7139 73.1756 54.2539 73.2289 54.8206C73.4356 57.2473 73.2156 59.6339 72.3956 61.9339C71.8423 63.4939 71.1089 64.3339 69.2023 63.9206C68.7689 63.8273 68.3223 63.7739 67.8823 63.7739C67.4089 63.7473 67.0823 63.4739 66.7423 63.1873Z" fill="white"/>
<path d="M56.9222 66.8539C56.8822 66.8673 56.8423 66.8873 56.8023 66.8939C56.7956 66.8939 56.7622 66.8339 56.7756 66.8139C56.7956 66.7673 56.8289 66.7273 56.8623 66.6873C56.8823 66.7406 56.9022 66.7939 56.9222 66.8539Z" fill="#293040"/>
<path d="M43.9489 72.9739C44.3489 73.3139 44.7355 73.6672 45.1489 74.0006C45.7555 74.4872 45.7222 74.9072 45.1822 75.4739C43.3955 77.3606 41.6755 79.3006 39.9155 81.2139C35.1955 86.3406 30.4755 91.4672 25.7489 96.5872C23.9689 98.5206 21.7222 99.4672 19.1289 99.7072C17.1355 99.8939 15.1555 99.9806 13.1755 99.5272C11.3289 99.1006 10.5822 97.6139 9.84219 96.1472C9.56219 95.5939 9.94219 95.0406 10.3422 94.6072C13.1422 91.5472 15.9489 88.4872 18.7555 85.4339C22.4422 81.4206 26.1289 77.4139 29.8222 73.4072C30.0755 73.1339 30.3022 72.9272 29.8289 72.5939C28.7955 71.8672 28.7755 71.6339 29.4689 70.5539C29.5889 70.3672 29.7022 70.1672 29.8555 70.0139C30.2822 69.5939 30.0755 69.3806 29.6755 69.0672C28.2289 67.9339 26.8089 66.7672 25.4155 65.5739C24.2489 64.5739 23.7155 63.2939 23.6289 61.7339C23.4955 59.2806 24.1022 56.8872 24.0889 54.4472C24.0889 54.0406 24.2222 53.6206 24.1822 53.2206C23.9422 50.9339 25.1222 49.3739 26.7555 48.0206C28.4555 46.6139 30.4089 45.6272 32.3622 44.6539C33.0689 44.3006 33.7555 43.9006 34.4822 43.5872C35.2689 43.2472 35.1089 42.9272 34.5889 42.4539C32.9222 40.9472 31.2822 39.4072 29.6222 37.8872C26.8889 35.3806 24.1422 32.9006 21.4289 30.3739C20.9155 29.8939 20.4555 29.7139 19.8422 30.0806C19.2422 30.4406 18.7622 30.1739 18.2955 29.7872C17.7889 29.3606 18.0622 28.9006 18.2689 28.5006C18.5889 27.8806 18.3555 27.5406 17.8622 27.1539C14.9489 24.8672 12.3622 22.2872 10.4755 19.0672C9.84886 17.9939 9.36219 16.8672 9.04886 15.6606C8.36886 13.0606 9.21553 10.9739 11.2555 9.3539C11.8622 8.8739 11.6822 8.70723 11.1955 8.34723C10.8289 8.0739 9.94219 7.92723 10.4222 7.22723C10.9022 6.52723 11.3422 7.32723 11.7489 7.54056C12.4822 7.92723 13.0689 8.62056 14.0689 8.32723C14.6022 8.1739 14.8955 7.9739 14.9222 7.38723C14.9889 6.08056 15.5622 4.96056 16.2822 3.8939C17.0955 2.68723 18.2689 2.0739 19.6422 1.76056C20.0089 1.6739 20.3355 1.76056 20.6489 1.9339C22.6355 3.02723 24.7622 3.64723 26.9955 4.10056C31.9089 5.10723 36.0422 7.64723 39.6289 11.0939C40.4555 11.8872 41.3289 12.6006 42.2822 13.2339C48.6689 17.4739 55.0822 21.6806 61.4222 25.9939C64.8155 28.3006 67.7422 31.1206 69.4022 34.9672C70.2622 36.9606 71.2222 38.9406 71.4889 41.1472C71.6289 42.3206 71.4422 43.4272 70.8089 44.4272C69.7422 46.1139 68.8822 48.0206 67.5022 49.3939C66.2555 50.6339 66.4555 51.8606 66.5155 53.2339C66.5289 53.5139 66.4755 53.8739 66.8222 53.9539C67.1555 54.0272 67.1622 53.6406 67.2755 53.4406C67.8555 52.4206 68.6089 51.7672 69.8889 52.0606C70.2889 52.1539 70.7022 52.1606 71.1155 52.2139C72.4755 52.3939 73.0955 52.8939 73.3355 54.2339C73.8489 57.1139 73.4889 59.9206 72.4089 62.6206C71.9222 63.8472 71.0689 64.2939 69.7622 64.1006C68.8955 63.9739 67.9755 64.1072 67.1755 63.6139C66.9489 63.4739 66.8155 63.6272 66.7222 63.8072C65.6755 65.7539 63.7555 66.8006 62.2022 68.2272C61.3822 68.9739 61.3422 68.9406 62.2889 69.5806C71.3755 75.7139 80.4688 81.8406 89.5555 87.9672C91.5289 89.3006 91.6689 90.7339 89.9489 92.4072C89.6622 92.6872 89.2755 92.9139 88.8955 93.0339C86.3955 93.8139 83.8555 94.2339 81.2289 93.8539C80.2222 93.7072 79.3822 93.1806 78.5755 92.6339C69.8222 86.7472 61.0822 80.8406 52.3289 74.9472C51.7489 74.5539 51.3822 74.1872 51.9489 73.5206C52.3222 73.0739 52.1289 72.8872 51.6289 72.7739C50.5955 72.5339 49.5822 72.5272 48.5289 72.6606C47.0689 72.8472 45.5955 73.0272 44.1089 72.6939C44.0555 72.7739 44.0022 72.8739 43.9489 72.9739ZM45.4089 66.9406C50.7555 66.9672 56.0022 66.3006 61.0289 64.3206C62.0555 63.9139 62.0889 63.4672 61.4622 62.5872C60.7955 61.6472 59.8222 60.8072 59.9622 59.4406C60.0022 59.0406 59.8755 58.6272 59.8355 58.2139C59.7955 57.7806 59.7022 57.5939 59.1422 57.6206C57.0755 57.7139 55.0355 57.5206 53.1089 56.6539C50.7889 55.6139 49.1955 53.8206 47.8622 51.7272C46.3222 49.2939 44.0689 47.8606 41.2955 47.2539C37.5955 46.4472 34.8822 47.4939 32.8955 50.4672C32.5622 50.9672 32.2022 51.4472 31.8089 51.9006C29.7555 54.2739 28.0089 54.7272 25.1289 53.5806C24.5822 53.3606 24.5955 53.7072 24.5689 54.0072C24.4489 55.4539 24.4622 56.9272 24.2289 58.3539C23.9689 59.9472 24.6622 61.0472 25.7555 62.0006C26.9089 63.0072 28.2355 63.7539 29.6555 64.3206C34.7222 66.3406 40.0089 66.9539 45.4089 66.9406ZM20.1022 9.84723C19.6422 9.64723 19.2889 9.52056 18.9622 9.34056C18.3289 8.98056 18.1155 9.22056 18.1022 9.86723C18.0822 10.9139 18.3822 11.8406 18.9755 12.7206C20.7889 15.4206 23.0889 17.6339 25.7555 19.4339C34.3555 25.2139 42.9889 30.9339 51.6155 36.6672C54.2155 38.3939 56.9622 39.8139 59.9689 40.7072C62.2089 41.3739 64.4822 41.7472 66.8089 41.2206C68.5755 40.8206 69.6755 39.5406 69.7755 37.7472C69.8289 36.8406 69.4889 36.0072 69.1155 35.2006C67.2622 31.2139 64.2022 28.3206 60.6422 25.9139C55.5755 22.4939 50.4689 19.1339 45.3689 15.7606C44.3822 15.1072 43.4289 14.3939 42.1822 13.8006C42.5955 14.6406 42.9622 15.3006 43.2555 15.9806C44.6689 19.2406 43.0155 21.7672 39.4822 21.7472C38.7222 21.7406 37.9555 21.7272 37.2155 21.5872C32.3422 20.6872 28.1755 18.3872 24.5555 15.0539C22.8422 13.4739 21.3622 11.7139 20.4489 9.5339C19.2422 6.6339 20.2155 4.5739 23.1822 3.78056C23.2289 3.76723 23.2622 3.7139 23.3022 3.6739C21.4489 2.62723 19.2422 3.24723 18.2955 5.0739C17.4822 6.64056 17.9755 8.26723 19.5022 9.10056C19.7289 9.2339 20.0555 9.28723 20.1022 9.84723ZM43.9289 74.3339L38.9289 73.4739L33.4822 73.1406L30.5955 73.0539C26.8689 77.0272 21.4622 83.0739 17.7622 87.0739C15.4155 89.6072 13.1022 92.1672 10.7889 94.7339C9.98219 95.6272 10.0355 96.1606 10.8689 97.0272C11.2555 97.4339 11.7022 97.7006 12.2555 97.8006C14.5622 98.2072 16.8755 98.5606 19.2289 98.5206C19.7022 98.5206 20.1822 98.5005 20.6555 98.5206C22.5289 98.6006 24.0355 97.8406 25.2755 96.4872C29.9022 91.4472 40.1889 79.9606 44.8222 74.9206L43.9289 74.3339ZM52.4755 74.4739L62.7489 81.3672L77.7489 91.5472C79.2555 92.5739 80.8755 93.3406 82.7155 93.0872C85.0622 92.7672 87.3822 92.2606 89.5822 91.3139C90.1889 91.0539 90.6089 90.7139 90.7289 90.0539C90.7622 89.8606 90.7555 89.7006 90.7089 89.5539C90.5555 89.0406 90.0022 88.7339 89.9089 88.6872C89.1889 88.2939 77.4489 80.4739 61.1822 69.6206C60.8022 69.8672 60.2089 70.2606 59.4755 70.7672C58.3889 71.5272 58.2755 71.6472 57.8489 71.8406C57.3222 72.0739 56.6955 72.1739 55.4755 72.3606C54.0489 72.5739 53.7889 72.5272 53.4022 72.8072C52.6689 73.3272 52.4755 74.4739 52.4755 74.4739ZM69.1289 46.2472C68.5689 46.4006 68.2689 46.4806 67.9755 46.5672C66.4955 47.0072 64.9755 47.0939 63.4555 46.9139C58.1822 46.2806 53.4889 44.1272 49.0955 41.2606C45.5222 38.9272 41.9689 36.5472 38.4489 34.1339C37.2289 33.2939 36.0289 33.1139 34.5955 33.4739C31.9089 34.1472 29.2955 33.7806 26.9155 32.3339C24.9689 31.1539 23.0755 29.8739 21.1822 28.6072C17.5755 26.2006 14.3422 23.3872 11.7822 19.8539C11.1755 19.0139 10.7089 18.0806 10.1222 17.2339C10.1889 17.7939 10.4755 18.2539 10.7355 18.7139C13.1155 22.9272 16.6755 26.0672 20.5422 28.7672C27.0555 33.3206 33.7422 37.6272 40.3889 41.9939C43.8822 44.2872 47.2355 46.7939 51.0422 48.5939C52.7355 49.3939 54.4889 50.0339 56.2555 50.6406C57.5955 51.1006 57.8289 51.8206 57.1289 53.0539C56.8489 53.5472 56.5222 54.0206 56.2422 54.5139C56.0422 54.8739 55.9755 55.2739 56.4155 55.5006C57.0889 55.8472 57.7889 56.1006 58.6022 55.8472C57.7222 54.7806 57.6622 54.2672 58.3822 53.4472C58.6489 53.1406 58.9689 52.8606 59.3155 52.6539C59.8955 52.3072 60.5289 52.0672 61.2089 52.3606C61.8622 52.6406 61.6955 53.2739 61.7689 53.8672C61.9555 53.7672 62.0355 53.6272 62.1222 53.5006C63.0489 52.1339 64.2555 51.1339 65.7689 50.4139C67.4355 49.6139 68.0289 47.8806 69.1289 46.2472ZM38.2689 31.1672C38.0755 31.0139 37.8889 30.8539 37.6822 30.7206C34.2089 28.3872 30.7622 26.0272 27.2622 23.7406C23.7222 21.4339 20.3289 18.9872 17.5689 15.7139C16.1422 14.0272 15.3689 12.1939 15.4689 9.9939C15.5022 9.26723 15.5489 8.54056 15.5889 7.8139C14.5022 9.66056 13.5889 11.5739 12.0822 13.1072C11.9355 13.2606 11.8222 13.4006 11.8955 13.6006C12.2022 14.4272 12.2155 15.3739 12.7089 16.1206C13.8222 17.7939 14.8022 19.5739 16.3622 20.9206C17.5822 21.9739 18.6489 23.2206 19.9422 24.1672C21.8555 25.5672 24.0689 26.5206 25.9555 27.9872C26.1689 28.1539 26.4689 28.2539 26.7422 28.2872C27.2355 28.3472 27.5822 28.6939 27.9889 28.8739C29.2022 29.4072 30.2889 30.2472 31.5889 30.5339C33.1955 30.8872 34.8022 31.2806 36.4689 31.3139C37.0489 31.3072 37.6222 30.9872 38.2689 31.1672ZM55.1089 39.5606C53.9755 38.8739 52.8155 38.2272 51.7089 37.5006C45.2289 33.2272 38.7422 28.9606 32.3022 24.6272C28.4689 22.0472 24.4155 19.7806 21.1022 16.4739C18.9089 14.2806 17.0622 11.9806 17.5422 8.58723C17.5889 8.2539 17.4555 7.90056 17.4155 7.5539C17.1422 5.34056 18.0222 3.82056 20.0689 2.9339C20.3022 2.8339 20.6555 2.88723 20.7222 2.50723C20.4222 2.2139 20.0755 2.10056 19.6755 2.1739C17.1489 2.62723 15.5155 4.92723 16.0222 6.90056C16.1355 7.34056 16.0422 7.78056 15.9889 8.22056C15.6422 11.0472 16.1089 13.5939 18.1622 15.7872C20.0755 17.8339 22.0822 19.7606 24.4089 21.3139C33.2089 27.1939 42.0355 33.0339 50.8422 38.8939C51.3155 39.2072 51.7955 39.3739 52.3555 39.3206C53.2822 39.2339 54.1889 39.3006 55.1089 39.5606ZM24.1155 62.1472C24.1289 63.3206 24.5889 64.0739 25.2155 64.7806C27.2022 67.0072 29.8489 68.0339 32.6155 68.8139C38.3022 70.4139 44.1022 70.6139 49.9489 70.2139C50.5755 70.1739 51.2555 70.1139 51.6289 70.6272C52.5022 71.8406 53.6222 71.7672 54.8489 71.4672C55.5222 71.3006 56.2022 71.1339 56.8955 71.0339C57.9222 70.8806 58.6622 70.2872 59.1555 69.4539C59.6955 68.5472 60.4489 68.0072 61.3955 67.6539C62.5089 67.2406 63.4822 66.5939 64.3689 65.8206C64.5822 65.6339 64.8689 65.4606 64.8022 65.1406C64.7355 64.8006 64.3622 64.8206 64.1155 64.7006C63.7955 64.5472 63.5022 64.6806 63.2089 64.8206C62.5755 65.1206 61.9689 65.5339 61.3089 65.6739C59.6822 66.0272 58.8022 66.8406 58.8622 68.6206C58.8955 69.5006 58.3022 70.1806 57.4222 70.4272C56.4155 70.7072 55.3955 70.9406 54.3622 71.1072C53.4422 71.2539 52.8489 70.7939 52.6422 69.8672C52.5689 69.5339 52.5289 69.1739 52.5489 68.8272C52.5955 68.0206 52.2089 67.8806 51.4955 67.9606C46.3689 68.5472 41.2489 68.4539 36.1689 67.5206C31.8022 66.7206 27.5155 65.6139 24.1155 62.1472ZM28.2289 4.84723C27.2755 4.46056 26.2622 4.38723 25.2822 4.16723C24.1089 3.90056 23.0155 4.1339 21.9755 4.66723C21.0022 5.1739 20.4822 5.98723 20.4422 7.1139C20.3889 8.50056 20.8222 9.74723 21.5689 10.8739C25.0089 16.0806 29.9355 19.2339 35.8089 21.0006C37.2555 21.4339 38.7955 21.5072 40.3222 21.2672C41.8822 21.0272 43.0622 20.0806 43.2155 18.8072C43.5155 16.3539 42.3022 14.4939 40.7955 12.7539C40.7355 12.6872 40.6222 12.6872 40.5222 12.8406C40.9022 13.6339 41.4155 14.4006 41.6955 15.2806C42.3889 17.5006 41.3822 19.2139 39.1089 19.6472C38.3222 19.8006 37.5422 19.8139 36.7489 19.6739C32.2822 18.9006 28.5622 16.7072 25.4022 13.5472C24.1022 12.2472 22.9822 10.7806 22.5355 8.9139C22.0422 6.86723 22.9955 5.32723 25.0422 4.88723C26.1089 4.66056 27.1622 4.7739 28.2289 4.84723ZM29.7289 68.3272C29.6889 68.3939 29.6422 68.4672 29.6022 68.5339C30.2289 68.8739 30.8422 69.2606 31.4955 69.5539C36.3622 71.6939 41.5089 72.1539 46.7422 72.0472C47.5755 72.0339 48.0355 71.4539 48.7289 70.8006C42.1089 71.0539 35.8022 70.5806 29.7289 68.3272ZM73.1155 56.8072C73.0889 55.7939 73.1488 54.9406 72.8889 54.1072C72.8155 53.8672 72.7889 53.5472 72.5155 53.4939C72.1422 53.4272 72.0755 53.8072 71.9755 54.0472C70.8689 56.6806 70.6689 59.4272 70.9889 62.2339C71.0289 62.5539 71.0089 63.0539 71.4155 63.1006C71.8622 63.1472 71.9755 62.6472 72.1089 62.3139C72.8355 60.5006 73.0755 58.5939 73.1155 56.8072ZM68.0089 42.3272C66.4155 42.8739 64.8222 42.9006 63.2222 42.7806C62.9822 42.7606 62.7822 42.8272 62.7289 43.1072C62.6822 43.3539 62.7822 43.5672 63.0022 43.6539C63.2889 43.7672 63.6022 43.8939 63.9022 43.8806C65.1022 43.8472 66.2822 43.6539 67.3755 43.1206C67.6555 42.9806 67.9555 42.8406 68.0089 42.3272ZM70.8489 63.6406C70.0222 59.8739 70.3355 56.2939 72.0689 52.7739C70.1955 54.0406 69.2822 62.3406 70.8489 63.6406ZM30.0089 52.9406C28.9489 53.2872 28.0355 53.6272 27.0422 53.3939C26.0222 53.1606 25.2622 52.6072 24.7689 51.6406C24.5822 52.8139 25.2755 53.3206 26.1222 53.6872C27.3755 54.2339 28.9555 53.9606 30.0089 52.9406Z" fill="#293040"/>
<path d="M58.2621 29.2739C59.1821 29.3073 59.9688 29.6339 60.6821 30.1139C62.5154 31.3473 64.3155 32.6339 66.0088 34.0606C66.7421 34.6806 67.3288 35.4139 67.6488 36.3406C67.8221 36.8339 67.7821 37.2739 67.4488 37.6739C67.0955 38.0939 66.6288 38.0939 66.1421 37.9673C65.4888 37.8073 64.9021 37.4873 64.3688 37.0873C62.3154 35.5606 60.2688 34.0206 58.2221 32.4873C57.7088 32.1073 57.3021 31.6273 56.9488 31.0939C56.2955 30.0939 56.5421 29.5406 57.7288 29.3339C57.9221 29.3206 58.1088 29.3006 58.2621 29.2739ZM58.3088 29.7806C57.8154 29.8006 57.6755 30.0939 57.9888 30.6339C58.3288 31.2206 58.8088 31.6873 59.3355 32.0939C61.1688 33.5073 63.0088 34.8939 64.8488 36.3006C65.3088 36.6473 65.8088 36.9139 66.3488 37.1073C66.6288 37.2073 66.9088 37.2673 67.1421 37.0139C67.3421 36.7939 67.2555 36.5406 67.1755 36.2939C66.9355 35.5406 66.4288 34.9739 65.8421 34.4806C64.1221 33.0273 62.2888 31.7206 60.4155 30.4739C59.8221 30.0873 59.1688 29.8406 58.3088 29.7806Z" fill="#293040"/>
</g>
<path d="M500.742 62.1873C499.555 64.7073 497.035 65.8806 495.155 67.8206C496.775 68.9206 498.382 70.0139 499.995 71.1006C507.789 76.3606 515.582 81.6073 523.369 86.8806C524.095 87.3739 525.182 87.7006 524.915 88.8873C524.629 90.1406 524.089 91.3006 522.769 91.8206C521.129 92.4673 519.382 92.5606 517.655 92.7739C515.555 93.0273 513.762 92.4006 512.042 91.2273C503.609 85.5006 495.149 79.8206 486.695 74.1273C485.335 73.2139 485.335 73.214 486.109 71.7673C483.349 70.7406 480.562 72.1406 477.809 71.4739C477.769 71.5606 477.722 71.6473 477.682 71.7339C478.135 72.1606 478.569 72.6006 479.035 73.0073C479.475 73.3873 479.535 73.674 479.095 74.1539C475.475 78.0539 471.882 81.974 468.282 85.894C465.389 89.0406 462.489 92.1806 459.602 95.3339C457.995 97.0873 456.002 98.1139 453.669 98.4206C451.469 98.7073 449.269 98.8273 447.055 98.3606C445.175 97.9606 444.449 96.4673 443.675 95.0406C443.349 94.4339 443.815 93.8339 444.262 93.3473C447.289 90.0606 450.309 86.7806 453.335 83.4939C456.789 79.7406 460.235 75.9873 463.682 72.2339C463.902 71.9939 464.235 71.7939 463.709 71.4473C462.575 70.7006 462.555 70.4606 463.349 69.3206C463.562 69.0073 463.809 68.7206 464.095 68.3539C462.535 67.2939 461.169 66.0006 459.695 64.8273C458.282 63.7006 457.495 62.3339 457.449 60.4473C457.389 57.7806 458.102 55.1539 457.949 52.5206C457.769 49.4806 459.402 47.6939 461.609 46.1273C463.689 44.6539 466.015 43.6406 468.282 42.5139C469.109 42.1006 469.015 41.8739 468.422 41.3273C463.949 37.2539 459.495 33.1673 455.062 29.0473C454.542 28.5673 454.102 28.6339 453.635 28.9273C452.962 29.3539 452.515 28.9873 452.042 28.5939C451.535 28.1739 451.902 27.7406 452.095 27.4139C452.482 26.7539 452.215 26.4406 451.695 26.0273C448.795 23.7339 446.182 21.1673 444.302 17.9473C443.335 16.2873 442.575 14.5406 442.675 12.5739C442.775 10.6406 443.755 9.18727 445.322 8.08727C445.742 7.79394 446.075 7.86061 446.422 8.17394C446.835 8.54727 446.362 8.72727 446.229 8.94727C445.742 9.75394 445.469 10.6073 445.549 11.5673C445.995 11.6606 446.102 11.3006 446.262 11.0606C446.975 9.97394 447.675 8.88727 448.369 7.78727C448.802 7.10727 449.029 6.36727 449.075 5.55394C449.215 3.1606 451.055 1.1406 453.429 0.693936C453.802 0.620603 454.109 0.700603 454.429 0.873937C456.415 1.95394 458.535 2.59394 460.762 3.0406C465.675 4.03394 469.802 6.5806 473.389 10.0139C474.242 10.8273 475.135 11.5606 476.115 12.2073C482.495 16.4406 488.902 20.6473 495.235 24.9539C498.515 27.1873 501.369 29.9073 503.029 33.5939C503.982 35.7139 504.995 37.8473 505.255 40.2139C505.375 41.3139 505.182 42.3606 504.575 43.3073C503.535 44.9339 502.489 46.5539 501.442 48.1739C501.355 48.3073 501.282 48.4739 501.155 48.5473C499.389 49.5473 500.429 51.1606 500.295 52.5073C500.275 52.7406 500.442 52.9673 500.662 53.0073C500.875 53.0473 500.902 52.7673 500.982 52.6139C501.809 51.0339 502.155 50.8273 503.962 51.0339C504.989 51.1539 506.162 50.9406 506.762 52.1873C507.015 52.7139 507.175 53.2539 507.229 53.8206C507.435 56.2473 507.215 58.6339 506.395 60.9339C505.842 62.4939 505.109 63.3339 503.202 62.9206C502.769 62.8273 502.322 62.7739 501.882 62.7739C501.409 62.7473 501.082 62.4739 500.742 62.1873Z" fill="white"/>
<path d="M490.922 65.8539C490.882 65.8673 490.842 65.8873 490.802 65.8939C490.796 65.8939 490.762 65.8339 490.776 65.8139C490.796 65.7673 490.829 65.7273 490.862 65.6873C490.882 65.7406 490.902 65.7939 490.922 65.8539Z" fill="#293040"/>
<path d="M477.948 71.9739C478.348 72.3139 478.735 72.6672 479.148 73.0006C479.755 73.4872 479.722 73.9072 479.182 74.4739C477.395 76.3606 475.675 78.3006 473.915 80.2139C469.195 85.3406 464.475 90.4672 459.748 95.5872C457.968 97.5206 455.722 98.4672 453.128 98.7072C451.135 98.8939 449.155 98.9806 447.175 98.5272C445.328 98.1006 444.582 96.6139 443.842 95.1472C443.562 94.5939 443.942 94.0406 444.342 93.6072C447.142 90.5472 449.948 87.4872 452.755 84.4339C456.442 80.4206 460.128 76.4139 463.822 72.4072C464.075 72.1339 464.302 71.9272 463.828 71.5939C462.795 70.8672 462.775 70.6339 463.468 69.5539C463.588 69.3672 463.702 69.1672 463.855 69.0139C464.282 68.5939 464.075 68.3806 463.675 68.0672C462.228 66.9339 460.808 65.7672 459.415 64.5739C458.248 63.5739 457.715 62.2939 457.628 60.7339C457.495 58.2806 458.102 55.8872 458.088 53.4472C458.088 53.0406 458.222 52.6206 458.182 52.2206C457.942 49.9339 459.122 48.3739 460.755 47.0206C462.455 45.6139 464.408 44.6272 466.362 43.6539C467.068 43.3006 467.755 42.9006 468.482 42.5872C469.268 42.2472 469.108 41.9272 468.588 41.4539C466.922 39.9472 465.282 38.4072 463.622 36.8872C460.888 34.3806 458.142 31.9006 455.428 29.3739C454.915 28.8939 454.455 28.7139 453.842 29.0806C453.242 29.4406 452.762 29.1739 452.295 28.7872C451.788 28.3606 452.062 27.9006 452.268 27.5006C452.588 26.8806 452.355 26.5406 451.862 26.1539C448.948 23.8672 446.362 21.2872 444.475 18.0672C443.848 16.9939 443.362 15.8672 443.048 14.6606C442.368 12.0606 443.215 9.9739 445.255 8.3539C445.862 7.8739 445.682 7.70723 445.195 7.34723C444.828 7.0739 443.942 6.92723 444.422 6.22723C444.902 5.52723 445.342 6.32723 445.748 6.54056C446.482 6.92723 447.068 7.62056 448.068 7.32723C448.602 7.1739 448.895 6.9739 448.922 6.38723C448.988 5.08056 449.562 3.96056 450.282 2.8939C451.095 1.68723 452.268 1.0739 453.642 0.760562C454.008 0.673895 454.335 0.760563 454.648 0.933897C456.635 2.02723 458.762 2.64723 460.995 3.10056C465.908 4.10723 470.042 6.64723 473.628 10.0939C474.455 10.8872 475.328 11.6006 476.282 12.2339C482.668 16.4739 489.082 20.6806 495.422 24.9939C498.815 27.3006 501.742 30.1206 503.402 33.9672C504.262 35.9606 505.222 37.9406 505.488 40.1472C505.628 41.3206 505.442 42.4272 504.808 43.4272C503.742 45.1139 502.882 47.0206 501.502 48.3939C500.255 49.6339 500.455 50.8606 500.515 52.2339C500.528 52.5139 500.475 52.8739 500.822 52.9539C501.155 53.0272 501.162 52.6406 501.275 52.4406C501.855 51.4206 502.608 50.7672 503.888 51.0606C504.288 51.1539 504.702 51.1606 505.115 51.2139C506.475 51.3939 507.095 51.8939 507.335 53.2339C507.848 56.1139 507.488 58.9206 506.408 61.6206C505.922 62.8472 505.068 63.2939 503.762 63.1006C502.895 62.9739 501.975 63.1072 501.175 62.6139C500.948 62.4739 500.815 62.6272 500.722 62.8072C499.675 64.7539 497.755 65.8006 496.202 67.2272C495.382 67.9739 495.342 67.9406 496.288 68.5806C505.375 74.7139 514.468 80.8406 523.555 86.9672C525.528 88.3006 525.668 89.7339 523.948 91.4072C523.662 91.6872 523.275 91.9139 522.895 92.0339C520.395 92.8139 517.855 93.2339 515.228 92.8539C514.222 92.7072 513.382 92.1806 512.575 91.6339C503.822 85.7472 495.082 79.8406 486.328 73.9472C485.748 73.5539 485.382 73.1872 485.948 72.5206C486.322 72.0739 486.128 71.8872 485.628 71.7739C484.595 71.5339 483.582 71.5272 482.528 71.6606C481.068 71.8472 479.595 72.0272 478.108 71.6939C478.055 71.7739 478.002 71.8739 477.948 71.9739ZM479.408 65.9406C484.755 65.9672 490.002 65.3006 495.028 63.3206C496.055 62.9139 496.088 62.4672 495.462 61.5872C494.795 60.6472 493.822 59.8072 493.962 58.4406C494.002 58.0406 493.875 57.6272 493.835 57.2139C493.795 56.7806 493.702 56.5939 493.142 56.6206C491.075 56.7139 489.035 56.5206 487.108 55.6539C484.788 54.6139 483.195 52.8206 481.862 50.7272C480.322 48.2939 478.068 46.8606 475.295 46.2539C471.595 45.4472 468.882 46.4939 466.895 49.4672C466.562 49.9672 466.202 50.4472 465.808 50.9006C463.755 53.2739 462.008 53.7272 459.128 52.5806C458.582 52.3606 458.595 52.7072 458.568 53.0072C458.448 54.4539 458.462 55.9272 458.228 57.3539C457.968 58.9472 458.662 60.0472 459.755 61.0006C460.908 62.0072 462.235 62.7539 463.655 63.3206C468.722 65.3406 474.008 65.9539 479.408 65.9406ZM454.102 8.84723C453.642 8.64723 453.288 8.52056 452.962 8.34056C452.328 7.98056 452.115 8.22056 452.102 8.86723C452.082 9.91389 452.382 10.8406 452.975 11.7206C454.788 14.4206 457.088 16.6339 459.755 18.4339C468.355 24.2139 476.988 29.9339 485.615 35.6672C488.215 37.3939 490.962 38.8139 493.968 39.7072C496.208 40.3739 498.482 40.7472 500.808 40.2206C502.575 39.8206 503.675 38.5406 503.775 36.7472C503.828 35.8406 503.488 35.0072 503.115 34.2006C501.262 30.2139 498.202 27.3206 494.642 24.9139C489.575 21.4939 484.468 18.1339 479.368 14.7606C478.382 14.1072 477.428 13.3939 476.182 12.8006C476.595 13.6406 476.962 14.3006 477.255 14.9806C478.668 18.2406 477.015 20.7672 473.482 20.7472C472.722 20.7406 471.955 20.7272 471.215 20.5872C466.342 19.6872 462.175 17.3872 458.555 14.0539C456.842 12.4739 455.362 10.7139 454.448 8.5339C453.242 5.6339 454.215 3.5739 457.182 2.78056C457.228 2.76723 457.262 2.7139 457.302 2.6739C455.448 1.62723 453.242 2.24723 452.295 4.0739C451.482 5.64056 451.975 7.26723 453.502 8.10056C453.728 8.2339 454.055 8.28723 454.102 8.84723ZM477.928 73.3339L472.928 72.4739L467.482 72.1406L464.595 72.0539C460.868 76.0272 455.462 82.0739 451.762 86.0739C449.415 88.6072 447.102 91.1672 444.788 93.7339C443.982 94.6272 444.035 95.1606 444.868 96.0272C445.255 96.4339 445.702 96.7006 446.255 96.8006C448.562 97.2072 450.875 97.5606 453.228 97.5206C453.702 97.5206 454.182 97.5005 454.655 97.5206C456.528 97.6006 458.035 96.8406 459.275 95.4872C463.902 90.4472 474.188 78.9606 478.822 73.9206L477.928 73.3339ZM486.475 73.4739L496.748 80.3672L511.748 90.5472C513.255 91.5739 514.875 92.3406 516.715 92.0872C519.062 91.7672 521.382 91.2606 523.582 90.3139C524.188 90.0539 524.608 89.7139 524.728 89.0539C524.762 88.8606 524.755 88.7006 524.708 88.5539C524.555 88.0406 524.002 87.7339 523.908 87.6872C523.188 87.2939 511.448 79.4739 495.182 68.6206C494.802 68.8672 494.208 69.2606 493.475 69.7672C492.388 70.5272 492.275 70.6472 491.848 70.8406C491.322 71.0739 490.695 71.1739 489.475 71.3606C488.048 71.5739 487.788 71.5272 487.402 71.8072C486.668 72.3272 486.475 73.4739 486.475 73.4739ZM503.128 45.2472C502.568 45.4006 502.268 45.4806 501.975 45.5672C500.495 46.0072 498.975 46.0939 497.455 45.9139C492.182 45.2806 487.488 43.1272 483.095 40.2606C479.522 37.9272 475.968 35.5472 472.448 33.1339C471.228 32.2939 470.028 32.1139 468.595 32.4739C465.908 33.1472 463.295 32.7806 460.915 31.3339C458.968 30.1539 457.075 28.8739 455.182 27.6072C451.575 25.2006 448.342 22.3872 445.782 18.8539C445.175 18.0139 444.708 17.0806 444.122 16.2339C444.188 16.7939 444.475 17.2539 444.735 17.7139C447.115 21.9272 450.675 25.0672 454.542 27.7672C461.055 32.3206 467.742 36.6272 474.388 40.9939C477.882 43.2872 481.235 45.7939 485.042 47.5939C486.735 48.3939 488.488 49.0339 490.255 49.6406C491.595 50.1006 491.828 50.8206 491.128 52.0539C490.848 52.5472 490.522 53.0206 490.242 53.5139C490.042 53.8739 489.975 54.2739 490.415 54.5006C491.088 54.8472 491.788 55.1006 492.602 54.8472C491.722 53.7806 491.662 53.2672 492.382 52.4472C492.648 52.1406 492.968 51.8606 493.315 51.6539C493.895 51.3072 494.528 51.0672 495.208 51.3606C495.862 51.6406 495.695 52.2739 495.768 52.8672C495.955 52.7672 496.035 52.6272 496.122 52.5006C497.048 51.1339 498.255 50.1339 499.768 49.4139C501.435 48.6139 502.028 46.8806 503.128 45.2472ZM472.268 30.1672C472.075 30.0139 471.888 29.8539 471.682 29.7206C468.208 27.3872 464.762 25.0272 461.262 22.7406C457.722 20.4339 454.328 17.9872 451.568 14.7139C450.142 13.0272 449.368 11.1939 449.468 8.9939C449.502 8.26723 449.548 7.54056 449.588 6.8139C448.502 8.66056 447.588 10.5739 446.082 12.1072C445.935 12.2606 445.822 12.4006 445.895 12.6006C446.202 13.4272 446.215 14.3739 446.708 15.1206C447.822 16.7939 448.802 18.5739 450.362 19.9206C451.582 20.9739 452.648 22.2206 453.942 23.1672C455.855 24.5672 458.068 25.5206 459.955 26.9872C460.168 27.1539 460.468 27.2539 460.742 27.2872C461.235 27.3472 461.582 27.6939 461.988 27.8739C463.202 28.4072 464.288 29.2472 465.588 29.5339C467.195 29.8872 468.802 30.2806 470.468 30.3139C471.048 30.3072 471.622 29.9872 472.268 30.1672ZM489.108 38.5606C487.975 37.8739 486.815 37.2272 485.708 36.5006C479.228 32.2272 472.742 27.9606 466.302 23.6272C462.468 21.0472 458.415 18.7806 455.102 15.4739C452.908 13.2806 451.062 10.9806 451.542 7.58723C451.588 7.2539 451.455 6.90056 451.415 6.5539C451.142 4.34056 452.022 2.82056 454.068 1.9339C454.302 1.8339 454.655 1.88723 454.722 1.50723C454.422 1.2139 454.075 1.10056 453.675 1.1739C451.148 1.62723 449.515 3.92723 450.022 5.90056C450.135 6.34056 450.042 6.78056 449.988 7.22056C449.642 10.0472 450.108 12.5939 452.162 14.7872C454.075 16.8339 456.082 18.7606 458.408 20.3139C467.208 26.1939 476.035 32.0339 484.842 37.8939C485.315 38.2072 485.795 38.3739 486.355 38.3206C487.282 38.2339 488.188 38.3006 489.108 38.5606ZM458.115 61.1472C458.128 62.3206 458.588 63.0739 459.215 63.7806C461.202 66.0072 463.848 67.0339 466.615 67.8139C472.302 69.4139 478.102 69.6139 483.948 69.2139C484.575 69.1739 485.255 69.1139 485.628 69.6272C486.502 70.8406 487.622 70.7672 488.848 70.4672C489.522 70.3006 490.202 70.1339 490.895 70.0339C491.922 69.8806 492.662 69.2872 493.155 68.4539C493.695 67.5472 494.448 67.0072 495.395 66.6539C496.508 66.2406 497.482 65.5939 498.368 64.8206C498.582 64.6339 498.868 64.4606 498.802 64.1406C498.735 63.8006 498.362 63.8206 498.115 63.7006C497.795 63.5472 497.502 63.6806 497.208 63.8206C496.575 64.1206 495.968 64.5339 495.308 64.6739C493.682 65.0272 492.802 65.8406 492.862 67.6206C492.895 68.5006 492.302 69.1806 491.422 69.4272C490.415 69.7072 489.395 69.9406 488.362 70.1072C487.442 70.2539 486.848 69.7939 486.642 68.8672C486.568 68.5339 486.528 68.1739 486.548 67.8272C486.595 67.0206 486.208 66.8806 485.495 66.9606C480.368 67.5472 475.248 67.4539 470.168 66.5206C465.802 65.7206 461.515 64.6139 458.115 61.1472ZM462.228 3.84723C461.275 3.46056 460.262 3.38723 459.282 3.16723C458.108 2.90056 457.015 3.1339 455.975 3.66723C455.002 4.1739 454.482 4.98723 454.442 6.1139C454.388 7.50056 454.822 8.74723 455.568 9.8739C459.008 15.0806 463.935 18.2339 469.808 20.0006C471.255 20.4339 472.795 20.5072 474.322 20.2672C475.882 20.0272 477.062 19.0806 477.215 17.8072C477.515 15.3539 476.302 13.4939 474.795 11.7539C474.735 11.6872 474.622 11.6872 474.522 11.8406C474.902 12.6339 475.415 13.4006 475.695 14.2806C476.388 16.5006 475.382 18.2139 473.108 18.6472C472.322 18.8006 471.542 18.8139 470.748 18.6739C466.282 17.9006 462.562 15.7072 459.402 12.5472C458.102 11.2472 456.982 9.78056 456.535 7.9139C456.042 5.86723 456.995 4.32723 459.042 3.88723C460.108 3.66056 461.162 3.7739 462.228 3.84723ZM463.728 67.3272C463.688 67.3939 463.642 67.4672 463.602 67.5339C464.228 67.8739 464.842 68.2606 465.495 68.5539C470.362 70.6939 475.508 71.1539 480.742 71.0472C481.575 71.0339 482.035 70.4539 482.728 69.8006C476.108 70.0539 469.802 69.5806 463.728 67.3272ZM507.115 55.8072C507.088 54.7939 507.148 53.9406 506.888 53.1072C506.815 52.8672 506.788 52.5472 506.515 52.4939C506.142 52.4272 506.075 52.8072 505.975 53.0472C504.868 55.6806 504.668 58.4272 504.988 61.2339C505.028 61.5539 505.008 62.0539 505.415 62.1006C505.862 62.1472 505.975 61.6472 506.108 61.3139C506.835 59.5006 507.075 57.5939 507.115 55.8072ZM502.008 41.3272C500.415 41.8739 498.822 41.9006 497.222 41.7806C496.982 41.7606 496.782 41.8272 496.728 42.1072C496.682 42.3539 496.782 42.5672 497.002 42.6539C497.288 42.7672 497.602 42.8939 497.902 42.8806C499.102 42.8472 500.282 42.6539 501.375 42.1206C501.655 41.9806 501.955 41.8406 502.008 41.3272ZM504.848 62.6406C504.022 58.8739 504.335 55.2939 506.068 51.7739C504.195 53.0406 503.282 61.3406 504.848 62.6406ZM464.008 51.9406C462.948 52.2872 462.035 52.6272 461.042 52.3939C460.022 52.1606 459.262 51.6072 458.768 50.6406C458.582 51.8139 459.275 52.3206 460.122 52.6872C461.375 53.2339 462.955 52.9606 464.008 51.9406Z" fill="#293040"/>
<path d="M492.262 28.2739C493.182 28.3073 493.969 28.6339 494.682 29.1139C496.515 30.3473 498.315 31.6339 500.009 33.0606C500.742 33.6806 501.329 34.4139 501.649 35.3406C501.822 35.8339 501.782 36.2739 501.449 36.6739C501.095 37.0939 500.629 37.0939 500.142 36.9673C499.489 36.8073 498.902 36.4873 498.369 36.0873C496.315 34.5606 494.269 33.0206 492.222 31.4873C491.709 31.1073 491.302 30.6273 490.949 30.0939C490.295 29.0939 490.542 28.5406 491.729 28.3339C491.922 28.3206 492.109 28.3006 492.262 28.2739ZM492.309 28.7806C491.815 28.8006 491.675 29.0939 491.989 29.6339C492.329 30.2206 492.809 30.6873 493.335 31.0939C495.169 32.5073 497.009 33.8939 498.849 35.3006C499.309 35.6473 499.809 35.9139 500.349 36.1073C500.629 36.2073 500.909 36.2673 501.142 36.0139C501.342 35.7939 501.255 35.5406 501.175 35.2939C500.935 34.5406 500.429 33.9739 499.842 33.4806C498.122 32.0273 496.289 30.7206 494.415 29.4739C493.822 29.0873 493.169 28.8406 492.309 28.7806Z" fill="#293040"/>
</svg>
