<svg width="161" height="170" viewBox="0 0 161 170" fill="none" xmlns="http://www.w3.org/2000/svg">
<path d="M77.8359 3.61995V78.2779C77.8359 80.2772 79.4567 81.8979 81.4559 81.8979C83.4552 81.8979 85.0759 80.2772 85.0759 78.2779V3.61995C85.0759 1.62068 83.4552 -5.34058e-05 81.4559 -5.34058e-05C79.4567 -5.34058e-05 77.8359 1.62068 77.8359 3.61995Z" fill="#FF5D5D"/>
<path d="M77.8359 3.61995V78.2779C77.8359 80.2772 79.4567 81.8979 81.4559 81.8979C83.4552 81.8979 85.0759 80.2772 85.0759 78.2779V3.61995C85.0759 1.62068 83.4552 -5.34058e-05 81.4559 -5.34058e-05C79.4567 -5.34058e-05 77.8359 1.62068 77.8359 3.61995Z" fill="#FF5D5D"/>
<path d="M80.5 24.8892C101.85 24.8892 122.325 33.3704 137.422 48.4671C152.519 63.5637 161 84.0392 161 105.389V163.423C161 164.913 160.408 166.341 159.355 167.394C158.302 168.447 156.873 169.039 155.384 169.039H5.616C4.12654 169.039 2.69809 168.447 1.64489 167.394C0.591684 166.341 0 164.913 0 163.423V105.389C0 84.0392 8.48123 63.5637 23.5779 48.4671C38.6746 33.3704 59.1501 24.8892 80.5 24.8892V24.8892Z" fill="#55C1C5"/>
<path d="M82.3721 47.353H82.3701C52.3865 47.353 28.0801 71.6595 28.0801 101.643V101.645C28.0801 131.629 52.3865 155.935 82.3701 155.935H82.3721C112.356 155.935 136.662 131.629 136.662 101.645V101.643C136.662 71.6595 112.356 47.353 82.3721 47.353Z" fill="url(#paint0_linear_705_1580)"/>
<path d="M131.043 101.643C131.043 74.7613 109.251 52.9692 82.3693 52.9692C55.4874 52.9692 33.6953 74.7613 33.6953 101.643C33.6953 128.525 55.4874 150.317 82.3693 150.317C109.251 150.317 131.043 128.525 131.043 101.643Z" fill="url(#paint1_linear_705_1580)"/>
<g filter="url(#filter0_d_705_1580)">
<path d="M61.0171 103.482L67.0171 109.482L71.0171 105.482L65.0171 99.4816L71.0171 93.4816L79.0171 101.482L83.0171 97.4816L75.0171 89.4816L81.0171 83.4816L87.0171 89.4816L91.0171 85.4816L85.0171 79.4816L93.0171 71.4816C93.5478 70.9515 94.2671 70.6538 95.0171 70.6538C95.7672 70.6538 96.4865 70.9515 97.0171 71.4816L111.017 85.4816C111.547 86.0122 111.845 86.7316 111.845 87.4816C111.845 88.2316 111.547 88.9509 111.017 89.4816L69.0211 131.502C68.4905 132.032 67.7712 132.329 67.0211 132.329C66.2711 132.329 65.5518 132.032 65.0211 131.502L51.0211 117.502C50.4911 116.971 50.1934 116.252 50.1934 115.502C50.1934 114.752 50.4911 114.032 51.0211 113.502L61.0211 103.502L61.0171 103.482Z" fill="#E3F6FF"/>
</g>
<defs>
<filter id="filter0_d_705_1580" x="38.1934" y="58.6538" width="85.6516" height="85.6758" filterUnits="userSpaceOnUse" color-interpolation-filters="sRGB">
<feFlood flood-opacity="0" result="BackgroundImageFix"/>
<feColorMatrix in="SourceAlpha" type="matrix" values="0 0 0 0 0 0 0 0 0 0 0 0 0 0 0 0 0 0 127 0" result="hardAlpha"/>
<feOffset/>
<feGaussianBlur stdDeviation="6"/>
<feColorMatrix type="matrix" values="0 0 0 0 0.12549 0 0 0 0 0.184314 0 0 0 0 0.262745 0 0 0 1 0"/>
<feBlend mode="normal" in2="BackgroundImageFix" result="effect1_dropShadow_705_1580"/>
<feBlend mode="normal" in="SourceGraphic" in2="effect1_dropShadow_705_1580" result="shape"/>
</filter>
<linearGradient id="paint0_linear_705_1580" x1="122.221" y1="145.294" x2="41.5442" y2="49.4161" gradientUnits="userSpaceOnUse">
<stop stop-color="#D9D9D9"/>
<stop offset="1" stop-color="#656565"/>
</linearGradient>
<linearGradient id="paint1_linear_705_1580" x1="50.3418" y1="57.0579" x2="120.432" y2="159.176" gradientUnits="userSpaceOnUse">
<stop stop-color="#29364A"/>
<stop offset="1" stop-color="#46556A"/>
</linearGradient>
</defs>
</svg>
