<svg width="606" height="95" viewBox="0 0 606 95" fill="none" xmlns="http://www.w3.org/2000/svg">
<path d="M15.12 7.82639C8.925 7.82639 5.95 12.2414 6.19 19.0564C7.92 16.1764 10.94 14.5964 15.02 14.5964C21.695 14.5964 25.82 18.8164 25.82 25.3914C25.82 32.3914 21.07 36.7664 13.82 36.7664C5.23 36.7664 0 30.6264 0 20.3064C0 9.55638 5.71 2.54639 14.685 2.54639C18.095 2.54639 22.185 3.54639 24.91 5.18639L22.41 9.93639C20.2276 8.5596 17.7004 7.82811 15.12 7.82639ZM7.12 25.5364C7.07 28.3214 9.085 31.3464 13.55 31.3464C17.34 31.3464 19.935 29.1364 19.935 25.3464C19.935 21.7914 17.58 19.5864 13.79 19.5864C9.5 19.5864 7.055 22.2714 7.105 25.5364H7.12Z" fill="#040000"/>
<path d="M48.145 19.6812V24.0012H36.095V19.6812H48.145Z" fill="#040000"/>
<path d="M67.245 3.45609C67.2264 4.11627 67.0135 4.7563 66.6332 5.29622C66.2528 5.83613 65.7217 6.25197 65.1064 6.49177C64.491 6.73158 63.8186 6.78471 63.1732 6.64454C62.5278 6.50436 61.9381 6.17709 61.4776 5.70362C61.0172 5.23016 60.7065 4.63149 60.5843 3.98244C60.4622 3.33339 60.534 2.66273 60.7909 2.05429C61.0478 1.44584 61.4783 0.926592 62.0286 0.56142C62.5789 0.196249 63.2246 0.00135873 63.885 0.0010947C64.3376 -0.0105997 64.7876 0.0715096 65.2069 0.24226C65.6262 0.41301 66.0056 0.668698 66.3212 0.993236C66.6368 1.31778 66.8818 1.70413 67.0408 2.12799C67.1998 2.55186 67.2693 3.00404 67.245 3.45609ZM67 10.8011V36.4811H60.765V10.8011H67Z" fill="#040000"/>
<path d="M105.55 20.4515V36.4815H99.2598V22.2715C99.2598 18.6715 97.0998 16.4665 93.5499 16.4665C89.3249 16.5165 86.8298 19.6315 86.8298 23.8565V36.4815H80.5898V10.8015H86.8298V15.6015C88.6548 12.1965 91.8698 10.6015 96.0448 10.5615C101.95 10.5615 105.55 14.3515 105.55 20.4515Z" fill="#040000"/>
<path d="M129.405 19.6812V24.0012H117.355V19.6812H129.405Z" fill="#040000"/>
<path d="M156.57 2.83643V36.4814H150.095V8.48142H143.095V2.83643H156.57Z" fill="#040000"/>
<path d="M204.43 2.88135V30.6713H218.93V36.4813H198V2.88135H204.43Z" fill="#040000"/>
<path d="M244.745 36.4814V33.3614C242.97 35.6164 240.09 36.7664 236.44 36.7664C230.94 36.7664 227.47 33.3614 227.47 28.8014C227.47 24.0514 230.97 21.1214 237.21 21.0714H244.71V20.4014C244.71 17.4014 242.74 15.6514 238.9 15.6514C236.5 15.6514 233.9 16.4664 231.27 18.0514L229 13.7164C232.695 11.6514 235.575 10.5464 240.275 10.5464C246.995 10.5464 250.775 13.9564 250.835 19.6664L250.885 36.4664L244.745 36.4814ZM244.7 27.5514V25.2514H238.2C234.885 25.2514 233.35 26.1614 233.35 28.4164C233.35 30.5764 235.08 31.9664 237.91 31.9664C241.53 31.9664 244.36 30.0464 244.7 27.5514Z" fill="#040000"/>
<path d="M271.435 15.4113C269.435 15.4113 267.98 16.0813 267.98 17.6663C267.98 21.9863 281.56 19.7313 281.56 28.9463C281.56 34.1763 276.905 36.7213 271.435 36.7213C267.545 36.7213 263.515 35.4713 260.825 33.1213L262.985 28.7513C265.452 30.7379 268.508 31.8524 271.675 31.9213C273.835 31.9213 275.465 31.2013 275.465 29.5213C275.465 24.7713 262.075 27.3613 262.125 18.2413C262.125 12.9613 266.625 10.5163 271.82 10.5163C275.153 10.5015 278.419 11.4514 281.225 13.2513L278.97 17.7513C276.5 16.2713 273.645 15.4113 271.435 15.4113Z" fill="#040000"/>
<path d="M315.735 25.8262H296.78C297.595 29.4712 300.38 31.6812 304.12 31.6812C305.407 31.6917 306.683 31.442 307.872 30.9471C309.06 30.4522 310.136 29.7223 311.035 28.8012L314.395 32.3012C311.85 35.0812 308.105 36.7162 303.595 36.7162C295.625 36.7162 290.395 31.4362 290.395 23.7162C290.395 15.8962 295.77 10.6162 303.45 10.6162C312.5 10.6112 316.36 16.5162 315.735 25.8262ZM310.075 21.6512C309.93 17.8562 307.385 15.4562 303.5 15.4562C299.805 15.4562 297.21 17.8562 296.635 21.6512H310.075Z" fill="#040000"/>
<path d="M342 10.5615V16.6115C336.575 16.2715 333.265 19.4415 333.265 24.1115V36.4965H327V10.8015H333.24V15.7465C335 12.3865 338 10.6115 342 10.5615Z" fill="#040000"/>
<path d="M380.155 2.88135L390.715 24.4313L401.215 2.88135H408.605V36.4813H402.76L402.71 12.4813L392.775 33.0263H388.6L378.665 12.4813V36.4813H372.715V2.88135H380.155Z" fill="#040000"/>
<path d="M445.525 25.8262H426.57C427.385 29.4712 430.17 31.6812 433.91 31.6812C435.197 31.6923 436.474 31.4428 437.662 30.9479C438.85 30.453 439.926 29.7228 440.825 28.8012L444.185 32.3012C441.64 35.0812 437.895 36.7162 433.385 36.7162C425.415 36.7162 420.185 31.4362 420.185 23.7162C420.185 15.8962 425.56 10.6162 433.24 10.6162C442.265 10.6112 446.15 16.5162 445.525 25.8262ZM439.865 21.6512C439.72 17.8562 437.175 15.4562 433.29 15.4562C429.595 15.4562 427 17.8562 426.425 21.6512H439.865Z" fill="#040000"/>
<path d="M472 36.4814V33.3614C470.225 35.6164 467.345 36.7664 463.7 36.7664C458.2 36.7664 454.7 33.3614 454.7 28.8014C454.7 24.0514 458.2 21.1214 464.445 21.0714H471.945V20.4014C471.945 17.4014 469.975 15.6514 466.135 15.6514C463.735 15.6514 461.135 16.4664 458.505 18.0514L456.235 13.7164C459.93 11.6514 462.81 10.5464 467.515 10.5464C474.23 10.5464 478.015 13.9564 478.07 19.6664L478.12 36.4664L472 36.4814ZM471.955 27.5514V25.2514H465.455C462.14 25.2514 460.605 26.1614 460.605 28.4164C460.605 30.5764 462.335 31.9664 465.165 31.9664C468.76 31.9664 471.59 30.0464 471.93 27.5514H471.955Z" fill="#040000"/>
<path d="M498.665 15.4113C496.665 15.4113 495.21 16.0813 495.21 17.6663C495.21 21.9863 508.79 19.7313 508.79 28.9463C508.79 34.1763 504.135 36.7213 498.665 36.7213C494.775 36.7213 490.745 35.4713 488.06 33.1213L490.215 28.7513C492.683 30.7379 495.738 31.8524 498.905 31.9213C501.065 31.9213 502.695 31.2013 502.695 29.5213C502.695 24.7713 489.305 27.3613 489.355 18.2413C489.355 12.9613 493.855 10.5163 499.05 10.5163C502.383 10.5015 505.65 11.4514 508.455 13.2513L506.2 17.7513C503.705 16.2713 500.87 15.4113 498.665 15.4113Z" fill="#040000"/>
<path d="M543.69 10.8013V36.4813H537.4V31.7163C535.625 35.1263 532.55 36.7163 528.475 36.7163C522.715 36.7163 519.16 32.9213 519.16 26.8763V10.8013H525.45V25.0563C525.45 28.6563 527.515 30.8163 530.95 30.8163C534.98 30.7663 537.38 27.6013 537.38 23.4713V10.8013H543.69Z" fill="#040000"/>
<path d="M572.295 10.5615V16.6115C566.87 16.2715 563.56 19.4415 563.56 24.1115V36.4965H557.32V10.8015H563.56V15.7465C565.29 12.3865 568.31 10.6115 572.295 10.5615Z" fill="#040000"/>
<path d="M605.5 25.8262H586.55C587.37 29.4712 590.15 31.6812 593.895 31.6812C595.181 31.6922 596.457 31.4427 597.644 30.9477C598.832 30.4528 599.907 29.7226 600.805 28.8012L604.165 32.3012C601.625 35.0812 597.88 36.7162 593.365 36.7162C585.4 36.7162 580.17 31.4362 580.17 23.7162C580.17 15.8962 585.545 10.6162 593.225 10.6162C602.245 10.6112 606.135 16.5162 605.5 25.8262ZM599.835 21.6512C599.695 17.8562 597.15 15.4562 593.26 15.4562C589.565 15.4562 586.975 17.8562 586.4 21.6512H599.835Z" fill="#040000"/>
<path d="M25.315 60.4814L25.27 66.0965H8.56501V75.1714H23.78V80.7865H8.56501V94.0815H2.13501V60.4814H25.315Z" fill="#040000"/>
<path d="M64.1949 81.2163C64.1949 89.0413 58.7249 94.3213 50.6949 94.3213C42.5849 94.3213 37.1099 89.0413 37.1099 81.2163C37.1099 73.3913 42.6099 68.2163 50.6949 68.2163C58.7249 68.2163 64.1949 73.4413 64.1949 81.2163ZM43.4149 81.3113C43.4149 85.9213 46.4149 89.0863 50.7099 89.0863C54.9349 89.0863 57.9099 85.9213 57.9099 81.3113C57.9099 76.7013 54.9349 73.5363 50.7099 73.5363C46.3899 73.5363 43.4149 76.7163 43.4149 81.3113Z" fill="#040000"/>
<path d="M94.1951 68.1611V74.2161C88.7751 73.8761 85.4601 77.0461 85.4601 81.7161V94.1011H79.2251V68.4011H85.4601V73.3461C87.1901 69.9861 90.2151 68.2161 94.1951 68.1611Z" fill="#040000"/>
<path d="M154.29 86.9764H137.875L134.9 94.0815H128.23L142.965 60.4814H149.635L164.18 94.0815H157.27L154.29 86.9764ZM151.99 81.4764L146.135 67.3664L140.18 81.4764H151.99Z" fill="#040000"/>
<path d="M184.1 58.4663V94.0813H177.86V58.4663H184.1Z" fill="#040000"/>
<path d="M208.195 58.4663V94.0813H201.955V58.4663H208.195Z" fill="#040000"/>
<path d="M264.835 83.0912V94.0912H258.405V83.3412L245.875 60.4912H252.405L261.57 76.2812L270.595 60.4912H277.095L264.835 83.0912Z" fill="#040000"/>
<path d="M312.595 81.2163C312.595 89.0413 307.095 94.3213 299.095 94.3213C290.985 94.3213 285.515 89.0413 285.515 81.2163C285.515 73.3913 290.985 68.2163 299.095 68.2163C307.12 68.2163 312.595 73.4413 312.595 81.2163ZM291.81 81.3113C291.81 85.9213 294.81 89.0863 299.105 89.0863C303.33 89.0863 306.305 85.9213 306.305 81.3113C306.305 76.7013 303.305 73.5363 299.105 73.5363C294.785 73.5363 291.81 76.7163 291.81 81.3113Z" fill="#040000"/>
<path d="M351.33 68.4014V94.0814H345.04V89.3264C343.265 92.7364 340.195 94.3264 336.115 94.3264C330.355 94.3264 326.805 90.5314 326.805 84.4864V68.4014H333.09V82.6564C333.09 86.2564 335.155 88.4164 338.59 88.4164C342.62 88.3714 345.02 85.2014 345.02 81.0714V68.4014H351.33Z" fill="#040000"/>
<path d="M383.68 68.1611V74.2161C378.26 73.8761 374.945 77.0461 374.945 81.7161V94.1011H368.705V68.4011H374.945V73.3461C376.675 69.9861 379.695 68.2161 383.68 68.1611Z" fill="#040000"/>
<path d="M428 60.4814L445.325 83.4814V60.4814H451.55V94.0815H445.455L428.175 71.1364V94.0815H421.89V60.4814H428Z" fill="#040000"/>
<path d="M492.16 83.4263H473.2C474.015 87.0713 476.8 89.2813 480.545 89.2813C481.831 89.292 483.107 89.0423 484.294 88.5474C485.482 88.0525 486.557 87.3225 487.455 86.4013L490.815 89.9013C488.27 92.6813 484.53 94.3163 480.015 94.3163C472.05 94.3163 466.815 89.0363 466.815 81.3163C466.815 73.4963 472.195 68.2163 479.87 68.2163C488.895 68.2163 492.785 74.1113 492.16 83.4263ZM486.5 79.2513C486.355 75.4563 483.815 73.0563 479.925 73.0563C476.23 73.0563 473.64 75.4563 473.06 79.2513H486.5Z" fill="#040000"/>
<path d="M530.175 83.4263H511.215C512.03 87.0713 514.815 89.2813 518.56 89.2813C519.846 89.292 521.122 89.0423 522.309 88.5474C523.497 88.0525 524.572 87.3225 525.47 86.4013L528.83 89.9013C526.285 92.6813 522.545 94.3163 518.03 94.3163C510.065 94.3163 504.835 89.0363 504.835 81.3163C504.835 73.4963 510.21 68.2163 517.89 68.2163C526.91 68.2163 530.8 74.1113 530.175 83.4263ZM524.5 79.2513C524.355 75.4563 521.815 73.0563 517.925 73.0563C514.23 73.0563 511.64 75.4563 511.06 79.2513H524.5Z" fill="#040000"/>
<path d="M569.965 58.4663V94.0813H563.73V89.9513C561.905 92.7863 558.93 94.3663 555.09 94.3663C547.745 94.3663 542.85 88.9913 542.85 81.1713C542.85 73.3513 547.745 68.1713 554.945 68.1713C558.88 68.1713 561.855 69.7563 563.73 72.6363V58.4663H569.965ZM563.73 81.3113C563.73 76.7063 560.73 73.4913 556.435 73.4913C552.14 73.4913 549.185 76.7513 549.135 81.3113C549.185 85.9213 552.135 89.1363 556.435 89.1363C560.735 89.1363 563.73 85.9213 563.73 81.3113Z" fill="#040000"/>
<path d="M595.265 73.0114C593.265 73.0114 591.81 73.6814 591.81 75.2664C591.81 79.5864 605.39 77.3314 605.39 86.5464C605.39 91.7764 600.735 94.3214 595.265 94.3214C591.375 94.3214 587.345 93.0714 584.655 90.7214L586.815 86.3514C589.281 88.3399 592.337 89.4548 595.505 89.5214C597.665 89.5214 599.295 88.8014 599.295 87.1214C599.295 82.3714 585.905 84.9614 585.955 75.8414C585.955 70.5614 590.455 68.1164 595.65 68.1164C598.983 68.1016 602.25 69.0515 605.055 70.8514L602.8 75.3514C600.305 73.8714 597.47 73.0114 595.265 73.0114Z" fill="#040000"/>
</svg>
