<svg width="226" height="68" viewBox="0 0 226 68" fill="none" xmlns="http://www.w3.org/2000/svg">
<path d="M208.003 0.000221H18.0074C17.3148 0.000221 16.6306 0.000221 15.9399 0.003621C15.3617 0.007021 14.7881 0.016898 14.2043 0.025211C12.9361 0.0386441 11.6709 0.139071 10.4197 0.325618C9.17024 0.516226 7.95992 0.875578 6.82967 1.39152C5.7008 1.91182 4.66932 2.58791 3.77265 3.39524C2.87127 4.2003 2.11991 5.13085 1.54744 6.15109C0.973395 7.16931 0.57535 8.26042 0.367053 9.38674C0.156776 10.5116 0.0436241 11.6495 0.0286126 12.7901C0.0110862 13.3114 0.00923535 13.8343 0 14.3556V53.6498C0.00923535 54.1777 0.0110862 54.6891 0.0286126 55.2171C0.0436287 56.3576 0.156781 57.4955 0.367053 58.6203C0.574775 59.7473 0.972844 60.839 1.54744 61.8576C2.11965 62.8746 2.87112 63.8013 3.77265 64.6019C4.66592 65.4128 5.69807 66.0894 6.82967 66.6057C7.95991 67.123 9.1701 67.4845 10.4197 67.6781C11.6711 67.8631 12.9362 67.9636 14.2043 67.9786C14.7881 67.9902 15.3617 67.9968 15.9399 67.9968C16.6306 68.0002 17.3149 68.0002 18.0074 68.0002H208.003C208.682 68.0002 209.371 68.0002 210.05 67.9968C210.626 67.9968 211.216 67.9902 211.791 67.9786C213.057 67.9644 214.32 67.8639 215.568 67.6781C216.822 67.4832 218.037 67.1218 219.172 66.6057C220.303 66.0891 221.334 65.4126 222.227 64.6019C223.126 63.7982 223.879 62.8721 224.458 61.8576C225.028 60.8383 225.423 59.7466 225.627 58.6203C225.838 57.4953 225.955 56.3577 225.978 55.2171C225.985 54.6891 225.985 54.1777 225.985 53.6498C226 53.0322 226 52.418 226 51.7904V16.2116C226 15.5891 226 14.9715 225.985 14.3556C225.985 13.8343 225.985 13.3114 225.978 12.7901C225.955 11.6493 225.838 10.5117 225.627 9.38667C225.422 8.261 225.028 7.16998 224.458 6.15102C223.292 4.10605 221.444 2.44146 219.172 1.39137C218.037 0.876686 216.822 0.51743 215.568 0.325465C214.32 0.138096 213.057 0.0376342 211.791 0.024973C211.216 0.016677 210.626 0.006715 210.05 0.0034C209.371 0 208.682 0 208.003 0V0.000221Z" fill="#A6A6A6"/>
<path d="M15.9491 66.5123C15.3736 66.5123 14.8121 66.5057 14.2412 66.4941C13.0585 66.4802 11.8786 66.3876 10.7111 66.2168C9.6225 66.0481 8.56792 65.7342 7.58217 65.2854C6.60545 64.8404 5.71461 64.2569 4.94376 63.5572C4.16176 62.8658 3.51071 62.0638 3.01641 61.1831C2.51666 60.2967 2.1708 59.3466 1.99089 58.3659C1.79659 57.3121 1.69147 56.2465 1.67643 55.1784C1.66446 54.8199 1.64878 53.6261 1.64878 53.6261V14.3552C1.64878 14.3552 1.66548 13.1798 1.67653 12.8345C1.69093 11.768 1.79544 10.7041 1.98915 9.65195C2.1694 8.66853 2.51552 7.71568 3.01554 6.82638C3.50802 5.94631 4.15546 5.14377 4.93275 4.44986C5.70917 3.74936 6.60286 3.16283 7.58124 2.71166C8.56473 2.26436 9.61732 1.95265 10.7037 1.78696C11.8751 1.61453 13.0591 1.5213 14.2459 1.50806L15.95 1.4873H210.041L211.765 1.50889C212.941 1.52147 214.115 1.61387 215.275 1.7853C216.373 1.95306 217.436 2.26695 218.431 2.71664C220.391 3.62588 221.986 5.06438 222.992 6.83052C223.484 7.71369 223.825 8.65877 224.003 9.63369C224.199 10.6945 224.308 11.7668 224.331 12.8419C224.336 13.3234 224.336 13.8405 224.336 14.3552C224.351 14.9927 224.351 15.5995 224.351 16.2112V51.79C224.351 52.4076 224.351 53.0102 224.336 53.6178C224.336 54.1706 224.336 54.6771 224.329 55.1983C224.307 56.2543 224.199 57.3074 224.006 58.3492C223.83 59.337 223.486 60.2946 222.986 61.1882C222.489 62.0594 221.841 62.8544 221.068 63.5439C220.297 64.2474 219.404 64.8343 218.425 65.2822C217.433 65.7344 216.371 66.0495 215.275 66.2168C214.108 66.3885 212.928 66.4812 211.745 66.4941C211.192 66.5057 210.612 66.5123 210.05 66.5123L208.003 66.5157L15.9491 66.5123Z" fill="black"/>
<path d="M49.3515 34.3227C49.3737 32.6058 49.831 30.9224 50.6809 29.4291C51.5309 27.9358 52.7458 26.6811 54.2126 25.7819C53.2807 24.4548 52.0514 23.3626 50.6223 22.5922C49.1931 21.8217 47.6035 21.3942 45.9797 21.3435C42.5158 20.981 39.1577 23.4105 37.3926 23.4105C35.5933 23.4105 32.8756 21.3795 29.9491 21.4396C28.0561 21.5006 26.2113 22.0495 24.5943 23.0328C22.9773 24.0162 21.6434 25.4005 20.7224 27.0508C16.733 33.9385 19.7088 44.0611 23.5303 49.6286C25.4423 52.3548 27.6768 55.4001 30.6007 55.2921C33.4619 55.1738 34.5305 53.4728 37.9842 53.4728C41.4059 53.4728 42.4084 55.2921 45.3916 55.2235C48.4618 55.1738 50.3962 52.4851 52.2411 49.733C53.6149 47.7905 54.672 45.6436 55.3733 43.3718C53.5896 42.6195 52.0674 41.3602 50.9966 39.751C49.9257 38.1418 49.3536 36.2539 49.3515 34.3227Z" fill="white"/>
<path d="M43.7167 18.1587C45.3907 16.1548 46.2155 13.579 46.0157 10.9785C43.4583 11.2464 41.0958 12.4653 39.3992 14.3923C38.5697 15.3338 37.9344 16.429 37.5296 17.6154C37.1248 18.8018 36.9584 20.0561 37.04 21.3067C38.3192 21.3198 39.5847 21.0434 40.7413 20.4981C41.8978 19.9528 42.9152 19.1529 43.7167 18.1587Z" fill="white"/>
<path d="M84.4251 46.1371H76.3557L74.4179 51.843H71L78.6432 30.7324H82.1942L89.8374 51.843H86.3612L84.4251 46.1371ZM77.1914 43.504H83.5878L80.4346 34.2437H80.3463L77.1914 43.504Z" fill="white"/>
<path d="M106.344 44.1485C106.344 48.9314 103.777 52.0043 99.9029 52.0043C98.9215 52.0555 97.9455 51.8301 97.0867 51.3538C96.2278 50.8776 95.5208 50.1698 95.0466 49.3115H94.9733V56.935H91.8052V36.452H94.8718V39.0119H94.9301C95.4261 38.1577 96.145 37.4536 97.0104 36.9745C97.8758 36.4953 98.8553 36.2591 99.8446 36.2909C103.762 36.2909 106.344 39.3788 106.344 44.1485ZM103.088 44.1485C103.088 41.0324 101.473 38.9837 99.0089 38.9837C96.5882 38.9837 94.96 41.0755 94.96 44.1485C94.96 47.2496 96.5882 49.3265 99.0089 49.3265C101.473 49.3265 103.088 47.2928 103.088 44.1485Z" fill="white"/>
<path d="M123.332 44.1484C123.332 48.9314 120.765 52.0043 116.891 52.0043C115.909 52.0555 114.933 51.8301 114.074 51.3538C113.216 50.8776 112.509 50.1698 112.034 49.3115H111.961V56.9349H108.793V36.4519H111.86V39.0119H111.918C112.414 38.1577 113.133 37.4536 113.998 36.9745C114.864 36.4953 115.843 36.2591 116.832 36.2909C120.75 36.2909 123.332 39.3788 123.332 44.1484ZM120.075 44.1484C120.075 41.0323 118.461 38.9837 115.997 38.9837C113.576 38.9837 111.948 41.0755 111.948 44.1484C111.948 47.2496 113.576 49.3265 115.997 49.3265C118.461 49.3265 120.075 47.2928 120.075 44.1484H120.075Z" fill="white"/>
<path d="M134.559 45.9615C134.794 48.055 136.834 49.4295 139.62 49.4295C142.291 49.4295 144.212 48.0549 144.212 46.1673C144.212 44.5287 143.053 43.5476 140.31 42.8752L137.566 42.2161C133.679 41.2798 131.874 39.4669 131.874 36.5251C131.874 32.8827 135.057 30.3809 139.577 30.3809C144.05 30.3809 147.117 32.8827 147.22 36.5251H144.022C143.831 34.4184 142.084 33.1467 139.532 33.1467C136.98 33.1467 135.234 34.4333 135.234 36.306C135.234 37.7985 136.349 38.6767 139.078 39.349L141.41 39.9201C145.754 40.9444 147.558 42.6843 147.558 45.7721C147.558 49.7216 144.403 52.1953 139.386 52.1953C134.691 52.1953 131.521 49.7797 131.316 45.9614L134.559 45.9615Z" fill="white"/>
<path d="M154.396 32.8096V36.452H157.331V38.9538H154.396V47.4389C154.396 48.757 154.983 49.3713 156.274 49.3713C156.622 49.3652 156.97 49.3408 157.316 49.2982V51.7851C156.736 51.8932 156.146 51.9421 155.556 51.9312C152.431 51.9312 151.213 50.7608 151.213 47.7758V38.9538H148.968V36.452H151.212V32.8096H154.396Z" fill="white"/>
<path d="M159.031 44.1484C159.031 39.3058 161.891 36.2627 166.351 36.2627C170.826 36.2627 173.673 39.3057 173.673 44.1484C173.673 49.0044 170.841 52.0342 166.351 52.0342C161.862 52.0342 159.031 49.0044 159.031 44.1484ZM170.445 44.1484C170.445 40.8265 168.918 38.8658 166.351 38.8658C163.784 38.8658 162.259 40.8414 162.259 44.1484C162.259 47.4837 163.784 49.4294 166.351 49.4294C168.918 49.4294 170.444 47.4837 170.444 44.1484H170.445Z" fill="white"/>
<path d="M176.285 36.4518H179.306V39.0715H179.38C179.584 38.2533 180.065 37.5303 180.741 37.0239C181.417 36.5175 182.247 36.2586 183.092 36.2908C183.457 36.2895 183.821 36.329 184.178 36.4086V39.3637C183.717 39.2233 183.236 39.1588 182.754 39.1728C182.294 39.1542 181.835 39.2351 181.409 39.41C180.983 39.5849 180.6 39.8497 180.287 40.1861C179.973 40.5225 179.736 40.9226 179.592 41.3589C179.448 41.7953 179.401 42.2575 179.453 42.7139V51.8431H176.285L176.285 36.4518Z" fill="white"/>
<path d="M198.785 47.3227C198.358 50.1167 195.63 52.0342 192.139 52.0342C187.649 52.0342 184.862 49.0343 184.862 44.2215C184.862 39.3938 187.664 36.2627 192.006 36.2627C196.276 36.2627 198.961 39.1879 198.961 43.8546V44.937H188.06V45.1279C188.01 45.6944 188.081 46.265 188.269 46.8019C188.456 47.3389 188.757 47.8298 189.149 48.2421C189.542 48.6544 190.018 48.9787 190.546 49.1935C191.074 49.4082 191.642 49.5084 192.212 49.4875C192.961 49.5574 193.712 49.3845 194.354 48.9945C194.996 48.6044 195.495 48.0181 195.776 47.3226L198.785 47.3227ZM188.075 42.729H195.791C195.82 42.2197 195.742 41.71 195.564 41.232C195.385 40.7539 195.11 40.3178 194.754 39.951C194.399 39.5842 193.971 39.2946 193.498 39.1004C193.025 38.9063 192.517 38.8117 192.006 38.8227C191.49 38.8196 190.978 38.9184 190.501 39.1135C190.023 39.3086 189.589 39.596 189.224 39.9591C188.859 40.3223 188.569 40.7541 188.372 41.2295C188.174 41.7049 188.074 42.2145 188.075 42.729V42.729Z" fill="white"/>
<path d="M76.7944 14.8426C77.4586 14.795 78.1251 14.8951 78.7458 15.1355C79.3665 15.376 79.926 15.7508 80.3839 16.2329C80.8418 16.7151 81.1866 17.2926 81.3936 17.9238C81.6005 18.5549 81.6645 19.224 81.5807 19.8828C81.5807 23.1234 79.8243 24.9862 76.7944 24.9862H73.1201V14.8426H76.7944ZM74.7 23.5517H76.6179C77.0925 23.58 77.5675 23.5024 78.0082 23.3245C78.449 23.1467 78.8444 22.8731 79.1657 22.5236C79.4871 22.1741 79.7262 21.7576 79.8658 21.3044C80.0053 20.8511 80.0418 20.3725 79.9725 19.9035C80.0368 19.4362 79.9966 18.9606 79.8549 18.5107C79.7132 18.0608 79.4735 17.6477 79.1529 17.301C78.8323 16.9543 78.4387 16.6826 78.0005 16.5054C77.5622 16.3282 77.0901 16.2499 76.6179 16.276H74.7V23.5517Z" fill="white"/>
<path d="M83.3654 21.1554C83.3171 20.6524 83.3748 20.1448 83.5348 19.6653C83.6948 19.1858 83.9535 18.7449 84.2944 18.3709C84.6352 17.997 85.0507 17.6982 85.5141 17.4937C85.9776 17.2892 86.4788 17.1836 86.9855 17.1836C87.4923 17.1836 87.9935 17.2892 88.4569 17.4937C88.9204 17.6982 89.3359 17.997 89.6767 18.3709C90.0176 18.7449 90.2763 19.1858 90.4363 19.6653C90.5962 20.1448 90.6539 20.6524 90.6057 21.1554C90.6549 21.659 90.5978 22.1673 90.4383 22.6476C90.2787 23.1279 90.0202 23.5696 89.6792 23.9443C89.3383 24.319 88.9225 24.6184 88.4586 24.8233C87.9947 25.0282 87.4929 25.1341 86.9855 25.1341C86.4782 25.1341 85.9764 25.0282 85.5125 24.8233C85.0486 24.6184 84.6328 24.319 84.2918 23.9443C83.9509 23.5696 83.6923 23.1279 83.5328 22.6476C83.3732 22.1673 83.3162 21.659 83.3654 21.1554ZM89.0474 21.1554C89.0474 19.4961 88.2999 18.5258 86.988 18.5258C85.6712 18.5258 84.9304 19.4961 84.9304 21.1555C84.9304 22.8281 85.6712 23.7909 86.988 23.7909C88.2999 23.7909 89.0474 22.8214 89.0474 21.1554H89.0474Z" fill="white"/>
<path d="M100.23 24.986H98.6584L97.0718 19.3481H96.952L95.3721 24.986H93.8155L91.6995 17.3311H93.2361L94.6112 23.1723H94.7245L96.3027 17.3311H97.7561L99.3343 23.1723H99.4542L100.823 17.3311H102.338L100.23 24.986Z" fill="white"/>
<path d="M104.117 17.3311H105.576V18.5471H105.689C105.881 18.1104 106.205 17.7442 106.616 17.4998C107.026 17.2553 107.503 17.1447 107.98 17.1833C108.353 17.1553 108.728 17.2115 109.077 17.3476C109.426 17.4838 109.739 17.6965 109.995 17.9699C110.25 18.2433 110.44 18.5705 110.551 18.9272C110.662 19.2839 110.692 19.661 110.637 20.0305V24.986H109.122V20.4098C109.122 19.1797 108.586 18.5679 107.465 18.5679C107.212 18.5561 106.959 18.5992 106.723 18.6941C106.488 18.789 106.276 18.9335 106.102 19.1178C105.928 19.302 105.796 19.5216 105.715 19.7616C105.633 20.0015 105.605 20.256 105.632 20.5078V24.9861H104.117L104.117 17.3311Z" fill="white"/>
<path d="M113.051 14.3428H114.566V24.986H113.051V14.3428Z" fill="white"/>
<path d="M116.672 21.1556C116.623 20.6525 116.681 20.1449 116.841 19.6654C117.001 19.1858 117.26 18.7449 117.601 18.3709C117.942 17.997 118.357 17.6982 118.821 17.4937C119.284 17.2892 119.785 17.1836 120.292 17.1836C120.799 17.1836 121.3 17.2892 121.764 17.4937C122.227 17.6982 122.643 17.997 122.984 18.3709C123.325 18.7449 123.583 19.1858 123.743 19.6654C123.903 20.1449 123.961 20.6525 123.913 21.1556C123.962 21.6592 123.905 22.1675 123.745 22.6477C123.586 23.128 123.327 23.5697 122.986 23.9444C122.645 24.3191 122.229 24.6185 121.765 24.8234C121.301 25.0283 120.8 25.1342 120.292 25.1342C119.785 25.1342 119.283 25.0283 118.819 24.8234C118.355 24.6185 117.939 24.3191 117.598 23.9444C117.257 23.5697 116.999 23.128 116.839 22.6477C116.68 22.1675 116.623 21.6592 116.672 21.1556ZM122.354 21.1556C122.354 19.4963 121.606 18.5259 120.294 18.5259C118.977 18.5259 118.237 19.4963 118.237 21.1556C118.237 22.8282 118.978 23.7911 120.294 23.7911C121.606 23.7911 122.354 22.8215 122.354 21.1556H122.354Z" fill="white"/>
<path d="M125.508 22.8215C125.508 21.4435 126.537 20.6492 128.363 20.5363L130.442 20.4167V19.756C130.442 18.9475 129.906 18.491 128.871 18.491C128.025 18.491 127.439 18.8006 127.271 19.3418H125.804C125.959 18.0269 127.199 17.1836 128.941 17.1836C130.865 17.1836 131.951 18.139 131.951 19.756V24.9863H130.492V23.9105H130.372C130.129 24.2964 129.787 24.611 129.382 24.8222C128.977 25.0333 128.523 25.1335 128.067 25.1124C127.744 25.1459 127.419 25.1116 127.11 25.0118C126.802 24.912 126.519 24.7489 126.277 24.5331C126.036 24.3172 125.843 24.0534 125.711 23.7586C125.578 23.4638 125.509 23.1446 125.508 22.8215ZM130.442 22.1674V21.5274L128.568 21.6469C127.511 21.7175 127.031 22.0761 127.031 22.7509C127.031 23.4399 127.63 23.8408 128.455 23.8408C128.696 23.8652 128.94 23.8409 129.172 23.7693C129.404 23.6977 129.619 23.5804 129.804 23.4243C129.99 23.2682 130.142 23.0764 130.251 22.8605C130.361 22.6446 130.426 22.4088 130.442 22.1674Z" fill="white"/>
<path d="M133.942 21.1553C133.942 18.7364 135.189 17.2041 137.128 17.2041C137.608 17.182 138.084 17.2966 138.501 17.5344C138.918 17.7723 139.258 18.1235 139.482 18.5471H139.595V14.3428H141.11V24.986H139.659V23.7766H139.539C139.297 24.1973 138.945 24.5442 138.52 24.7796C138.095 25.015 137.614 25.13 137.128 25.1122C135.175 25.1123 133.942 23.5799 133.942 21.1553ZM135.507 21.1553C135.507 22.7789 136.274 23.7559 137.558 23.7559C138.835 23.7559 139.624 22.7648 139.624 21.1619C139.624 19.5665 138.826 18.5613 137.558 18.5613C136.282 18.5613 135.507 19.5449 135.507 21.1553H135.507Z" fill="white"/>
<path d="M147.378 21.1554C147.33 20.6524 147.388 20.1448 147.548 19.6653C147.708 19.1858 147.967 18.7449 148.307 18.3709C148.648 17.997 149.064 17.6982 149.527 17.4937C149.991 17.2892 150.492 17.1836 150.999 17.1836C151.505 17.1836 152.007 17.2892 152.47 17.4937C152.933 17.6982 153.349 17.997 153.69 18.3709C154.031 18.7449 154.289 19.1858 154.449 19.6653C154.609 20.1448 154.667 20.6524 154.619 21.1554C154.668 21.659 154.611 22.1673 154.451 22.6476C154.292 23.1279 154.033 23.5696 153.692 23.9443C153.351 24.319 152.936 24.6184 152.472 24.8233C152.008 25.0282 151.506 25.1341 150.999 25.1341C150.491 25.1341 149.989 25.0282 149.526 24.8233C149.062 24.6184 148.646 24.319 148.305 23.9443C147.964 23.5696 147.705 23.1279 147.546 22.6476C147.386 22.1673 147.329 21.659 147.378 21.1554ZM153.06 21.1554C153.06 19.4961 152.313 18.5258 151.001 18.5258C149.684 18.5258 148.943 19.4961 148.943 21.1555C148.943 22.8281 149.684 23.7909 151.001 23.7909C152.313 23.7909 153.06 22.8214 153.06 21.1554Z" fill="white"/>
<path d="M156.651 17.3311H158.11V18.5471H158.223C158.415 18.1104 158.739 17.7442 159.15 17.4998C159.56 17.2553 160.037 17.1447 160.514 17.1833C160.887 17.1553 161.262 17.2115 161.611 17.3476C161.96 17.4838 162.274 17.6965 162.529 17.9699C162.784 18.2433 162.974 18.5705 163.085 18.9272C163.196 19.2839 163.226 19.661 163.171 20.0305V24.986H161.656V20.4098C161.656 19.1797 161.12 18.5679 159.999 18.5679C159.746 18.5561 159.493 18.5992 159.257 18.6941C159.022 18.789 158.81 18.9335 158.636 19.1178C158.462 19.302 158.33 19.5216 158.249 19.7616C158.168 20.0015 158.14 20.256 158.166 20.5078V24.9861H156.651V17.3311Z" fill="white"/>
<path d="M171.731 15.4248V17.3655H173.395V18.638H171.731V22.5743C171.731 23.3761 172.063 23.7272 172.817 23.7272C173.01 23.7266 173.203 23.715 173.395 23.6924V24.9508C173.122 24.9993 172.847 25.0251 172.57 25.028C170.886 25.028 170.215 24.4369 170.215 22.9611V18.638H168.996V17.3655H170.215V15.4248H171.731Z" fill="white"/>
<path d="M175.464 14.3428H176.966V18.5612H177.085C177.287 18.1204 177.62 17.7522 178.038 17.5068C178.457 17.2614 178.942 17.1508 179.426 17.1899C179.798 17.1698 180.169 17.2316 180.514 17.3711C180.859 17.5106 181.169 17.7242 181.421 17.9968C181.674 18.2694 181.863 18.5942 181.975 18.948C182.087 19.3018 182.119 19.676 182.07 20.0438V24.986H180.553V20.4164C180.553 19.1937 179.982 18.5745 178.912 18.5745C178.651 18.5532 178.39 18.5889 178.144 18.6791C177.899 18.7693 177.677 18.9118 177.493 19.0966C177.309 19.2815 177.167 19.5042 177.079 19.7493C176.99 19.9943 176.956 20.2557 176.979 20.5152V24.986H175.464L175.464 14.3428Z" fill="white"/>
<path d="M190.903 22.9196C190.698 23.6192 190.252 24.2243 189.644 24.6292C189.035 25.0341 188.304 25.2128 187.577 25.1342C187.071 25.1475 186.569 25.0509 186.104 24.8511C185.64 24.6513 185.224 24.3531 184.887 23.9772C184.549 23.6012 184.298 23.1566 184.15 22.6741C184.003 22.1916 183.962 21.6828 184.031 21.183C183.964 20.6817 184.005 20.1719 184.153 19.6879C184.3 19.204 184.55 18.7573 184.886 18.378C185.221 17.9988 185.635 17.6959 186.098 17.4899C186.561 17.2838 187.063 17.1794 187.57 17.1837C189.706 17.1837 190.995 18.6389 190.995 21.0427V21.5699H185.574V21.6545C185.551 21.9355 185.586 22.2182 185.678 22.4847C185.771 22.7512 185.918 22.9955 186.11 23.2019C186.303 23.4084 186.536 23.5725 186.796 23.6837C187.056 23.7949 187.336 23.8507 187.619 23.8475C187.981 23.8909 188.348 23.8258 188.673 23.6606C188.999 23.4953 189.267 23.2374 189.445 22.9195L190.903 22.9196ZM185.574 20.4526H189.452C189.471 20.1956 189.436 19.9376 189.349 19.695C189.262 19.4523 189.125 19.2305 188.947 19.0438C188.769 18.857 188.554 18.7094 188.316 18.6106C188.077 18.5117 187.82 18.4636 187.562 18.4695C187.3 18.4662 187.04 18.5153 186.797 18.6138C186.555 18.7123 186.334 18.8583 186.149 19.0431C185.964 19.2279 185.817 19.4478 185.719 19.6899C185.62 19.932 185.571 20.1913 185.574 20.4526H185.574Z" fill="white"/>
</svg>
