<svg width="15" height="29" viewBox="0 0 15 29" fill="none" xmlns="http://www.w3.org/2000/svg">
<path d="M12.66 29C12.3612 29.001 12.066 28.9351 11.7961 28.807C11.5261 28.679 11.2883 28.492 11.1 28.26L1.44002 16.26C1.14586 15.9021 0.985046 15.4533 0.985046 14.99C0.985046 14.5268 1.14586 14.0779 1.44002 13.72L11.44 1.72C11.7795 1.31157 12.2673 1.05472 12.7962 1.00596C13.325 0.957201 13.8516 1.12052 14.26 1.46C14.6685 1.79948 14.9253 2.2873 14.9741 2.81615C15.0228 3.34501 14.8595 3.87157 14.52 4.28L5.58002 15L14.22 25.72C14.4646 26.0136 14.6199 26.3711 14.6677 26.7502C14.7155 27.1292 14.6536 27.5141 14.4895 27.8592C14.3254 28.2042 14.0659 28.495 13.7417 28.6972C13.4174 28.8994 13.0421 29.0045 12.66 29Z" fill="black"/>
</svg>
