<svg width="75" height="76" viewBox="0 0 75 76" fill="none" xmlns="http://www.w3.org/2000/svg">
<g clip-path="url(#clip0_591_1433)">
<path d="M25.001 51.582H7.50098C3.36348 51.582 0.000976562 48.2195 0.000976562 44.082V9.08203C0.000976562 4.94453 3.36348 1.58203 7.50098 1.58203H42.501C46.6385 1.58203 50.001 4.94453 50.001 9.08203V19.082" fill="#36A6E4"/>
<path d="M23.3631 29.7828L23.3881 29.8578C23.4256 31.5203 22.8381 32.9203 21.6256 34.0453C20.4131 35.1703 18.8256 35.7328 16.8506 35.7328C14.8381 35.7328 13.2006 35.0203 11.9381 33.5953C10.6756 32.1703 10.0381 30.3703 10.0381 28.1703V25.0078C10.0381 22.8203 10.6756 21.0078 11.9381 19.5828C13.2006 18.1578 14.8381 17.4453 16.8506 17.4453C18.8631 17.4453 20.4631 17.9828 21.6506 19.0453C22.8381 20.1078 23.4131 21.5328 23.3881 23.2953L23.3631 23.3703H21.0506C21.0506 22.1203 20.6881 21.1453 19.9506 20.4203C19.2131 19.6953 18.1881 19.3328 16.8506 19.3328C15.5131 19.3328 14.4381 19.8703 13.6381 20.9578C12.8381 22.0453 12.4381 23.3828 12.4381 24.9828V28.1703C12.4381 29.7953 12.8381 31.1453 13.6381 32.2203C14.4381 33.2953 15.5006 33.8453 16.8506 33.8453C18.1881 33.8453 19.2131 33.4828 19.9506 32.7703C20.6881 32.0578 21.0506 31.0578 21.0506 29.7828H23.3631Z" fill="white"/>
<path d="M75.001 26.582V61.582C75.001 65.7195 71.6385 69.082 67.501 69.082H49.8885C49.326 69.082 48.801 69.332 48.451 69.757L42.7635 76.582L37.076 69.757C36.7135 69.332 36.1885 69.082 35.6385 69.082H32.501C28.3635 69.082 25.001 65.7195 25.001 61.582V26.582C25.001 22.4445 28.3635 19.082 32.501 19.082H67.501C71.6385 19.082 75.001 22.4445 75.001 26.582Z" fill="url(#paint0_linear_591_1433)"/>
<path d="M46.0511 44.7309H38.7511V51.0934H47.3011V52.9684H36.3511V35.1934H47.1636V37.0809H38.7511V42.8309H46.0511V44.7309Z" fill="white"/>
<path d="M63.5884 52.9684H61.1884L52.6259 39.3934L52.5509 39.4184V52.9684H50.1509V35.1934H52.5509L61.1134 48.7559L61.1884 48.7309V35.1934H63.5884V52.9684V52.9684Z" fill="white"/>
</g>
<defs>
<linearGradient id="paint0_linear_591_1433" x1="25.001" y1="19.082" x2="81.9439" y2="68.5976" gradientUnits="userSpaceOnUse">
<stop stop-color="#29DDBD"/>
<stop offset="1" stop-color="#3874EA"/>
</linearGradient>
<clipPath id="clip0_591_1433">
<rect width="75" height="75" fill="white" transform="translate(0.000976562 0.582031)"/>
</clipPath>
</defs>
</svg>
