<svg width="75" height="76" viewBox="0 0 75 76" fill="none" xmlns="http://www.w3.org/2000/svg">
<g clip-path="url(#clip0_591_1465)">
<path d="M37.5 75.582C58.2107 75.582 75 58.7927 75 38.082C75 17.3714 58.2107 0.582031 37.5 0.582031C16.7893 0.582031 0 17.3714 0 38.082C0 58.7927 16.7893 75.582 37.5 75.582Z" fill="url(#paint0_linear_591_1465)"/>
<path d="M15 31.207V16.207H30" stroke="white" stroke-width="2.5" stroke-miterlimit="10" stroke-linecap="round" stroke-linejoin="round"/>
<path d="M59.6875 45.8945V60.8945H44.6875" stroke="white" stroke-width="2.5" stroke-miterlimit="10" stroke-linecap="round" stroke-linejoin="round"/>
<path d="M30.0995 45.1955H28.162V32.758L25.062 32.783V31.2955L30.087 30.7705V45.1955H30.0995Z" fill="white"/>
<path d="M37.9245 45.1947H35.9995V43.2197H37.9245V45.1947Z" fill="white"/>
<path d="M45.4369 37.1078C46.2994 37.1078 46.8995 36.8953 47.262 36.4703C47.612 36.0453 47.7995 35.4453 47.7995 34.6828C47.7995 33.9703 47.5994 33.3828 47.2244 32.9453C46.8369 32.5078 46.262 32.2828 45.4995 32.2828C44.762 32.2828 44.1495 32.5078 43.662 32.9703C43.1745 33.4328 42.9369 34.0078 42.9369 34.6953H41.0995L41.0745 34.6328C41.037 33.5703 41.4495 32.6578 42.287 31.8953C43.1245 31.1328 44.1995 30.7578 45.512 30.7578C46.837 30.7578 47.8745 31.0953 48.612 31.7578C49.362 32.4203 49.737 33.4078 49.737 34.7078C49.737 35.3703 49.5619 35.9828 49.2119 36.5203C48.8619 37.0703 48.3745 37.4953 47.7495 37.7953C48.462 38.0828 49.0119 38.5203 49.3869 39.0953C49.7619 39.6828 49.9494 40.3828 49.9494 41.2078C49.9494 42.5078 49.537 43.5328 48.712 44.2703C47.887 45.0078 46.8245 45.3828 45.4995 45.3828C44.287 45.3828 43.2245 45.0203 42.2995 44.3078C41.3745 43.5953 40.937 42.6578 40.962 41.4828L40.987 41.4203H42.8244C42.8244 42.1078 43.0745 42.6953 43.5745 43.1578C44.0745 43.6203 44.712 43.8703 45.4995 43.8703C46.287 43.8703 46.8995 43.6328 47.3495 43.1453C47.7995 42.6578 48.0244 42.0328 48.0244 41.2453C48.0244 40.3578 47.8119 39.6828 47.3994 39.2453C46.9869 38.8078 46.337 38.5828 45.4495 38.5828H43.862V37.0828H45.4369V37.1078Z" fill="white"/>
</g>
<defs>
<linearGradient id="paint0_linear_591_1465" x1="0" y1="0.582031" x2="75" y2="75.582" gradientUnits="userSpaceOnUse">
<stop stop-color="#29DDBD"/>
<stop offset="1" stop-color="#3874EA"/>
</linearGradient>
<clipPath id="clip0_591_1465">
<rect width="75" height="75" fill="white" transform="translate(0 0.582031)"/>
</clipPath>
</defs>
</svg>
