<svg width="75" height="76" viewBox="0 0 75 76" fill="none" xmlns="http://www.w3.org/2000/svg">
<g clip-path="url(#clip0_591_1445)">
<path fill-rule="evenodd" clip-rule="evenodd" d="M25.0016 13.082H50.0016V2.45703C50.0016 1.41953 49.1641 0.582031 48.1266 0.582031H26.8766C25.8391 0.582031 25.0016 1.41953 25.0016 2.45703V13.082ZM16.2517 75.5823H58.7517C60.8267 75.5823 62.5017 73.9073 62.5017 71.8323V16.8323C62.5017 14.7573 60.8267 13.0823 58.7517 13.0823H16.2517C14.1767 13.0823 12.5017 14.7573 12.5017 16.8323V71.8323C12.5017 73.9073 14.1767 75.5823 16.2517 75.5823Z" fill="url(#paint0_linear_591_1445)"/>
<path d="M56.2512 54.332H18.7512V69.332H56.2512V54.332Z" stroke="white" stroke-width="2.5" stroke-miterlimit="10" stroke-linecap="round" stroke-linejoin="round"/>
<path d="M26.8767 26.832C27.4392 26.832 27.9892 26.882 28.5392 26.9945C29.0892 27.107 29.5392 27.2445 29.9017 27.4195L29.4892 28.8945C29.1142 28.732 28.7267 28.5945 28.3142 28.4945C27.9017 28.3945 27.4267 28.3445 26.8767 28.3445C25.9892 28.3445 25.2642 28.7195 24.7017 29.482C24.1392 30.2445 23.8642 31.207 23.8642 32.3695V33.4695C24.2642 33.0695 24.7267 32.757 25.2767 32.532C25.8142 32.307 26.4017 32.1945 27.0267 32.1945C28.2517 32.1945 29.2142 32.607 29.9267 33.4195C30.6392 34.232 31.0017 35.3195 31.0017 36.657C31.0017 38.1195 30.6017 39.282 29.8017 40.1445C29.0017 41.0195 27.9267 41.4445 26.5767 41.4445C25.2642 41.4445 24.1642 40.9445 23.2767 39.9445C22.3892 38.9445 21.9517 37.582 21.9517 35.8445V32.5695C21.9517 30.907 22.4267 29.532 23.3767 28.4445C24.3267 27.357 25.4892 26.832 26.8767 26.832ZM26.4142 33.6445C25.8142 33.6445 25.2892 33.7695 24.8517 34.032C24.4142 34.2945 24.0892 34.632 23.8642 35.0695V36.057C23.8642 37.257 24.1267 38.2195 24.6517 38.9195C25.1767 39.6195 25.8142 39.9695 26.5767 39.9695C27.3767 39.9695 27.9892 39.6695 28.4267 39.057C28.8642 38.4445 29.0767 37.657 29.0767 36.682C29.0767 35.757 28.8392 35.0195 28.3767 34.4695C27.9142 33.907 27.2642 33.6445 26.4142 33.6445Z" fill="white"/>
<path d="M33.5767 34.9322L34.4017 27.0322H41.5267V28.7447H36.0267L35.5642 32.8322C35.8642 32.6072 36.2142 32.4197 36.5767 32.2697C36.9392 32.1197 37.3767 32.0447 37.8517 32.0447C39.1642 32.0322 40.2017 32.4447 40.9392 33.2822C41.6892 34.1197 42.0517 35.2697 42.0517 36.7197C42.0517 38.1447 41.6642 39.2947 40.9017 40.1572C40.1392 41.0197 39.0267 41.4572 37.5517 41.4572C36.3517 41.4572 35.3392 41.1322 34.5392 40.4697C33.7392 39.8072 33.3517 38.8447 33.3892 37.5697L33.4142 37.5072H35.1517C35.1517 38.2822 35.3767 38.8822 35.8267 39.3072C36.2767 39.7322 36.8517 39.9447 37.5642 39.9447C38.3767 39.9447 39.0142 39.6572 39.4642 39.0822C39.9142 38.5072 40.1392 37.7197 40.1392 36.7322C40.1392 35.8322 39.9142 35.0947 39.4642 34.5322C39.0142 33.9697 38.3767 33.6947 37.5767 33.6947C36.8267 33.6947 36.2767 33.8072 35.9392 34.0322C35.6017 34.2572 35.3517 34.6072 35.1892 35.0822L33.5767 34.9322Z" fill="white"/>
<path d="M53.2891 36.232C53.2891 37.8445 52.8766 39.107 52.0641 40.0445C51.2516 40.982 50.1516 41.457 48.7641 41.457C47.3891 41.457 46.2891 40.982 45.4641 40.0445C44.6391 39.107 44.2266 37.832 44.2266 36.232V32.057C44.2266 30.457 44.6391 29.1945 45.4516 28.2445C46.2766 27.307 47.3766 26.832 48.7516 26.832C50.1266 26.832 51.2391 27.307 52.0516 28.2445C52.8766 29.182 53.2891 30.457 53.2891 32.057V36.232ZM51.3641 31.657C51.3641 30.632 51.1391 29.832 50.6766 29.232C50.2266 28.6445 49.5766 28.3445 48.7391 28.3445C47.9141 28.3445 47.2766 28.6445 46.8266 29.232C46.3766 29.8195 46.1516 30.632 46.1516 31.657V36.632C46.1516 37.657 46.3766 38.4695 46.8391 39.0695C47.3016 39.6695 47.9391 39.9695 48.7641 39.9695C49.6016 39.9695 50.2391 39.6695 50.6891 39.082C51.1391 38.4945 51.3641 37.6695 51.3641 36.6445V31.657Z" fill="white"/>
</g>
<defs>
<linearGradient id="paint0_linear_591_1445" x1="12.5017" y1="0.582031" x2="81.7326" y2="46.7358" gradientUnits="userSpaceOnUse">
<stop stop-color="#29DDBD"/>
<stop offset="1" stop-color="#3874EA"/>
</linearGradient>
<clipPath id="clip0_591_1445">
<rect width="75" height="75" fill="white" transform="translate(0.000976562 0.582031)"/>
</clipPath>
</defs>
</svg>
