<svg width="203" height="102" viewBox="0 0 203 102" fill="none" xmlns="http://www.w3.org/2000/svg">
<g clip-path="url(#clip0_1_69)">
<path d="M202.209 0.792746H0.790924V29.8601H202.209V0.792746Z" fill="#F3B019"/>
<path d="M74.3454 17.1762V17.9689C74.3454 18.7617 74.0818 19.2902 73.2909 19.8187C72.7636 20.3472 71.9727 20.6114 70.6545 20.6114C69.8636 20.6114 69.3364 20.6114 68.8091 20.3472C68.2818 20.0829 67.7545 19.8187 67.4909 19.2902C67.2273 18.7617 66.7 18.2332 66.7 17.7047C66.4364 17.1762 66.4364 16.3834 66.4364 15.3264C66.4364 14.5337 66.4364 13.7409 66.7 12.9482C66.9636 12.4197 67.2273 11.8912 67.4909 11.3627C67.7545 10.8342 68.2818 10.5699 68.8091 10.3057C69.3364 10.0415 69.8636 10.0415 70.6545 10.0415C71.1818 10.0415 71.7091 10.0415 72.2364 10.3057C72.7636 10.3057 73.0273 10.5699 73.2909 10.8342C73.5545 11.0984 73.8182 11.3627 73.8182 11.6269C74.0818 11.8912 74.0818 12.1554 74.0818 12.4197V13.2124H78.0364V12.1554C78.0364 11.3627 77.7727 10.5699 77.2454 9.7772C76.7182 8.98446 76.1909 8.45596 75.6636 7.92746C75.1364 7.39896 74.3454 7.13472 73.2909 6.87047C72.5 6.60622 71.4454 6.60622 70.6545 6.60622C69.3364 6.60622 68.2818 6.87047 67.2273 7.13472C66.1727 7.66321 65.3818 8.19171 64.5909 8.98446C63.8 9.7772 63.2727 10.5699 63.0091 11.8912C62.7454 12.9482 62.4818 14.2694 62.4818 15.5907C62.4818 16.9119 62.7454 18.2332 63.0091 19.2902C63.2727 20.0829 63.8 21.1399 64.5909 21.9326C65.3818 22.7254 66.1727 23.2539 67.2273 23.7824C68.2818 24.3109 69.3364 24.3109 70.6545 24.3109C71.7091 24.3109 72.5 24.3109 73.2909 24.0466C74.0818 23.7824 74.8727 23.5181 75.6636 22.9896C76.4545 22.4611 76.9818 21.9326 77.2454 21.1399C77.7727 20.3472 78.0364 19.5544 78.0364 18.4974V17.4404H74.3454V17.1762Z" fill="#040000"/>
<path d="M85.1545 6.87047L78.3 24.0466H82.5182L84.3636 19.2902H89.6363L91.4818 24.0466H95.9636L88.5818 6.87047H85.1545V6.87047ZM85.4182 15.8549L87 12.1554L88.3182 15.8549H85.4182Z" fill="#040000"/>
<path d="M106.509 16.3834C106.509 17.1762 106.509 17.9689 106.245 18.4974C105.982 19.0259 105.982 19.2902 105.718 19.5544C105.455 19.8187 105.191 20.0829 104.927 20.0829C104.4 20.0829 103.873 20.3472 103.345 20.3472C102.818 20.3472 102.291 20.3472 101.764 20.0829C101.5 20.0829 101.236 19.8187 100.973 19.5544C100.445 19.5544 100.445 19.0259 100.182 18.4974C99.9182 17.9689 99.9182 17.1762 99.9182 16.3834V6.60622H95.9636V16.3834C95.9636 16.9119 95.9636 17.4404 95.9636 18.2332C95.9636 18.7617 96.2273 19.5544 96.2273 20.0829C96.4909 20.6114 96.7545 21.1399 97.0182 21.6684C97.2818 22.1969 97.8091 22.7254 98.3363 22.9896C98.8636 23.2539 99.6545 23.5181 100.445 23.7824C101.236 24.0466 102.027 24.0466 103.082 24.0466C104.4 24.0466 105.455 23.7824 106.509 23.5181C107.564 23.2539 108.355 22.7254 108.882 21.9326C109.409 21.1399 109.936 20.3472 110.2 19.5544C110.464 18.7617 110.464 17.7047 110.464 16.6477V6.60622H106.509V16.3834V16.3834Z" fill="#040000"/>
<path d="M112.836 10.5699H118.109V24.0466H122.064V10.5699H127.336V6.87047H112.836V10.5699Z" fill="#040000"/>
<path d="M133.927 6.87047H129.973V24.0466H133.927V6.87047Z" fill="#040000"/>
<path d="M151.327 8.98446C150.536 8.19171 149.745 7.66321 148.691 7.13472C147.636 6.60622 146.582 6.60622 145.264 6.60622C143.945 6.60622 142.891 6.87047 141.836 7.13472C140.782 7.66321 139.991 8.19171 139.2 8.98446C138.409 9.7772 137.882 10.8342 137.355 11.8912C136.827 12.9482 136.827 14.2694 136.827 15.3264C136.827 16.6477 137.091 17.7047 137.355 19.0259C137.882 20.0829 138.409 21.1399 139.2 21.9326C139.991 22.7254 140.782 23.2539 141.836 23.7824C142.891 24.3109 143.945 24.3109 145.264 24.3109C146.582 24.3109 147.636 24.0466 148.691 23.7824C149.745 23.2539 150.536 22.7254 151.327 21.9326C152.118 21.1399 152.645 20.3472 153.173 19.0259C153.7 17.9689 153.7 16.6477 153.7 15.3264C153.7 14.0052 153.436 12.6839 153.173 11.6269C152.645 10.8342 152.118 9.7772 151.327 8.98446ZM140.782 17.7047C140.518 17.1762 140.518 16.3834 140.518 15.5907C140.518 14.7979 140.518 14.0052 140.782 13.2124C141.045 12.6839 141.309 12.1554 141.836 11.6269C142.364 11.0984 142.627 10.8342 143.155 10.5699C143.682 10.3057 144.473 10.3057 145 10.3057C145.791 10.3057 146.318 10.3057 146.845 10.5699C147.373 10.8342 147.9 11.0984 148.164 11.6269C148.427 12.1554 148.955 12.6839 149.218 13.2124C149.482 13.7409 149.482 14.5337 149.482 15.3264C149.482 16.1192 149.482 16.9119 149.218 17.4404C148.955 17.9689 148.691 18.4974 148.164 19.0259C147.636 19.5544 147.373 19.8187 146.845 20.0829C146.318 20.3472 145.527 20.3472 145 20.3472C144.209 20.3472 143.682 20.3472 143.155 20.0829C142.627 19.8187 142.1 19.5544 141.836 19.0259C141.573 18.7617 141.045 18.2332 140.782 17.7047Z" fill="#040000"/>
<path d="M166.091 6.87047V16.9119L159.236 6.87047H155.545V24.0466H159.5V13.7409L166.355 24.0466H170.045V6.87047H166.091Z" fill="#040000"/>
<path d="M59.3182 24.5751L48.5091 5.54922C48.2455 5.02073 47.4545 5.02073 47.1909 5.54922L36.3818 24.5751C36.1182 25.1036 36.3818 25.8964 37.1727 25.8964H59.0545C59.3182 25.6321 59.5818 25.1036 59.3182 24.5751ZM47.7182 23.5181C46.9273 23.5181 46.4 22.9896 46.4 22.1969C46.4 21.4041 46.9273 20.8756 47.7182 20.8756C48.5091 20.8756 49.0364 21.4041 49.0364 22.1969C49.0364 22.9896 48.5091 23.5181 47.7182 23.5181ZM49.3 13.2124L48.5091 19.8187V20.0829C48.5091 20.3472 48.2455 20.3472 47.9818 20.3472C47.4546 20.3472 47.4545 19.5544 47.4545 19.5544L46.1364 13.2124C45.8727 11.0984 47.4545 11.0984 47.4545 11.0984C47.7182 11.0984 49.5636 11.0984 49.3 13.2124Z" fill="#040000"/>
<path d="M0 0V102H203V0H0ZM97.0182 100.415H1.58182V30.9171H97.0182V100.415V100.415ZM201.418 100.415H98.6V30.9171H201.418V100.415ZM201.418 29.3316H1.58182V1.58549H201.418V29.3316V29.3316Z" fill="#040000"/>
<path d="M54.5728 47.829V83.5026C54.3091 83.5026 54.0455 83.5026 53.7818 83.5026C53.5182 83.5026 53.2546 83.5026 52.9909 83.5026V47.829C53.2546 47.829 53.5182 47.829 53.7818 47.829C54.0455 47.829 54.3091 47.829 54.5728 47.829Z" fill="#CE131C"/>
<path d="M63.2728 50.7358L58 60.2487L57.2091 61.5699L55.8909 63.9482L55.3637 64.7409L55.1 65.2694L54.8364 65.5337V65.7979V66.0622V66.3264V66.5907V66.8549L54.5728 67.1192L54.3091 67.6477L53.7818 68.4404L52.4637 70.8187L51.6728 72.1399L46.4 81.6528C45.8728 81.3886 45.6091 81.1244 45.0818 80.8601L50.3546 71.3472L51.1455 70.0259L52.4637 67.6477L52.9909 66.8549L53.2546 66.3264L52.7273 66.0622V65.7979V65.5337V65.2694V65.0052V64.7409L52.9909 64.4767L53.2546 63.9482L53.7818 63.1554L55.1 60.7772L55.8909 59.456L61.1637 49.943C62.4818 50.2073 62.7455 50.4715 63.2728 50.7358Z" fill="#CE131C"/>
<path d="M69.6 57.342L60.1091 62.8912L58.7909 63.6839L56.4182 65.0052L55.6273 65.5337L55.1 65.7979L54.8364 66.0622H54.5727H54.3091H54.0455H53.7818H53.5182L53.2546 66.3264L52.7273 67.1192L51.9364 67.6477L49.5637 68.9689L48.2455 69.7617L38.7546 75.3109C38.4909 75.0466 38.2273 74.5181 37.9637 73.9896L47.4546 68.4404L48.7727 67.6477L51.1455 66.3264L51.9364 65.7979L52.4637 65.5337L52.7273 65.2694H52.9909H53.2546H53.5182H53.7818H54.0455L54.3091 65.0052L54.8364 64.7409L55.6273 64.2124L58 62.8912L59.3182 62.0984L68.8091 56.5492C69.0727 56.5492 69.3364 57.0777 69.6 57.342Z" fill="#CE131C"/>
<path d="M69.6 73.9896C69.3364 74.5181 69.0727 74.7824 68.8091 75.3109L59.3182 69.7617L58 68.9689L55.6273 67.6477L54.8364 67.1192L54.3091 66.8549L54.0455 66.5907H53.7818H53.5182H53.2546L52.7273 66.0622H52.4637L52.2 65.7979L51.6727 65.5337L50.8818 65.0052L48.5091 63.6839L47.4546 62.8912L37.9637 57.342C38.2273 56.8135 38.4909 56.5492 38.7546 56.0207L48.2455 61.5699L49.5637 62.3627L51.9364 63.6839L52.7273 64.2124L53.2546 64.4767L53.5182 64.7409H53.7818H54.0455H54.3091H54.5727H54.8364L55.1 65.0052L55.6273 65.2694L56.4182 65.7979L58.7909 67.1192L60.1091 67.9119L69.6 73.9896Z" fill="#CE131C"/>
<path d="M63.2727 80.8601C62.7455 81.1244 62.4818 81.3886 61.9546 81.6528L56.4182 72.1399L55.6273 70.8187L54.3091 68.4404L53.7818 67.6477L53.5182 67.1192L53.2546 66.8549V66.5907V66.3264V66.0622V65.7979V65.5337L52.9909 65.2694L52.7273 64.7409L52.2 63.9482L50.8818 61.5699L50.0909 60.2487L44.5546 50.7358C44.8182 50.4715 45.3455 50.2073 45.8727 49.943L51.4091 59.456L52.2 60.7772L53.5182 63.1554L54.0455 63.9482L54.3091 64.4767L54.5728 64.7409V65.0052V65.2694V65.5337V65.7979V66.0622L54.8364 66.3264L55.1 66.8549L55.6273 67.6477L56.9455 70.0259L57.7364 71.3472L63.2727 80.8601Z" fill="#CE131C"/>
<path d="M43.957 55.1235L43.026 56.0589L63.1818 76.2159L64.1128 75.2805L43.957 55.1235Z" fill="#CE131C"/>
<path d="M63.564 54.9465L43.2043 75.2728L44.1345 76.2089L64.4942 55.8826L63.564 54.9465Z" fill="#CE131C"/>
<path d="M67.3577 61.3563L39.8445 68.7022L40.1838 69.979L67.697 62.633L67.3577 61.3563Z" fill="#CE131C"/>
<path d="M56.8444 51.4739L49.439 79.3035L50.7126 79.644L58.118 51.8144L56.8444 51.4739Z" fill="#CE131C"/>
<path d="M50.627 51.8718L49.3539 52.2144L56.7369 79.7772L58.01 79.4346L50.627 51.8718Z" fill="#CE131C"/>
<path d="M40.0078 61.4139L39.6642 62.6894L67.4063 70.1984L67.7499 68.9229L40.0078 61.4139Z" fill="#CE131C"/>
<path d="M53.7818 72.6684C57.5675 72.6684 60.6364 69.5924 60.6364 65.7979C60.6364 62.0035 57.5675 58.9275 53.7818 58.9275C49.9962 58.9275 46.9273 62.0035 46.9273 65.7979C46.9273 69.5924 49.9962 72.6684 53.7818 72.6684Z" fill="#CE131C"/>
<path d="M97.0182 65.0052H59.5818H58.2637H55.6273H54.8364H54.3091H53.7818H53.5182H53.2546H52.9909H52.7273H52.4636H52.2H51.9364H51.4091H50.3546H47.7182H46.4H36.1182V66.3264H46.4H47.9818H50.6182H51.4091H51.9364H52.2H52.4636H52.7273H53.2546H53.5182H53.7818H54.0455H54.5727H55.3637H58H59.5818H97.0182V65.0052Z" fill="#CE131C"/>
<path d="M109.673 44.1295C109.936 43.8653 110.464 43.3368 110.991 43.3368C111.518 43.0725 112.045 43.0725 112.573 43.0725C113.1 43.0725 113.364 43.0725 113.891 43.3368C114.155 43.3368 114.682 43.601 114.945 43.8653C115.209 44.1295 115.473 44.3938 115.473 44.658C115.736 44.9223 115.736 45.1865 115.736 45.715V45.9793H117.845V45.715C117.845 45.1865 117.582 44.3938 117.318 43.8653C117.055 43.3368 116.527 42.8083 116.264 42.544C115.736 42.2798 115.209 42.0155 114.682 41.7513C114.155 41.4871 113.364 41.487 112.836 41.487C112.045 41.487 110.991 41.7513 110.2 42.0155C109.409 42.2798 108.882 42.8083 108.355 43.3368C107.827 43.8653 107.3 44.658 107.036 45.4508C106.773 46.2435 106.509 47.3005 106.509 48.3575C106.509 49.4145 106.773 50.2073 107.036 51C107.3 51.7927 107.827 52.5855 108.355 53.114C108.882 53.6425 109.409 54.171 110.2 54.4352C110.991 54.6995 111.782 54.9637 112.836 54.9637C113.627 54.9637 114.155 54.9637 114.945 54.6995C115.473 54.4352 116 54.171 116.527 53.9067C117.055 53.6425 117.318 53.114 117.582 52.5855C117.845 52.057 118.109 51.2643 118.109 50.7358V50.4715H116V50.7358C116 51.5285 115.736 52.057 115.209 52.5855C114.682 53.114 113.891 53.3782 112.836 53.3782C112.309 53.3782 111.782 53.3782 111.255 53.114C110.727 52.8497 110.464 52.5855 110.2 52.3212C109.936 51.7927 109.673 51.5285 109.409 50.7358C109.145 50.2073 109.145 49.4145 109.145 48.6218C109.145 47.829 109.145 47.0363 109.409 46.5078C109.145 45.1865 109.409 44.658 109.673 44.1295Z" fill="#040000"/>
<path d="M121.8 41.487H119.691V54.4352H121.8V41.487Z" fill="#040000"/>
<path d="M130.764 45.1865C130.5 44.9223 129.973 44.658 129.445 44.658C128.918 44.658 128.391 44.3938 127.864 44.3938C125.227 44.3938 123.909 45.4508 123.645 47.3005V47.5648H125.755V47.3005C125.755 46.5078 126.545 45.9793 127.6 45.9793C128.127 45.9793 128.391 45.9793 128.655 45.9793C128.918 45.9793 129.182 46.2435 129.182 46.2435C129.182 46.5078 129.445 46.5078 129.445 46.772C129.445 47.0363 129.445 47.3005 129.445 47.5648H128.918C125.227 47.5648 123.118 48.6218 123.118 51C123.118 51.5285 123.118 51.7928 123.382 52.057C123.645 52.3212 123.909 52.8497 124.173 52.8497C124.436 53.114 124.7 53.3782 125.227 53.3782C125.755 53.6425 126.018 53.6425 126.545 53.6425C127.6 53.6425 128.655 53.3782 129.445 52.8497V53.3782H131.555V47.3005C131.555 46.5078 131.555 45.9793 131.291 45.4508C131.555 45.9793 131.291 45.4508 130.764 45.1865ZM128.918 52.3212C128.655 52.3212 128.391 52.5855 128.127 52.5855C127.864 52.5855 127.6 52.5855 127.336 52.5855C126.809 52.5855 126.282 52.5855 126.018 52.3212C125.755 52.057 125.755 51.7927 125.755 51.5285C125.755 50.4715 126.809 49.943 128.918 49.943H129.709V51.5285C129.709 51.7927 129.445 51.7928 129.182 52.057L128.918 52.3212Z" fill="#040000"/>
<path d="M140.782 49.4145C140.518 49.1503 140.255 48.886 139.727 48.886C139.2 48.6218 138.936 48.6218 138.409 48.3575C137.882 48.0933 137.355 48.0933 137.091 48.0933C136.827 48.0933 136.564 47.829 136.3 47.829C136.036 47.829 136.036 47.5648 136.036 47.5648V47.3005C136.036 47.3005 136.036 47.0363 136.036 46.772L136.3 46.5078C136.564 46.5078 136.564 46.2435 136.827 46.2435C137.091 46.2435 137.355 46.2435 137.355 46.2435C138.936 46.2435 138.936 47.0363 138.936 47.3005V47.5648H141.045V47.3005C141.045 45.4508 139.727 44.3938 137.091 44.3938C136.564 44.3938 136.036 44.3938 135.509 44.658C134.982 44.9223 134.718 44.9223 134.455 45.1865C134.191 45.4508 133.927 45.715 133.664 45.9793C133.4 46.2435 133.4 46.772 133.4 47.0363C133.4 47.5648 133.4 47.829 133.664 48.0933C133.927 48.3575 133.927 48.6218 134.191 48.886C134.455 49.1503 134.718 49.1503 135.245 49.4145C135.509 49.6788 136.036 49.6788 136.564 49.943C137.091 50.2073 137.618 50.2073 137.882 50.2073C138.145 50.2073 138.409 50.4715 138.673 50.4715C138.936 50.4715 138.936 50.7358 138.936 50.7358V51C138.936 51.2642 138.936 51.5285 138.409 51.7928C138.145 52.057 137.618 52.057 137.091 52.057C135.773 52.057 135.245 51.5285 134.982 50.7358V50.4715H132.873V50.7358C132.873 52.8497 134.455 53.9067 137.091 53.9067C137.618 53.9067 138.145 53.9067 138.673 53.6425C139.2 53.3782 139.464 53.3782 139.991 53.114C140.255 52.8497 140.518 52.5855 140.782 52.057C141.045 51.7928 141.045 51.2643 141.045 50.7358C141.045 50.2073 141.045 49.943 140.782 49.4145C141.309 49.943 141.045 49.6788 140.782 49.4145Z" fill="#040000"/>
<path d="M149.745 49.4145C149.482 49.1503 149.218 48.886 148.691 48.886C148.164 48.6218 147.9 48.6218 147.373 48.3575C146.845 48.0933 146.318 48.0933 146.055 48.0933C145.791 48.0933 145.527 47.829 145.264 47.829C145 47.5648 145 47.5648 145 47.5648V47.3005C145 47.3005 145 47.0363 145 46.772L145.264 46.5078C145.527 46.5078 145.527 46.2435 145.791 46.2435C146.055 46.2435 146.318 46.2435 146.318 46.2435C147.9 46.2435 147.9 47.0363 147.9 47.3005V47.5648H150.009V47.3005C150.009 45.4508 148.691 44.3938 146.055 44.3938C145.527 44.3938 145 44.3938 144.473 44.658C143.945 44.9223 143.682 44.9223 143.418 45.1865C143.155 45.4508 142.891 45.715 142.627 45.9793C142.364 46.2435 142.364 46.772 142.364 47.0363C142.364 47.5648 142.364 47.829 142.627 48.0933C142.891 48.3575 142.891 48.6218 143.155 48.886C143.418 49.1503 143.682 49.1503 144.209 49.4145C144.473 49.6788 145 49.6788 145.527 49.943C146.055 50.2073 146.582 50.2073 146.845 50.2073C147.109 50.2073 147.373 50.4715 147.636 50.4715C147.9 50.4715 147.9 50.7358 147.9 50.7358V51C147.9 51.2642 147.9 51.5285 147.373 51.7928C147.109 52.057 146.582 52.057 146.055 52.057C144.736 52.057 144.209 51.5285 143.945 50.7358V50.4715H141.836V50.7358C141.836 52.8497 143.418 53.9067 146.055 53.9067C146.582 53.9067 147.109 53.9067 147.636 53.6425C148.164 53.3782 148.427 53.3782 148.955 53.114C149.218 52.8497 149.482 52.5855 149.745 52.057C150.009 51.7928 150.009 51.2643 150.009 50.7358C150.009 50.2073 150.009 49.943 149.745 49.4145C150.273 49.943 150.009 49.6788 149.745 49.4145Z" fill="#040000"/>
<path d="M109.145 58.399H107.036V71.3472H115.209V69.2332H109.145V58.399Z" fill="#040000"/>
<path d="M123.645 62.0984C123.382 61.8342 122.855 61.5699 122.327 61.5699C121.8 61.5699 121.273 61.3057 120.745 61.3057C118.109 61.3057 116.791 62.3627 116.527 64.2124V64.4767H118.636V64.2124C118.636 63.4197 119.427 62.8912 120.482 62.8912C121.009 62.8912 121.273 62.8912 121.536 62.8912C121.8 62.8912 122.064 63.1554 122.064 63.1554C122.064 63.4197 122.327 63.4197 122.327 63.6839C122.327 63.9482 122.327 64.2124 122.327 64.4767H121.8C118.109 64.4767 116 65.5337 116 67.9119C116 68.4404 116 68.7047 116.264 68.9689C116.527 69.2332 116.791 69.7617 117.055 69.7617C117.318 70.0259 117.582 70.2902 118.109 70.2902C118.636 71.3472 119.164 71.3472 119.691 71.3472C120.745 71.3472 121.8 71.0829 122.591 70.5544V71.0829H124.7V65.0052C124.7 64.2124 124.7 63.6839 124.436 63.1554C124.173 62.8912 123.909 62.3627 123.645 62.0984ZM121.536 69.2332C121.273 69.2332 121.009 69.4974 120.745 69.4974C120.482 69.4974 120.218 69.4974 119.955 69.4974C119.427 69.4974 118.9 69.4974 118.636 69.2332C118.636 68.9689 118.636 68.7047 118.636 68.4404C118.636 67.3834 119.691 66.8549 121.8 66.8549H122.591V68.4404C122.591 68.7047 122.327 68.7047 122.064 68.9689C122.064 68.9689 121.8 69.2332 121.536 69.2332Z" fill="#040000"/>
<path d="M133.4 66.3264C133.136 66.0622 132.873 65.7979 132.345 65.7979C131.818 65.5337 131.555 65.5337 131.027 65.2694C130.5 65.0052 129.973 65.0052 129.709 65.0052C129.445 65.0052 129.182 64.7409 128.918 64.7409C128.655 64.7409 128.655 64.4767 128.655 64.4767V64.2124C128.655 64.2124 128.655 63.9482 128.655 63.6839L128.918 63.4197C129.182 63.4197 129.182 63.1554 129.445 63.1554C129.709 63.1554 129.973 63.1554 129.973 63.1554C131.555 63.1554 131.555 63.9482 131.555 64.2124V64.4767H133.664V64.2124C133.664 62.3627 132.345 61.3057 129.709 61.3057C129.182 61.3057 128.655 61.3057 128.127 61.5699C127.6 61.8342 127.336 61.8342 127.073 62.0984C126.809 62.3627 126.545 62.6269 126.282 62.8912C126.545 63.4197 126.545 63.9482 126.545 64.2124C126.545 64.7409 126.545 65.0052 126.809 65.2694C127.073 65.5337 127.073 65.7979 127.336 66.0622C127.6 66.3264 127.864 66.3264 128.391 66.5907C128.655 66.8549 129.182 66.8549 129.709 67.1192C130.236 67.3834 130.764 67.3834 131.027 67.3834C131.291 67.3834 131.555 67.6477 131.818 67.6477C132.082 67.6477 132.082 67.9119 132.082 67.9119V68.1762C132.082 68.4404 132.082 68.7047 131.555 68.9689C131.291 69.2332 130.764 69.2332 130.236 69.2332C128.918 69.2332 128.391 68.7047 128.127 67.9119V67.6477H126.018V67.9119C126.018 70.0259 127.6 71.0829 130.236 71.0829C130.764 71.0829 131.291 71.0829 131.818 70.8187C132.345 70.5544 132.609 70.5544 133.136 70.2902C133.4 70.0259 133.664 69.7617 133.927 69.2332C134.191 68.9689 134.191 68.4404 134.191 67.9119C134.191 67.3834 134.191 67.1192 133.927 66.5907C133.927 66.5907 133.664 66.3264 133.4 66.3264Z" fill="#040000"/>
<path d="M143.418 62.6269C143.155 62.0984 142.627 61.8342 142.1 61.5699C141.573 61.3057 141.045 61.3057 140.255 61.3057C139.727 61.3057 138.936 61.3057 138.409 61.5699C137.882 61.8342 137.355 62.0984 137.091 62.6269C136.827 63.1554 136.3 63.6839 136.3 64.2124C136.036 64.7409 136.036 65.5337 136.036 66.3264C136.036 67.1192 136.036 67.9119 136.3 68.4404C136.564 68.9689 136.827 69.4974 137.355 70.0259C137.882 70.5544 138.145 70.8187 138.936 71.0829C139.464 71.3471 140.255 71.3472 140.782 71.3472C141.309 71.3472 141.836 71.3471 142.364 71.0829C142.891 70.8187 143.155 70.8187 143.682 70.5544C143.945 70.2902 144.473 70.0259 144.473 69.4974C144.736 69.2332 145 68.7047 145 68.1762V67.9119H142.891V68.1762C142.891 68.4404 142.891 68.7047 142.627 68.7047C142.627 68.9689 142.364 68.9689 142.1 69.2332C141.836 69.2332 141.573 69.4974 141.573 69.4974C141.309 69.4974 141.045 69.4974 140.782 69.4974C140.518 69.4974 140.255 69.4974 139.727 69.2332C139.464 69.2332 139.2 68.9689 138.936 68.7047C138.673 68.4404 138.409 68.1762 138.409 67.9119C138.409 67.6477 138.145 67.3834 138.145 66.8549H145V66.3264C145 65.5337 145 64.7409 144.736 64.2124C143.945 63.6839 143.682 63.1554 143.418 62.6269ZM137.882 65.2694C137.882 65.0052 138.145 64.7409 138.145 64.4767C138.409 64.2124 138.409 63.9482 138.673 63.6839C138.936 63.4197 139.2 63.4197 139.2 63.1554C139.464 63.1554 139.727 62.8912 139.991 62.8912C140.518 62.8912 141.045 63.1554 141.573 63.4197C141.836 63.6839 142.1 64.2124 142.364 65.0052H137.882V65.2694Z" fill="#040000"/>
<path d="M151.327 61.57C151.064 61.57 151.064 61.57 150.8 61.57H150.536C149.745 61.57 148.955 61.8342 148.427 62.6269V61.8342H146.318V71.3472H148.427V64.7409C148.955 63.9482 149.482 63.6839 150.273 63.6839C150.536 63.6839 151.064 63.6839 151.064 63.6839H151.327V61.57Z" fill="#040000"/>
<path d="M115.473 77.9534C114.945 77.6891 114.682 77.4249 113.891 77.4249C113.364 77.4249 112.836 77.1606 112.309 77.1606H106.773V90.1088H108.882V85.0881H111.782C113.364 85.0881 114.682 84.8238 115.473 84.0311C116.264 83.2383 116.791 82.1814 116.791 80.8601C116.791 80.0674 116.791 79.5389 116.527 79.0104C116.264 78.7461 116 78.2176 115.473 77.9534ZM114.155 82.7098C113.891 82.9741 113.627 82.9741 113.364 82.9741C113.1 82.9741 112.573 83.2383 112.045 83.2383H109.145V79.2746H112.309C112.573 79.2746 113.1 79.2746 113.364 79.2746C113.627 79.2746 113.891 79.5389 114.155 79.5389C114.418 79.8031 114.418 79.8031 114.682 80.0674C114.682 80.3316 114.945 80.5959 114.945 81.1244C114.945 81.3886 114.945 81.6529 114.682 81.9171C114.418 82.4456 114.418 82.4456 114.155 82.7098Z" fill="#040000"/>
<path d="M123.382 80.5959H123.118C122.327 80.5959 121.536 80.8601 121.009 81.6528V80.8601H118.636V90.3731H120.745V83.7668C121.273 82.9741 121.8 82.7098 122.591 82.7098C122.855 82.7098 123.382 82.7098 123.382 82.7098H123.645V80.5959H123.382C123.645 80.5959 123.382 80.5959 123.382 80.5959Z" fill="#040000"/>
<path d="M132.345 81.6529C132.082 81.1244 131.555 80.8601 131.027 80.5959C130.5 80.3316 129.973 80.3316 129.182 80.3316C128.655 80.3316 127.864 80.3316 127.336 80.5959C126.809 80.8601 126.282 81.1244 126.018 81.6529C125.491 82.1814 125.227 82.7099 125.227 83.2383C124.964 83.7668 124.964 84.5596 124.964 85.3523C124.964 86.1451 124.964 86.9378 125.227 87.4663C125.491 87.9948 125.755 88.5233 126.018 89.0518C126.545 89.5803 126.809 89.8446 127.336 90.1088C127.864 90.3731 128.391 90.3731 129.182 90.3731C129.973 90.3731 130.5 90.3731 131.027 90.1088C131.555 89.8446 132.082 89.5803 132.345 89.0518C132.873 88.5233 133.136 87.9948 133.4 87.4663C133.664 86.9378 133.664 86.1451 133.664 85.3523C133.664 84.5596 133.664 83.7668 133.4 83.2383C133.136 82.4456 132.609 81.9171 132.345 81.6529ZM131.291 85.3523C131.291 86.4093 131.027 87.2021 130.764 87.7306C130.236 88.2591 129.709 88.5233 129.182 88.5233C128.391 88.5233 127.864 88.2591 127.6 87.7306C127.073 87.2021 127.073 86.4093 127.073 85.3523C127.073 84.8238 127.073 84.2953 127.336 84.0311C127.336 83.5026 127.6 83.2383 127.864 82.9741C128.127 82.7099 128.391 82.4456 128.655 82.4456C128.918 82.1814 129.182 82.1814 129.709 82.1814C129.973 82.1814 130.236 82.1814 130.764 82.4456C131.027 82.4456 131.291 82.7099 131.555 82.9741C131.818 83.2383 131.818 83.5026 132.082 84.0311C131.291 84.2953 131.291 84.5596 131.291 85.3523Z" fill="#040000"/>
<path d="M141.045 80.8601C140.518 80.3316 139.727 80.3316 138.936 80.3316C138.409 80.3316 137.882 80.3316 137.355 80.5959C136.827 80.8601 136.3 81.1244 136.036 81.6529C135.773 82.1814 135.509 82.7098 135.245 83.2383C134.982 83.7668 134.982 84.5596 134.982 85.3523C134.982 86.1451 134.982 86.6736 135.245 87.4663C135.509 87.9948 135.773 88.5233 136.036 89.0518C136.3 89.5803 136.827 89.8446 137.355 90.1088C137.882 90.3731 138.409 90.3731 138.936 90.3731C139.727 90.3731 140.518 90.1088 141.309 89.5803V90.3731H143.418V77.4249H141.309V80.8601H141.045ZM141.045 87.2021C140.255 87.9948 139.727 88.5233 138.936 88.5233C138.409 88.5233 137.882 88.2591 137.618 87.7306C137.355 87.2021 137.091 86.4093 137.091 85.3523C137.091 84.2953 137.355 83.2383 137.618 82.7098C137.882 82.1814 138.409 81.9171 138.936 81.9171C139.727 81.9171 140.518 82.1814 141.045 82.9741V87.2021Z" fill="#040000"/>
<path d="M151.064 87.2021C150.273 87.9948 149.745 88.5233 148.955 88.5233C148.427 88.5233 148.164 88.5233 147.9 88.2591C147.636 87.9948 147.636 87.4663 147.636 86.9378V80.8601H145.527V86.9378C145.527 89.3161 146.582 90.6373 148.955 90.6373C149.745 90.6373 150.536 90.3731 151.327 89.5803V90.3731H153.436V80.8601H151.327V87.2021H151.064Z" fill="#040000"/>
<path d="M157.391 82.7098C157.655 82.4456 157.918 82.1814 158.182 82.1814C158.445 81.9171 158.709 81.9171 159.236 81.9171C159.5 81.9171 159.764 81.9171 160.027 81.9171C160.291 81.9171 160.291 82.1814 160.555 82.1814C160.818 82.1814 160.818 82.4456 160.818 82.7098C160.818 82.9741 161.082 82.9741 161.082 83.2383V83.5026H163.191V83.2383C163.191 82.7098 162.927 82.4456 162.664 81.9171C162.4 81.6529 162.136 81.1244 161.873 80.8601C161.609 80.5959 161.082 80.3316 160.555 80.3316C160.027 80.0674 159.5 80.0674 158.973 80.0674C158.445 80.0674 157.655 80.0674 157.127 80.3316C156.6 80.5959 156.073 80.8601 155.809 81.3886C155.282 81.9171 155.018 82.4456 155.018 82.9741C154.755 83.5026 154.755 84.2953 154.755 85.0881C154.755 85.8808 154.755 86.6736 155.018 87.2021C155.282 87.7306 155.545 88.2591 155.809 88.7876C156.336 89.3161 156.6 89.5803 157.127 89.8446C157.655 90.1088 158.182 90.1088 158.973 90.1088C159.5 90.1088 160.027 90.1088 160.291 89.8446C160.818 89.5803 161.082 89.5803 161.609 89.3161C161.873 89.0518 162.136 88.7876 162.4 88.2591C162.664 87.9948 162.664 87.4663 162.927 86.9378V86.6736H160.818V86.9378C160.818 87.2021 160.818 87.4663 160.555 87.4663C160.555 87.7306 160.291 87.7306 160.291 87.9948C160.027 87.9948 160.027 88.2591 159.764 88.2591C159.5 88.2591 159.236 88.2591 158.973 88.2591C158.182 88.2591 157.655 87.9948 157.391 87.4663C156.864 86.9378 156.864 86.1451 156.864 85.0881C156.864 84.5596 156.864 84.0311 157.127 83.7668C157.127 83.5026 157.127 82.9741 157.391 82.7098Z" fill="#040000"/>
<path d="M168.464 88.5233H168.2H167.936H167.673C167.673 88.5233 167.673 88.5233 167.409 88.5233V88.2591C167.409 87.9948 167.409 87.7306 167.409 87.4663V82.4456H168.991V80.5959H167.409V78.4819H165.3V80.5959H164.245V82.4456H165.3V87.2021C165.3 87.7306 165.3 87.9948 165.3 88.2591C165.3 88.5233 165.564 89.0518 165.564 89.3161C165.827 89.5803 166.091 89.8446 166.355 89.8446C166.618 90.1088 167.145 90.1088 167.673 90.1088C167.936 90.1088 168.2 90.1088 168.2 90.1088C168.464 90.1088 168.727 90.1088 168.727 90.1088H168.991V88.2591L168.464 88.5233Z" fill="#040000"/>
<path d="M158.709 52.8497C158.709 52.057 158.973 51.5285 159.764 51C160.291 50.4715 161.082 49.6788 162.136 48.3575C163.191 47.0363 163.718 46.2435 163.982 45.4508C164.245 44.9223 164.245 44.1295 164.245 43.8653C164.245 43.3368 163.982 43.0725 163.455 42.8083C163.191 42.544 162.664 42.2798 162.136 42.544C161.609 42.544 161.082 42.8083 160.818 43.0725C160.291 43.3368 160.027 43.8653 159.764 44.658L158.445 44.3938C158.709 43.3368 159.236 42.544 159.764 42.0155C160.291 41.487 161.082 41.2228 161.873 41.2228C162.4 41.2228 162.664 41.2228 163.191 41.2228C163.455 41.2228 163.982 41.487 164.245 41.7513C164.773 42.0155 165.036 42.2798 165.3 42.8083C165.564 43.3368 165.564 43.8653 165.564 44.658C165.564 45.4508 165.036 46.2435 164.509 47.3005C163.718 48.3575 162.664 49.943 160.818 52.057H166.091V53.3782H158.973V52.8497H158.709Z" fill="black" stroke="black" stroke-width="0.3426" stroke-miterlimit="10"/>
</g>
<defs>
<clipPath id="clip0_1_69">
<rect width="203" height="102" fill="white"/>
</clipPath>
</defs>
</svg>
