<svg width="128" height="128" viewBox="0 0 128 128" fill="none" xmlns="http://www.w3.org/2000/svg">
<path d="M92.1913 71.8282C97.6375 71.8282 102.053 58.9425 102.053 43.0283C102.053 27.1142 97.6375 14.2285 92.1913 14.2285H81.4462V71.8282H92.1913Z" fill="#F7F7F7" stroke="#838384" stroke-width="2.5464" stroke-miterlimit="10"/>
<path d="M78.6506 101.667C83.5374 101.667 87.4822 97.6885 87.4822 92.7599V72.7188" stroke="#838384" stroke-width="15.9375" stroke-miterlimit="10"/>
<path opacity="0.6" d="M78.6506 101.667C83.5374 101.667 87.4822 97.6885 87.4822 92.7599V72.7188" stroke="#F7F7F7" stroke-width="9.96094" stroke-miterlimit="10"/>
<path d="M81.8901 71.8282C87.3367 71.8282 91.752 58.9341 91.752 43.0283C91.752 27.1226 87.3367 14.2285 81.8901 14.2285C76.4435 14.2285 72.0281 27.1226 72.0281 43.0283C72.0281 58.9341 76.4435 71.8282 81.8901 71.8282Z" fill="#F7F7F7" stroke="#838384" stroke-width="2.5464" stroke-miterlimit="10"/>
<path d="M63.695 124.765H36.4936C34.4035 124.765 32.696 123.043 32.696 120.935V110.157C32.696 108.049 34.4035 106.327 36.4936 106.327H63.695C65.7851 106.327 67.4925 108.049 67.4925 110.157V120.935C67.4631 123.043 65.7557 124.765 63.695 124.765Z" fill="#F7F7F7" stroke="#838384" stroke-width="2.5464" stroke-miterlimit="10"/>
<path d="M74.4129 24.3809H51.1858C47.8886 24.3809 45.1803 27.0827 45.1803 30.4377V56.5654C45.1803 59.8908 47.8592 62.6223 51.1858 62.6223H74.4129C77.71 62.6223 80.4184 59.9204 80.4184 56.5654V30.4377C80.3889 27.0827 77.71 24.3809 74.4129 24.3809Z" fill="#F7F7F7" stroke="#838384" stroke-width="2.5464" stroke-miterlimit="10"/>
<path d="M62.5777 4.72559H39.0268C35.818 4.72559 33.1979 7.36805 33.1979 10.6043V73.9937C33.1979 77.2299 35.818 79.8724 39.0268 79.8724H62.5777C65.7865 79.8724 68.4066 77.2299 68.4066 73.9937V10.5746C68.4066 7.33836 65.816 4.72559 62.5777 4.72559Z" fill="#F7F7F7" stroke="#838384" stroke-width="2.5464" stroke-miterlimit="10"/>
<path d="M59.8701 9.71484H41.1765C39.5574 9.71484 38.2621 11.0212 38.2621 12.6542V39.6429C38.2621 41.2759 39.5574 42.5823 41.1765 42.5823H59.8701C61.4892 42.5823 62.7845 41.2759 62.7845 39.6429V12.6542C62.7845 11.0509 61.4892 9.71484 59.8701 9.71484Z" fill="#C0BFBF"/>
<path d="M49.7716 49.8278L46.7688 55.0533C46.7099 55.1721 46.6511 55.3205 46.6511 55.469C46.6511 55.6174 46.6805 55.7659 46.7688 55.8847C46.8571 56.0034 46.9454 56.1222 47.0632 56.1816C47.181 56.2409 47.3282 56.3003 47.4753 56.3003H53.4808C53.628 56.3003 53.7752 56.2706 53.893 56.1816C54.0107 56.1222 54.1285 56.0034 54.1874 55.8847C54.2462 55.7659 54.3051 55.6174 54.3051 55.469C54.3051 55.3205 54.2757 55.1721 54.1874 55.0533L51.1846 49.8278C51.1257 49.709 51.008 49.5903 50.8902 49.5309C50.7725 49.4715 50.6253 49.4121 50.4781 49.4121C50.3309 49.4121 50.1837 49.4418 50.0659 49.5309C49.9482 49.5903 49.8599 49.709 49.7716 49.8278Z" fill="#C0BFBF"/>
<path d="M49.7716 73.994L46.7688 68.7685C46.7099 68.6497 46.6511 68.5013 46.6511 68.3528C46.6511 68.2044 46.6805 68.0559 46.7688 67.9371C46.8277 67.8184 46.9454 67.6996 47.0632 67.6402C47.181 67.5809 47.3282 67.5215 47.4753 67.5215H53.4808C53.628 67.5215 53.7752 67.5512 53.893 67.6402C54.0107 67.6996 54.1285 67.8184 54.1874 67.9371C54.2462 68.0559 54.3051 68.2044 54.3051 68.3528C54.3051 68.5013 54.2757 68.6497 54.1874 68.7685L51.1846 73.994C51.1257 74.1128 51.008 74.2315 50.8902 74.2909C50.7725 74.3503 50.6253 74.4097 50.4781 74.4097C50.3309 74.4097 50.1837 74.38 50.0659 74.2909C49.9482 74.2315 49.8599 74.1128 49.7716 73.994Z" fill="#C0BFBF"/>
<path d="M62.4615 61.1687L57.2803 58.1402C57.1626 58.0809 57.0154 58.0215 56.8682 58.0215C56.721 58.0215 56.5738 58.0512 56.4561 58.1402C56.3383 58.1996 56.2205 58.3184 56.1617 58.4372C56.1028 58.5559 56.0439 58.7044 56.0439 58.8528V64.9097C56.0439 65.0581 56.0734 65.2066 56.1617 65.3254C56.2205 65.4441 56.3383 65.5629 56.4561 65.6223C56.5738 65.6816 56.721 65.741 56.8682 65.741C57.0154 65.741 57.1626 65.7113 57.2803 65.6223L62.4615 62.5938C62.5793 62.5344 62.6971 62.4157 62.7559 62.2969C62.8148 62.1782 62.8737 62.0297 62.8737 61.8813C62.8737 61.7328 62.8442 61.5844 62.7559 61.4656C62.6971 61.3765 62.6087 61.2578 62.4615 61.1687Z" fill="#C0BFBF"/>
<path d="M38.5283 61.1687L43.7095 58.1402C43.8273 58.0809 43.9744 58.0215 44.1216 58.0215C44.2688 58.0215 44.416 58.0512 44.5338 58.1402C44.6515 58.1996 44.7693 58.3184 44.8282 58.4372C44.887 58.5559 44.9459 58.7044 44.9459 58.8528V64.9097C44.9459 65.0581 44.9165 65.2066 44.8282 65.3254C44.7693 65.4441 44.6515 65.5629 44.5338 65.6223C44.416 65.6816 44.2688 65.741 44.1216 65.741C43.9744 65.741 43.8273 65.7113 43.7095 65.6223L38.5283 62.5938C38.4105 62.5344 38.2928 62.4157 38.2339 62.2969C38.175 62.1782 38.1161 62.0297 38.1161 61.8813C38.1161 61.7328 38.1456 61.5844 38.2339 61.4656C38.2928 61.3765 38.4105 61.2578 38.5283 61.1687Z" fill="#C0BFBF"/>
<path d="M100.73 35.6031C104.794 35.6031 108.089 32.2799 108.089 28.1805C108.089 24.081 104.794 20.7578 100.73 20.7578C96.6652 20.7578 93.3701 24.081 93.3701 28.1805C93.3701 32.2799 96.6652 35.6031 100.73 35.6031Z" fill="#F7F7F7" stroke="#838384" stroke-width="2.5464" stroke-miterlimit="10"/>
<path d="M66.4324 117.253H33.7555C26.543 117.253 20.6553 111.315 20.6553 104.041V99.2904C20.6553 92.0162 26.543 86.0781 33.7555 86.0781H66.4324C73.6449 86.0781 79.5327 92.0162 79.5327 99.2904V104.041C79.5327 111.285 73.6155 117.253 66.4324 117.253Z" fill="#F7F7F7" stroke="#838384" stroke-width="2.5464" stroke-miterlimit="10"/>
</svg>
