<svg width="112" height="123" viewBox="0 0 112 123" fill="none" xmlns="http://www.w3.org/2000/svg">
<g clip-path="url(#clip0_507_200)">
<g clip-path="url(#clip1_507_200)">
<path d="M56.3047 121.379C49.9919 121.379 44.8599 116.229 44.8599 109.894V65.9145C44.8599 59.5796 49.9919 54.4297 56.3047 54.4297C62.6174 54.4297 67.7494 59.5796 67.7494 65.9145V109.894C67.7494 116.229 62.6174 121.379 56.3047 121.379Z" fill="#414141" stroke="white" stroke-width="2.16187" stroke-miterlimit="10"/>
<path d="M104.126 37.7493C107.26 43.2183 105.398 50.2824 99.948 53.4271L62.0259 75.3942C56.576 78.5388 49.5366 76.6702 46.4029 71.2013C43.2693 65.7323 45.1313 58.6682 50.5812 55.5235L88.5033 33.5565C93.9531 30.4118 100.993 32.2804 104.126 37.7493Z" fill="#414141" stroke="white" stroke-width="2.16187" stroke-miterlimit="10"/>
<path d="M67.0672 71.2013C63.9335 76.6702 56.8941 78.5388 51.4442 75.3942L13.5221 53.4271C8.07222 50.2824 6.16477 43.2183 9.29845 37.7493C12.4321 32.2804 19.4716 30.4118 24.9214 33.5565L62.8435 55.5235C68.3388 58.6682 70.2008 65.7323 67.0672 71.2013Z" fill="#414141" stroke="white" stroke-width="2.16187" stroke-miterlimit="10"/>
<path d="M56.7136 94.3535C73.4436 94.3535 87.0059 80.7436 87.0059 63.9551C87.0059 47.1665 73.4436 33.5566 56.7136 33.5566C39.9837 33.5566 26.4214 47.1665 26.4214 63.9551C26.4214 80.7436 39.9837 94.3535 56.7136 94.3535Z" fill="#414141" stroke="white" stroke-width="2.84229" stroke-miterlimit="10"/>
<path d="M56.3046 87.7452C69.3976 87.7452 80.0115 77.094 80.0115 63.9551C80.0115 50.8162 69.3976 40.165 56.3046 40.165C43.2116 40.165 32.5976 50.8162 32.5976 63.9551C32.5976 77.094 43.2116 87.7452 56.3046 87.7452Z" fill="#55C1C5" stroke="#55C1C5" stroke-width="2.43858" stroke-miterlimit="10"/>
<path d="M32.6879 61.9501V26.3561C32.6879 13.3217 43.3152 2.65723 56.3041 2.65723C69.2929 2.65723 79.9202 13.3217 79.9202 26.3561V61.9501L78.0582 61.9957V63.9098C78.0582 75.896 68.2938 85.7402 56.3041 85.7402C44.3598 85.7402 34.55 75.9416 34.55 63.9098V61.9957L32.6879 61.9501Z" fill="#414141" stroke="white" stroke-width="2.43858" stroke-miterlimit="10"/>
<path d="M56.3042 45.4967C66.7636 45.4967 75.2426 36.988 75.2426 26.492C75.2426 15.996 66.7636 7.4873 56.3042 7.4873C45.8449 7.4873 37.3659 15.996 37.3659 26.492C37.3659 36.988 45.8449 45.4967 56.3042 45.4967Z" fill="#55C1C5"/>
<path d="M56.3039 76.7161C53.7606 76.7161 51.7169 74.6196 51.7169 72.113V67.191C51.7169 64.6388 53.7606 62.5879 56.3039 62.5879C58.8472 62.5879 60.8909 64.6843 60.8909 67.191V72.113C60.8909 74.6196 58.8472 76.7161 56.3039 76.7161Z" fill="#55C1C5"/>
</g>
</g>
<defs>
<clipPath id="clip0_507_200">
<rect width="111.726" height="122.2" fill="white"/>
</clipPath>
<clipPath id="clip1_507_200">
<rect width="99.5057" height="120.454" fill="white" transform="translate(6.98285 1.74609)"/>
</clipPath>
</defs>
</svg>
