<svg width="120" height="120" viewBox="0 0 120 120" fill="none" xmlns="http://www.w3.org/2000/svg">
<path d="M82.0792 6.45117H37.3415C32.7851 6.45117 29.0915 10.1448 29.0915 14.7012V103.785C29.0915 108.341 32.7851 112.035 37.3415 112.035H82.0792C86.6355 112.035 90.3292 108.341 90.3292 103.785V14.7012C90.3292 10.1448 86.6355 6.45117 82.0792 6.45117Z" fill="#F7F7F7" stroke="#838383" stroke-width="2.0625" stroke-miterlimit="10"/>
<path d="M76.5555 17.6504H42.1417C40.0707 17.6504 38.3917 19.3293 38.3917 21.4004V46.2591C38.3917 48.3302 40.0707 50.0091 42.1417 50.0091H76.5555C78.6265 50.0091 80.3055 48.3302 80.3055 46.2591V21.4004C80.3055 19.3293 78.6265 17.6504 76.5555 17.6504Z" fill="#BFBFBF"/>
<path d="M58.4982 64.148L54.3056 71.4081C54.2034 71.5855 54.1497 71.7868 54.1498 71.9916C54.1499 72.1964 54.2037 72.3976 54.3061 72.575C54.4085 72.7524 54.5558 72.8998 54.7331 73.0023C54.9104 73.1049 55.1115 73.159 55.3163 73.1592H63.6994C63.9042 73.159 64.1054 73.1049 64.2827 73.0023C64.46 72.8998 64.6073 72.7524 64.7097 72.575C64.8121 72.3976 64.866 72.1964 64.866 71.9916C64.8661 71.7868 64.8123 71.5855 64.71 71.4081L60.5176 64.148C60.4152 63.9709 60.268 63.8238 60.0908 63.7215C59.9135 63.6193 59.7125 63.5654 59.5079 63.5654C59.3033 63.5654 59.1023 63.6193 58.9251 63.7215C58.7478 63.8238 58.6006 63.9709 58.4982 64.148Z" fill="#BFBFBF"/>
<path d="M58.4967 97.6226L54.3042 90.3626C54.2018 90.1853 54.1479 89.9841 54.1479 89.7793C54.148 89.5745 54.202 89.3734 54.3044 89.1961C54.4068 89.0188 54.5541 88.8716 54.7315 88.7693C54.9089 88.6669 55.11 88.6132 55.3148 88.6133H63.6979C63.9027 88.6132 64.104 88.6669 64.2813 88.7693C64.4587 88.8716 64.606 89.0188 64.7084 89.1961C64.8109 89.3734 64.8649 89.5745 64.8649 89.7793C64.8649 89.9841 64.8109 90.1853 64.7086 90.3626L60.5161 97.6226C60.4137 97.7998 60.2665 97.9469 60.0893 98.0492C59.912 98.1514 59.711 98.2053 59.5064 98.2053C59.3018 98.2053 59.1008 98.1514 58.9236 98.0492C58.7463 97.9469 58.5991 97.7998 58.4967 97.6226Z" fill="#BFBFBF"/>
<path d="M76.244 79.8738L68.984 75.6813C68.8065 75.579 68.6052 75.5253 68.4004 75.5254C68.1956 75.5255 67.9943 75.5793 67.8169 75.6817C67.6395 75.7841 67.4922 75.9313 67.3897 76.1086C67.2871 76.2859 67.2329 76.4871 67.2327 76.6919V85.075C67.2324 85.2801 67.2861 85.4816 67.3885 85.6592C67.4909 85.8369 67.6384 85.9844 67.816 86.0869C67.9936 86.1894 68.195 86.2432 68.4001 86.243C68.6051 86.2428 68.8066 86.1885 68.984 86.0857L76.244 81.8951C76.4216 81.7928 76.569 81.6455 76.6715 81.4681C76.7741 81.2907 76.8282 81.0894 76.8282 80.8844C76.8282 80.6795 76.7741 80.4782 76.6715 80.3008C76.569 80.1234 76.4216 79.9761 76.244 79.8738Z" fill="#BFBFBF"/>
<path d="M42.7717 79.8738L50.0316 75.6813C50.2091 75.579 50.4104 75.5253 50.6153 75.5254C50.8201 75.5255 51.0213 75.5793 51.1987 75.6817C51.3761 75.7841 51.5235 75.9313 51.626 76.1086C51.7286 76.2859 51.7826 76.4871 51.7829 76.6919V85.075C51.7832 85.2801 51.7295 85.4816 51.627 85.6592C51.5246 85.8369 51.3772 85.9844 51.1996 86.0869C51.022 86.1894 50.8205 86.2432 50.6155 86.243C50.4105 86.2428 50.209 86.1885 50.0316 86.0857L42.7717 81.8951C42.5941 81.7928 42.4466 81.6455 42.3441 81.4681C42.2415 81.2907 42.1875 81.0894 42.1875 80.8844C42.1875 80.6795 42.2415 80.4782 42.3441 80.3008C42.4466 80.1234 42.5941 79.9761 42.7717 79.8738Z" fill="#BFBFBF"/>
</svg>
