<svg width="200" height="200" viewBox="0 0 200 200" fill="none" xmlns="http://www.w3.org/2000/svg">
<path d="M150.005 131.112C150.015 122.431 148.056 113.862 144.275 106.048C140.494 98.2341 134.99 91.3795 128.177 86C128.046 85.8519 127.9 85.7178 127.741 85.6C127.571 85.472 110.367 72.244 110.367 57.102C110.367 36.196 116.829 24.756 130.139 22.162C130.259 22.126 130.373 22.0763 130.481 22.014C130.675 21.9587 130.862 21.8801 131.037 21.78C131.235 21.6714 131.421 21.5435 131.593 21.398C131.745 21.2756 131.888 21.1418 132.019 20.998C132.166 20.8269 132.295 20.6413 132.403 20.444C132.495 20.278 132.583 20.108 132.659 19.932C132.73 19.6955 132.781 19.4532 132.809 19.208C132.845 19.0762 132.873 18.9427 132.895 18.808V15.4C132.888 14.4971 132.525 13.6335 131.884 12.9969C131.244 12.3603 130.378 12.0021 129.475 12H47.5254C46.621 11.9984 45.7528 12.3553 45.111 12.9926C44.4692 13.6299 44.1062 14.4956 44.1014 15.4V18.8C44.1172 18.9358 44.146 19.0697 44.1874 19.2C44.2027 19.4473 44.2532 19.691 44.3374 19.924C44.4084 20.1015 44.494 20.2727 44.5934 20.436C44.7014 20.6374 44.8308 20.8265 44.9794 21C45.1106 21.1444 45.2531 21.2781 45.4054 21.4C45.5776 21.5455 45.7639 21.6734 45.9614 21.782C46.1413 21.8723 46.3271 21.9504 46.5174 22.016C46.6454 22.058 46.7394 22.122 46.8594 22.164C60.1694 24.764 66.6314 36.2 66.6314 57.104C66.6314 72.202 49.4314 85.474 49.2574 85.602C49.1051 85.7239 48.9626 85.8576 48.8314 86.002C42.9029 90.6969 37.9574 96.5137 34.2773 103.12C30.5972 109.727 28.2546 116.994 27.3834 124.506C26.5121 132.018 27.1293 139.628 29.1996 146.901C31.2699 154.174 34.7528 160.969 39.4494 166.896C44.048 172.707 49.7252 177.576 56.1694 181.236L54.7574 184.066C54.5567 184.466 54.4368 184.901 54.4046 185.347C54.3724 185.793 54.4285 186.241 54.5697 186.665C54.7109 187.09 54.9344 187.482 55.2274 187.82C55.5205 188.158 55.8773 188.434 56.2774 188.634C56.7541 188.873 57.2803 188.996 57.8134 188.994H119.229C119.811 188.99 120.382 188.839 120.89 188.555C121.397 188.27 121.824 187.862 122.131 187.368C122.438 186.874 122.613 186.309 122.639 185.729C122.665 185.148 122.542 184.57 122.281 184.05L120.881 181.216C129.709 176.159 137.049 168.865 142.162 160.069C147.275 151.273 149.98 141.286 150.005 131.112Z" fill="#55C1C5"/>
<path d="M145.291 184.06L143.891 181.226C152.086 176.566 159.012 169.965 164.061 162.003C169.111 154.041 172.128 144.962 172.849 135.562C173.57 126.161 171.973 116.728 168.197 108.089C164.422 99.4502 158.584 91.8702 151.195 86.0143C151.062 85.8658 150.914 85.7318 150.753 85.6143C150.583 85.4863 133.379 72.2583 133.379 57.1163C133.379 36.2103 139.841 24.7703 153.151 22.1763C153.27 22.1402 153.385 22.0906 153.493 22.0283C153.687 21.9729 153.874 21.8944 154.049 21.7943C154.246 21.6857 154.433 21.5577 154.605 21.4123C154.757 21.2898 154.899 21.1561 155.031 21.0123C155.177 20.8412 155.306 20.6556 155.415 20.4583C155.507 20.2923 155.595 20.1223 155.671 19.9463C155.742 19.7098 155.792 19.4675 155.821 19.2223C155.856 19.0904 155.885 18.9569 155.907 18.8223" stroke="#FF6969" stroke-width="6" stroke-linecap="round" stroke-linejoin="round"/>
<path d="M66.9409 121.016C59.6909 133.576 47.2769 148.83 39.2109 144.172C31.1449 139.514 34.9089 116.714 42.1589 104.154C49.4089 91.5937 61.8269 85.1917 69.8889 89.8477C77.9509 94.5037 74.1909 108.46 66.9409 121.016Z" fill="#A9E5EE"/>
</svg>
