<svg width="663" height="114" viewBox="0 0 663 114" fill="none" xmlns="http://www.w3.org/2000/svg">
<path d="M192.842 3.45752L192.782 10.1956H172.736V21.0855H190.994V27.8235H172.736V43.7776H165.02V3.45752H192.842Z" fill="#040000"/>
<path d="M234.139 30.9915H211.387C212.365 35.3655 215.707 38.0175 220.201 38.0175C221.745 38.0303 223.275 37.7307 224.7 37.1368C226.125 36.5429 227.416 35.6669 228.493 34.5615L232.525 38.7615C229.471 42.0975 224.977 44.0595 219.565 44.0595C210.007 44.0595 203.725 37.7235 203.725 28.4595C203.725 19.0755 210.175 12.7395 219.391 12.7395C230.221 12.7335 234.889 19.8195 234.139 30.9915ZM227.341 25.9815C227.167 21.4275 224.113 18.5475 219.451 18.5475C215.017 18.5475 211.903 21.4275 211.213 25.9815H227.341Z" fill="#040000"/>
<path d="M266.857 12.6733V19.9334C260.347 19.5314 256.375 23.3294 256.375 28.9334V43.7954H248.887V12.9793H256.375V18.9134C258.445 14.8634 262.075 12.7333 266.857 12.6733Z" fill="#040000"/>
<path d="M309.997 28.3395C309.997 37.7295 303.433 44.0655 293.797 44.0655C284.065 44.0655 277.501 37.7295 277.501 28.3395C277.501 18.9495 284.065 12.7395 293.797 12.7395C303.433 12.7335 309.997 19.0095 309.997 28.3395ZM285.055 28.4535C285.055 33.9855 288.655 37.7895 293.809 37.7895C298.879 37.7895 302.449 33.9855 302.449 28.4535C302.449 22.9215 298.879 19.1234 293.809 19.1234C288.631 19.1234 285.055 22.9275 285.055 28.4595V28.4535Z" fill="#040000"/>
<path d="M337.873 19.2979C332.923 19.2979 329.473 22.9879 329.473 28.3999C329.473 33.9259 332.929 37.6159 337.873 37.6159C341.473 37.6159 344.323 36.4159 346.171 34.0159L350.833 37.8739C348.127 41.7919 343.519 44.0959 337.471 44.0959C328.255 44.0959 321.919 37.7599 321.919 28.4959C321.919 19.1119 328.315 12.7759 337.585 12.7759C343.231 12.7759 347.725 14.8459 350.491 18.4219L345.937 22.7359C344.918 21.6191 343.67 20.7342 342.279 20.1411C340.888 19.548 339.385 19.2604 337.873 19.2979Z" fill="#040000"/>
<path d="M373.243 4.14733C373.221 4.93955 372.965 5.70762 372.509 6.35551C372.053 7.00341 371.415 7.50241 370.677 7.79018C369.938 8.07795 369.132 8.14172 368.357 7.97351C367.583 7.80529 366.875 7.41256 366.322 6.8444C365.77 6.27624 365.397 5.55784 365.25 4.77897C365.104 4.00011 365.19 3.19531 365.498 2.46518C365.807 1.73505 366.323 1.11196 366.984 0.67375C367.644 0.235544 368.419 0.00162986 369.211 0.00131302C369.754 -0.0127202 370.294 0.0858658 370.798 0.290766C371.301 0.495666 371.756 0.802492 372.135 1.19194C372.513 1.58138 372.807 2.04502 372.998 2.55366C373.189 3.06229 373.272 3.60488 373.243 4.14733ZM372.955 12.9614V43.7774H365.467V12.9614H372.955Z" fill="#040000"/>
<path d="M420.127 28.3395C420.127 37.7295 413.557 44.0655 403.927 44.0655C394.195 44.0655 387.631 37.7295 387.631 28.3395C387.631 18.9495 394.195 12.7395 403.927 12.7395C413.557 12.7335 420.127 19.0095 420.127 28.3395ZM395.185 28.4535C395.185 33.9855 398.755 37.7895 403.939 37.7895C409.009 37.7895 412.579 33.9855 412.579 28.4535C412.579 22.9215 408.979 19.1234 403.939 19.1234C398.755 19.1234 395.185 22.9275 395.185 28.4595V28.4535Z" fill="#040000"/>
<path d="M463.327 12.9616V43.7776H455.779V38.0595C453.649 42.1455 449.965 44.0595 445.069 44.0595C438.157 44.0595 433.897 39.5055 433.897 32.2515V12.9556H441.439V30.0616C441.439 34.3816 443.917 36.9735 448.039 36.9735C452.875 36.9195 455.755 33.1155 455.755 28.1595V12.9556L463.327 12.9616Z" fill="#040000"/>
<path d="M490.111 18.4936C487.711 18.4936 485.965 19.2976 485.965 21.1996C485.965 26.3836 502.261 23.6776 502.261 34.7356C502.261 41.0116 496.675 44.0656 490.111 44.0656C485.443 44.0656 480.607 42.5656 477.379 39.7456L479.971 34.5016C482.931 36.8878 486.598 38.2257 490.399 38.3056C492.991 38.3056 494.947 37.4416 494.947 35.4256C494.947 29.7256 478.879 32.8336 478.939 21.8896C478.939 15.5536 484.339 12.6196 490.573 12.6196C494.573 12.6019 498.493 13.7417 501.859 15.9016L499.153 21.3016C496.159 19.5316 492.757 18.4936 490.111 18.4936Z" fill="#040000"/>
<path d="M31.8192 100.34C31.8192 107.942 25.6572 113.246 15.8652 113.246C10.3932 113.246 4.63323 111.446 0.865234 108.692L4.03323 102.416C7.10321 105.227 11.1029 106.806 15.2652 106.85C20.9712 106.85 24.2652 104.372 24.2652 100.454C24.2652 96.4216 20.9232 94.3516 15.2232 94.3516H9.06723V89.9177L20.2992 79.2616H2.96523L2.90523 72.5776H29.8032V77.3776L17.3652 89.1677L19.6692 89.3957C26.9232 90.1457 31.8192 94.0036 31.8192 100.34Z" fill="#040000"/>
<path d="M86.365 92.7376C86.365 104.486 77.497 112.898 65.053 112.898H48.583V72.5776H65.341C77.551 72.5776 86.365 80.9296 86.365 92.7376ZM78.475 92.7976C78.475 84.9076 72.775 79.3756 65.227 79.3756H56.299V106.1H65.515C72.925 106.1 78.475 100.628 78.475 92.7976Z" fill="#040000"/>
<path d="M145.117 79.2018C141.566 79.2018 138.159 80.6128 135.648 83.1243C133.136 85.6358 131.725 89.0421 131.725 92.5938C131.725 96.1456 133.136 99.5519 135.648 102.063C138.159 104.575 141.566 105.986 145.117 105.986C149.234 105.864 153.148 104.175 156.061 101.264L160.609 106.334C156.463 110.534 150.535 113.246 144.715 113.246C132.853 113.246 123.715 104.318 123.715 92.6839C123.715 81.1639 132.991 72.3499 145.027 72.3499C150.853 72.3974 156.43 74.7107 160.579 78.7999L156.085 84.4459C153.181 81.2179 149.125 79.2018 145.117 79.2018Z" fill="#040000"/>
<path d="M203.755 97.4596C203.755 106.85 197.191 113.186 187.555 113.186C177.817 113.186 171.253 106.85 171.253 97.4596C171.253 88.0696 177.817 81.8596 187.555 81.8596C197.191 81.8596 203.755 88.1296 203.755 97.4596ZM178.813 97.5736C178.813 103.106 182.413 106.904 187.573 106.904C192.637 106.904 196.207 103.106 196.207 97.5736C196.207 92.0416 192.607 88.2436 187.573 88.2436C182.389 88.2436 178.813 92.0596 178.813 97.5736Z" fill="#040000"/>
<path d="M236.473 81.7935V89.0594C229.963 88.6514 225.991 92.4554 225.991 98.0594V112.921H218.503V82.1055H225.991V88.0395C228.061 83.9835 231.691 81.8595 236.473 81.7935Z" fill="#040000"/>
<path d="M277.525 100.112H254.791C255.769 104.486 259.111 107.138 263.599 107.138C265.144 107.15 266.675 106.851 268.101 106.257C269.527 105.663 270.818 104.787 271.897 103.682L275.929 107.882C272.875 111.218 268.381 113.18 262.969 113.18C253.405 113.18 247.129 106.844 247.129 97.5796C247.129 88.1956 253.579 81.8596 262.795 81.8596C273.625 81.8596 278.287 88.9396 277.525 100.112ZM270.733 95.1016C270.559 90.5476 267.505 87.6677 262.843 87.6677C258.403 87.6677 255.295 90.5476 254.605 95.1016H270.733Z" fill="#040000"/>
<path d="M345.925 72.5776L345.871 79.3156H325.807V90.2056H344.065V96.9436H325.807V112.898H318.091V72.5776H345.925Z" fill="#040000"/>
<path d="M388.075 82.0815V112.898H380.527V107.192C378.397 111.284 374.713 113.192 369.817 113.192C362.905 113.192 358.639 108.644 358.639 101.384V82.0875H366.187V99.1936C366.187 103.514 368.665 106.106 372.787 106.106C377.623 106.052 380.503 102.248 380.503 97.2975V82.0875L388.075 82.0815Z" fill="#040000"/>
<path d="M435.596 93.6615V112.897H428.048V95.8455C428.048 91.5315 425.456 88.8794 421.196 88.8794C416.126 88.9394 413.132 92.6834 413.132 97.7474V112.897H405.644V82.0814H413.126V87.8414C415.316 83.7554 419.174 81.8415 424.184 81.7935C431.276 81.7935 435.596 86.3415 435.596 93.6615Z" fill="#040000"/>
<path d="M465.373 88.418C460.417 88.418 456.973 92.1019 456.973 97.5199C456.973 103.046 460.429 106.736 465.373 106.736C468.943 106.736 471.823 105.536 473.665 103.136L478.333 106.994C475.621 110.912 471.013 113.216 464.971 113.216C455.755 113.216 449.419 106.88 449.419 97.616C449.419 88.232 455.809 81.896 465.085 81.896C470.725 81.896 475.219 83.9659 477.985 87.5359L473.437 91.856C472.417 90.7401 471.169 89.8559 469.778 89.2628C468.387 88.6698 466.885 88.3817 465.373 88.418Z" fill="#040000"/>
<path d="M510.991 110.996C508.675 112.441 506.005 113.219 503.275 113.246C498.259 113.246 494.233 110.36 494.233 104.03V88.8196H489.925L489.871 83.3476H494.251V74.8816H501.679V83.3476H510.487V88.8196H501.661V102.704C501.661 105.638 502.861 106.622 504.883 106.622C506.419 106.526 507.915 106.091 509.263 105.35L510.991 110.996Z" fill="#040000"/>
<path d="M532.88 73.2736C532.856 74.0655 532.6 74.833 532.143 75.4801C531.685 76.1271 531.048 76.6252 530.309 76.912C529.571 77.1989 528.764 77.2618 527.99 77.0929C527.216 76.9241 526.509 76.531 525.957 75.9626C525.405 75.3942 525.033 74.6758 524.887 73.8971C524.74 73.1184 524.827 72.3139 525.135 71.5842C525.444 70.8544 525.96 70.2316 526.621 69.7937C527.281 69.3557 528.055 69.122 528.848 69.1216C529.391 69.1066 529.932 69.2047 530.436 69.4096C530.94 69.6145 531.396 69.9219 531.775 70.3122C532.154 70.7025 532.448 71.1673 532.638 71.677C532.828 72.1868 532.911 72.7304 532.88 73.2736ZM532.592 82.0816V112.898H525.104V82.0816H532.592Z" fill="#040000"/>
<path d="M579.763 97.4596C579.763 106.85 573.199 113.186 563.563 113.186C553.825 113.186 547.261 106.85 547.261 97.4596C547.261 88.0696 553.825 81.8596 563.563 81.8596C573.199 81.8596 579.763 88.1296 579.763 97.4596ZM554.821 97.5736C554.821 103.106 558.421 106.904 563.581 106.904C568.645 106.904 572.215 103.106 572.215 97.5736C572.215 92.0416 568.645 88.2436 563.581 88.2436C558.397 88.2436 554.821 92.0596 554.821 97.5736Z" fill="#040000"/>
<path d="M624.457 93.6615V112.897H616.915V95.8455C616.915 91.5315 614.323 88.8794 610.057 88.8794C604.993 88.9394 601.999 92.6834 601.999 97.7474V112.897H594.511V82.0814H601.999V87.8414C604.183 83.7554 608.047 81.8415 613.057 81.7935C620.125 81.7935 624.457 86.3415 624.457 93.6615Z" fill="#040000"/>
<path d="M650.323 87.6137C647.923 87.6137 646.177 88.4177 646.177 90.3197C646.177 95.5037 662.473 92.7977 662.473 103.856C662.473 110.132 656.887 113.186 650.323 113.186C645.655 113.186 640.819 111.686 637.597 108.866L640.183 103.622C643.143 106.008 646.81 107.346 650.611 107.426C653.203 107.426 655.159 106.562 655.159 104.546C655.159 98.8457 639.091 101.954 639.151 91.0097C639.151 84.6737 644.551 81.7397 650.785 81.7397C654.785 81.722 658.705 82.8618 662.071 85.0217L659.365 90.4217C656.371 88.6457 652.969 87.6137 650.323 87.6137Z" fill="#040000"/>
</svg>
