<svg width="450" height="47" viewBox="0 0 450 47" fill="none" xmlns="http://www.w3.org/2000/svg">
<g clip-path="url(#clip0_242_525)">
<path d="M131.942 32.3467C129.218 35.9743 124.982 38.3928 120.14 38.3928C112.271 38.3928 105.614 31.7421 105.614 23.8821C105.614 16.0222 112.271 9.37148 120.14 9.37148C124.982 9.37148 128.916 11.4876 131.639 15.1153H137.692C134.363 8.46457 127.705 4.2323 119.837 4.2323C109.85 4.2323 101.68 11.7899 100.167 21.1614H86.8512V10.2784C86.8512 9.67379 87.1538 9.37148 87.759 9.37148H101.68V3.62769H84.7328C82.3118 3.62769 80.4961 5.44152 80.4961 7.85996V43.532V43.8343H86.8512V26.6029H100.167C101.68 36.2766 109.85 43.532 119.837 43.532C127.705 43.532 134.666 38.9974 137.692 32.3467H131.942Z" fill="#595757"/>
<path d="M120.14 16.929C122.258 16.929 124.377 17.8359 125.587 19.6497H131.64C129.824 15.1152 125.285 11.7898 120.14 11.7898C113.482 11.7898 107.732 17.2313 107.732 24.1843C107.732 31.1373 113.18 36.5788 120.14 36.5788C125.285 36.5788 129.824 33.2535 131.64 28.7189H125.587C124.377 30.2304 122.258 31.4396 120.14 31.4396C116.206 31.4396 113.18 28.4166 113.18 24.4866C113.18 19.952 116.206 16.929 120.14 16.929Z" fill="#595757"/>
<path d="M22.0906 37.7881C22.0906 39.9042 22.0906 41.7181 22.0906 43.8342C14.525 44.4388 8.47254 42.0204 3.9332 35.9743C-1.51401 28.7189 -1.51401 20.859 3.02533 12.9991C6.65681 6.95297 14.2224 3.023 21.7879 3.92992C21.7879 6.04605 21.7879 7.85989 21.7879 9.97602C16.946 9.37141 12.7093 11.1852 9.38041 15.1152C7.26205 17.5336 6.05156 20.859 6.35418 24.1844C6.35418 26.9051 7.26205 29.3235 8.77517 31.742C10.2883 33.8581 12.104 35.672 14.525 36.8812C16.946 37.7881 19.367 38.0904 22.0906 37.7881Z" fill="#595757"/>
<path d="M42.6681 36.5788C40.2471 35.3696 38.1287 33.8581 36.9182 31.4397C36.0104 29.9281 35.4051 28.4166 34.7999 26.6028H45.9969V20.5567H34.7999C35.1025 18.4405 36.313 16.3244 37.5235 14.8129C40.8523 10.8829 45.089 9.06909 50.2336 9.976C50.2336 7.85987 50.2336 5.74373 50.2336 3.9299C42.6681 3.02298 35.1025 6.65065 31.471 12.9991C26.9317 20.5567 27.2343 28.4166 32.3789 35.6719C36.6156 41.718 42.9707 44.1365 50.5363 43.5319C50.5363 41.4157 50.5363 39.6019 50.5363 37.4858C47.8127 37.7881 45.3917 37.4858 42.6681 36.5788Z" fill="#595757"/>
<path d="M309.583 37.7881H285.373V43.8342H309.583V37.7881Z" fill="#595757"/>
<path d="M305.043 7.85996H305.346C305.951 7.85996 306.254 7.55766 306.254 6.95305C306.254 6.34844 305.951 6.04613 305.346 6.04613C305.043 6.04613 305.043 6.04613 304.741 6.34844C303.833 5.44152 300.807 4.83691 298.083 4.83691C295.965 4.83691 293.846 5.13922 292.333 5.74383V5.13922H291.425V6.04613C291.123 6.34844 291.123 6.34844 291.123 6.65074H290.518V7.55766H291.123L292.636 28.4167H293.544V29.9282H295.057V28.4167H301.109C301.412 29.3236 302.017 29.9282 302.925 29.9282C304.136 29.9282 305.043 29.0213 305.043 27.8121C305.043 27.2075 304.741 26.6029 304.136 25.9983L305.043 7.85996ZM292.333 6.04613C292.636 6.04613 292.939 5.74383 293.241 5.74383C294.452 5.44152 296.267 5.13922 298.083 5.13922C299.899 5.13922 301.715 5.44152 302.925 5.74383C303.833 6.04613 304.438 6.34844 304.741 6.65074H292.636V6.04613H292.333ZM303.228 25.9983C302.925 25.9983 302.925 25.9983 302.622 25.9983C301.412 25.9983 300.504 26.9052 300.504 28.1144H292.636L291.123 7.85996H298.991H304.136L303.228 25.9983Z" fill="#595757"/>
<path d="M302.623 28.7189C302.32 28.7189 301.715 28.4166 301.715 27.8119C301.715 27.5096 302.017 26.905 302.623 26.905C302.925 26.905 303.531 27.2073 303.531 27.8119C303.531 28.4166 303.228 28.7189 302.623 28.7189Z" fill="#595757"/>
<path d="M302.623 27.2075C302.925 27.2075 303.228 27.5098 303.228 27.8121C303.228 28.1144 302.925 28.4167 302.623 28.4167C302.32 28.4167 302.017 28.1144 302.017 27.8121C302.017 27.5098 302.32 27.2075 302.623 27.2075ZM302.623 27.2075C302.017 27.2075 301.715 27.5098 301.715 28.1144C301.715 28.719 302.017 29.0214 302.623 29.0214C303.228 29.0214 303.531 28.719 303.531 28.1144C303.531 27.5098 303.228 27.2075 302.623 27.2075Z" fill="#595757"/>
<path d="M310.793 30.5328L297.78 17.5337L310.793 4.23224L310.49 3.92993L297.477 17.2314L284.162 3.92993L283.859 4.23224L297.175 17.5337L283.859 30.5328L284.162 30.8351L297.477 17.836L310.49 30.8351L310.793 30.5328Z" fill="#595757"/>
<path d="M236.044 41.4158L236.65 31.1375L227.268 31.7421C227.268 31.7421 223.94 37.1836 227.874 41.1135L236.044 41.4158Z" fill="#595757"/>
<path d="M224.848 37.1834C224.848 37.1834 225.756 30.835 230.598 25.0912L233.624 26.905L228.48 18.1382H218.796L221.217 19.6497C221.217 19.6497 217.585 24.4866 218.796 26.905C220.006 29.3235 224.848 37.1834 224.848 37.1834Z" fill="#595757"/>
<path d="M256.624 16.929L247.242 21.7658L252.387 29.6258C252.387 29.6258 258.742 29.6258 260.255 24.4866L256.624 16.929Z" fill="#595757"/>
<path d="M258.438 28.719C258.438 28.719 252.386 31.1374 245.123 29.9282V26.3005L239.979 35.0674L244.82 43.2296V40.2066C244.82 40.2066 250.873 40.8112 252.386 38.695C253.899 36.8812 258.438 28.719 258.438 28.719Z" fill="#595757"/>
<path d="M225.15 11.1851L233.926 16.9289L238.163 8.7667C238.163 8.7667 235.137 3.0229 229.992 4.53443L225.15 11.1851Z" fill="#595757"/>
<path d="M234.531 3.92982C234.531 3.92982 239.676 7.85979 242.097 15.1151L239.071 16.6266H249.36L254.202 8.4644L251.781 9.97593C251.781 9.97593 249.36 4.53443 246.636 4.23213C243.61 3.62752 234.531 3.92982 234.531 3.92982Z" fill="#595757"/>
<path d="M200.638 23.2774C200.638 35.6719 190.349 46.2526 177.639 45.9503C165.231 45.9503 154.639 35.6719 154.942 22.9751C154.942 10.8829 165.231 -0.302361 178.849 0.30225C190.349 0.604555 200.941 10.2783 200.638 23.2774ZM161.6 10.2783C160.994 9.97601 160.994 10.5806 160.692 10.5806C158.573 13.6037 157.06 16.929 156.758 20.859C156.455 22.9751 156.758 24.789 157.06 26.9051C157.665 29.9281 158.876 32.6489 160.389 35.0673C162.205 37.4858 164.323 39.6019 167.047 41.1134C169.77 42.625 172.797 43.5319 175.823 43.8342C179.454 44.1365 183.086 43.5319 186.415 42.0203C189.441 40.5088 191.862 38.695 193.98 36.2766C195.191 34.4627 196.401 32.6489 197.309 30.8351C197.914 29.0212 198.52 26.9051 198.822 25.0913C199.125 23.2774 198.822 21.7659 198.822 20.2544C198.52 17.8359 197.612 15.7198 196.704 13.6037C196.099 12.3945 195.493 11.4875 194.585 10.2783C192.164 7.55757 189.441 5.44144 186.112 3.92991C183.691 2.72069 180.967 2.41839 178.244 2.41839C177.639 2.41839 176.731 2.72069 176.125 2.72069C173.704 2.72069 171.586 3.62761 169.468 4.53452C166.744 5.74374 164.626 7.55757 162.507 9.67371C161.6 9.3714 161.6 9.67371 161.6 10.2783Z" fill="#595757"/>
<path d="M190.65 15.1152C190.348 15.1152 190.348 15.1152 190.045 15.1152C189.44 15.1152 189.137 14.8129 189.137 14.5106C188.835 13.3014 188.23 12.6968 187.322 12.3945C186.414 12.0922 185.203 12.0922 184.295 12.3945C183.69 12.3945 183.085 12.9991 182.782 13.6037C182.48 14.5106 183.085 15.1152 183.993 15.4175C185.203 15.7199 186.716 16.0222 187.927 16.3245C189.743 16.6268 191.256 17.5337 192.164 19.0452C192.769 20.2544 192.769 22.9752 191.558 24.1844C190.65 25.0913 189.743 25.6959 188.532 25.9982C186.414 26.3005 184.598 26.3005 182.782 25.6959C181.572 25.3936 180.664 24.789 180.361 24.1844C179.756 23.2775 179.151 22.3706 179.151 21.1613C179.151 20.859 179.151 20.859 179.151 20.5567C178.848 19.9521 179.453 19.9521 179.756 19.6498C180.361 19.6498 180.967 19.6498 181.572 19.6498C181.874 19.6498 182.177 19.6498 182.177 20.2544C182.48 22.0683 183.69 22.9752 185.506 23.2775C186.414 23.5798 187.624 23.2775 188.532 22.9752C189.44 22.3706 190.045 21.766 189.743 21.1613C189.743 20.2544 189.137 19.6498 187.927 19.6498C186.111 19.0452 184.295 18.7429 182.48 18.1383C180.967 17.5337 179.453 15.7199 179.453 14.2083C179.453 13.3014 179.756 12.6968 180.059 11.7899C180.967 10.5807 182.782 9.67375 183.69 9.67375C185.203 9.37145 186.414 9.37145 187.927 9.67375C189.743 9.97606 191.861 11.4876 192.164 13.906V14.2083C192.164 14.8129 192.164 15.1152 191.558 15.1152C191.256 15.1152 190.953 15.1152 190.65 15.1152Z" fill="#595757"/>
<path d="M169.77 9.67364C171.283 9.67364 172.796 9.67364 174.309 9.97595C177.638 10.5806 179.151 13.9059 177.941 16.929C177.335 18.7428 175.822 19.6497 174.007 19.952C172.493 19.952 170.98 19.6497 169.467 19.952C168.559 19.952 168.559 19.952 168.559 20.8589C168.559 22.3705 168.559 23.882 168.559 25.3935C168.559 25.6958 168.559 25.9981 167.954 25.9981C167.349 25.9981 166.441 25.9981 165.836 25.9981C165.533 25.9981 165.23 25.6958 165.23 25.3935C165.23 24.4866 165.23 23.882 165.23 22.9751C165.23 18.7428 165.23 14.5105 165.23 9.97595C165.23 9.37134 165.533 9.37134 165.836 9.37134C167.046 9.67364 168.257 9.67364 169.77 9.67364ZM168.257 14.5105C168.257 15.1151 168.257 15.4174 168.257 16.0221C168.257 16.3244 168.257 16.6267 168.862 16.6267C170.072 16.6267 171.283 16.6267 172.191 16.6267C172.796 16.6267 173.704 16.3244 174.309 16.0221C174.914 15.7197 174.914 15.1151 174.914 14.8128C175.52 13.6036 174.309 12.3944 173.401 12.3944C171.888 12.3944 170.375 12.0921 168.862 12.3944C168.559 12.3944 168.257 12.6967 168.257 12.999C168.257 13.6036 168.257 14.2082 168.257 14.5105Z" fill="#595757"/>
<path d="M173.1 34.4627C173.1 32.6488 173.1 30.835 173.1 29.0212C173.1 28.1143 173.1 28.1143 174.007 28.1143C176.731 28.1143 179.455 28.1143 182.178 28.1143C182.481 28.1143 182.784 28.4166 182.784 28.7189C182.784 30.5327 182.784 30.2304 181.27 30.2304C179.455 30.2304 177.942 30.2304 176.126 30.2304C175.521 30.2304 175.218 30.5327 175.521 30.835C175.521 31.1373 175.521 31.7419 175.521 32.0442C175.521 32.6488 175.823 32.9511 176.428 32.9511C178.244 32.9511 179.757 32.9511 181.573 32.9511C182.481 32.9511 182.481 32.9511 182.481 33.8581C182.481 35.3696 182.481 35.3696 180.968 35.3696C179.455 35.3696 177.942 35.3696 176.428 35.3696C175.823 35.3696 175.521 35.6719 175.521 36.2765C175.521 36.8811 175.521 37.1834 175.521 37.788C175.521 38.6949 175.521 38.6949 176.428 38.6949C178.244 38.6949 180.363 38.6949 182.178 38.6949C183.086 38.6949 183.086 38.6949 183.086 39.6019C183.086 41.1134 183.086 41.1134 181.573 41.1134C179.152 41.1134 176.428 41.1134 174.007 41.1134C173.1 41.1134 173.1 41.1134 173.1 40.2065C173.1 38.3926 173.1 36.2765 173.1 34.4627Z" fill="#595757"/>
<path d="M335.91 20.8591C335.91 20.2544 336.213 19.3475 336.213 18.7429C336.818 16.0222 337.726 13.3014 339.239 10.883C341.055 8.16224 343.173 6.0461 345.594 4.23227C347.712 2.72075 349.831 1.81383 352.252 0.906915C353.765 0.302305 355.581 0.302305 357.094 0C358.909 0 360.725 0 362.541 0.302305C364.357 0.60461 365.87 1.20922 367.686 1.81383C370.409 3.02305 372.83 4.53458 374.948 6.65071C377.672 9.37146 379.488 12.6968 380.698 16.3245V16.6268C381.001 17.5337 381.001 17.836 379.79 17.836C376.764 18.4406 373.435 19.3475 370.409 19.9521C367.686 20.5567 364.659 21.4637 361.936 22.0683C360.725 22.3706 359.212 22.6729 358.002 22.9752C357.396 23.2775 357.094 22.9752 357.094 22.3706C357.094 20.8591 357.094 19.0452 357.094 17.5337C357.094 17.2314 356.791 16.9291 356.489 17.2314C351.041 18.4406 345.897 19.9521 340.449 21.1614C339.542 21.4637 339.542 21.4637 339.542 22.3706C339.542 25.0913 339.844 27.5098 340.752 29.9282C341.357 31.742 342.265 33.2536 343.476 34.7651C344.384 35.9743 345.291 36.8812 346.502 38.0904C347.712 39.2997 348.923 39.9043 350.436 40.8112C351.949 41.4158 353.462 42.0204 354.975 42.3227C356.489 42.625 358.002 42.625 359.212 42.625C360.725 42.625 361.936 42.625 363.449 42.0204C365.87 41.4158 367.988 40.5089 369.804 38.9974C371.922 37.4858 374.041 35.3697 375.251 32.9513C375.554 32.3466 375.856 31.742 376.159 31.1374C376.462 30.5328 376.764 30.5328 377.369 30.5328C378.277 30.5328 378.883 30.5328 379.79 30.5328C380.396 30.5328 380.396 30.8351 380.396 31.4397C379.79 32.9513 378.883 34.7651 377.975 35.9743C376.764 37.7881 375.251 39.2997 373.738 40.8112C372.83 41.7181 371.62 42.3227 370.712 43.2296C369.501 44.1365 367.988 44.7411 366.778 45.0435C364.357 45.9504 361.936 46.2527 359.515 46.555C357.699 46.555 355.883 46.2527 353.765 45.9504C351.647 45.3458 349.528 44.7411 347.41 43.5319C346.199 42.9273 345.291 42.0204 344.384 41.4158C342.87 40.2066 341.66 38.9974 340.752 37.4858C338.936 35.0674 337.423 32.3466 336.818 29.0213C336.515 27.8121 336.515 26.6028 336.213 25.0913C335.91 23.5798 335.91 22.0683 335.91 20.8591ZM358.607 3.92997C357.396 3.92997 356.186 3.92997 355.278 4.23227C353.462 4.53458 351.344 5.13919 349.831 6.34841C348.62 6.95302 347.41 7.85993 346.199 9.06915C344.989 10.2784 343.778 11.7899 342.87 13.3014C341.963 14.5106 341.357 16.0222 340.752 17.5337C340.752 17.836 340.752 17.836 341.055 17.836C341.357 17.836 341.963 17.5337 342.265 17.5337C344.686 16.9291 347.41 16.3245 349.831 15.7199C352.252 15.1153 354.673 14.5106 357.094 14.2083C358.002 13.906 358.909 13.6037 359.817 13.6037C360.423 13.6037 360.725 13.6037 360.725 14.2083C360.725 15.1153 360.725 15.7199 360.725 16.6268C360.725 17.5337 360.725 18.1383 360.725 19.0452C360.725 19.3475 360.725 19.6498 361.028 19.3475C361.936 19.0452 362.541 19.0452 363.449 18.7429C365.265 18.1383 367.08 17.836 368.896 17.5337C371.317 16.9291 373.738 16.3245 375.856 15.7199C376.159 15.7199 376.159 15.4176 376.159 15.1153C375.856 14.2083 375.251 13.6037 374.646 12.6968C373.133 10.2784 371.014 8.46454 368.593 6.95302C365.567 4.53458 362.238 3.92997 358.607 3.92997Z" fill="#595757"/>
<path d="M361.633 37.7882C361.633 38.6951 361.633 39.2997 361.633 40.2067C361.633 40.8113 361.331 41.1136 360.725 41.1136C359.515 41.1136 358.607 41.1136 357.396 41.1136C356.489 41.1136 356.186 40.8113 356.489 40.2067C356.791 38.6951 356.489 37.1836 356.489 35.6721C356.489 35.0675 356.186 35.0675 355.883 35.0675C353.16 35.3698 350.436 35.0675 347.713 35.0675C346.805 35.0675 346.805 35.0675 346.805 34.1606C346.805 33.2536 346.805 32.3467 346.805 31.7421C346.805 31.1375 347.107 30.8352 347.713 30.8352C348.62 30.8352 349.528 30.8352 350.436 30.8352C357.094 30.8352 363.752 30.8352 370.409 30.8352C370.712 30.8352 371.015 30.8352 371.317 30.8352C371.62 30.8352 371.922 31.1375 371.922 31.4398C371.922 32.3467 371.922 33.2536 371.922 34.1606C371.922 34.7652 371.62 35.0675 371.015 35.0675C368.291 34.7652 365.567 35.0675 362.844 35.0675C362.238 35.0675 361.936 35.0675 361.936 35.9744C361.633 36.2767 361.633 36.8813 361.633 37.7882Z" fill="#595757"/>
<path d="M358.91 28.7191C355.278 28.7191 351.344 28.7191 347.713 28.7191C346.805 28.7191 346.805 28.7191 346.805 27.8122C346.805 26.9053 346.805 26.3006 346.805 25.3937C346.805 24.4868 346.805 24.4868 347.713 24.4868C354.37 24.4868 361.028 24.4868 367.686 24.4868C368.594 24.4868 369.501 24.4868 370.712 24.4868C371.317 24.4868 371.317 24.4868 371.62 25.3937C371.62 26.3006 371.62 27.2076 371.62 27.8122C371.62 28.7191 371.62 28.7191 370.712 28.7191C367.08 28.7191 363.449 28.7191 359.817 28.7191C359.212 28.7191 358.91 28.7191 358.91 28.7191Z" fill="#595757"/>
<path d="M419.736 38.0905C419.736 35.672 419.736 33.5559 419.736 31.1374C419.736 30.8351 419.433 30.2305 419.131 30.2305C418.828 30.2305 418.223 30.5328 417.92 30.5328C416.104 32.3467 414.591 33.8582 412.776 35.672C411.868 36.5789 411.565 36.5789 410.96 35.672C408.842 33.5559 408.842 34.1605 410.96 32.0444C413.381 29.6259 415.499 27.5098 417.92 25.0913C418.525 24.4867 418.525 23.8821 417.92 23.2775C415.197 20.8591 412.776 18.1383 410.355 15.7199C409.447 14.813 409.447 14.813 410.355 13.906C410.657 13.6037 410.96 13.3014 410.96 12.9991C411.868 12.0922 412.17 12.0922 413.078 12.9991C414.591 14.5107 416.407 16.3245 417.92 17.836C418.223 18.1383 418.828 18.1383 419.131 18.4406C419.131 18.1383 419.433 17.5337 419.433 17.2314C419.433 12.6968 419.433 8.46456 419.433 3.92998C419.433 3.32537 419.736 3.02307 420.039 2.41846C420.341 2.72076 420.946 2.72076 421.249 3.02307C423.67 5.44151 426.091 7.85995 428.209 10.2784C429.722 11.7899 430.933 12.9991 432.446 14.2084C433.051 14.813 433.051 15.4176 432.446 16.0222C430.025 18.4406 427.604 20.8591 425.183 23.2775C424.275 24.1844 424.275 24.1844 425.183 25.3936C427.604 27.8121 430.025 30.2305 432.446 32.649C433.354 33.5559 433.354 33.5559 432.446 34.4628C428.815 38.0905 424.88 42.0204 421.249 45.6481C420.946 45.9504 420.341 45.9504 420.039 46.2527C420.039 45.9504 419.736 45.3458 419.736 45.0435C419.736 42.625 419.736 40.5089 419.736 38.0905ZM423.367 33.2536C423.367 34.1605 423.367 34.7651 423.367 35.672C423.367 35.9743 423.67 36.5789 423.67 36.5789C423.973 36.5789 424.275 36.5789 424.578 36.2766C425.486 35.672 426.091 34.7651 426.999 33.8582C427.604 33.2536 427.302 32.9513 426.999 32.649C426.394 32.0444 425.486 31.1374 424.88 30.5328C424.578 30.2305 424.275 30.2305 423.973 30.2305C423.67 30.5328 423.67 30.8351 423.367 31.1374C423.367 31.7421 423.367 32.649 423.367 33.2536ZM423.367 15.1153C423.367 16.0222 423.367 16.6268 423.367 17.5337C423.367 17.836 423.67 18.4406 423.67 18.4406C423.973 18.4406 424.275 18.4406 424.578 18.1383C425.486 17.5337 426.091 16.6268 426.696 16.0222C427.301 15.4176 427.301 15.1153 426.696 14.5107C426.091 13.906 425.183 12.9991 424.578 12.3945C424.275 12.0922 423.973 12.0922 423.67 12.0922C423.367 12.3945 423.065 12.6968 423.065 12.9991C423.367 13.6037 423.367 14.5107 423.367 15.1153Z" fill="#595757"/>
<path d="M440.617 11.79C441.525 10.883 442.433 9.67382 443.341 8.4646C447.275 12.6969 449.696 17.2314 449.998 22.6729C450.604 29.3237 448.183 35.0674 443.643 39.9043C442.736 38.6951 441.525 37.7882 440.617 36.8813C447.578 29.3236 446.972 18.4407 440.617 11.79Z" fill="#595757"/>
<path d="M437.893 34.1605C436.683 32.9512 435.775 32.0443 434.867 30.8351C436.683 29.0213 437.591 26.6028 437.591 24.1844C437.591 21.4637 436.683 19.3475 434.564 17.2314C435.472 16.3245 436.38 15.7199 436.985 14.8129C437.591 14.2083 437.893 14.5106 438.196 14.8129C441.827 19.0452 442.735 25.0913 440.314 30.2305C439.709 31.742 438.801 32.9512 437.893 34.1605Z" fill="#595757"/>
<path d="M431.538 27.812C430.327 26.6027 429.117 25.3935 427.906 24.1843C429.117 22.9751 430.327 21.7659 431.538 20.5566C433.353 21.7659 433.656 25.9981 431.538 27.812Z" fill="#595757"/>
</g>
<defs>
<clipPath id="clip0_242_525">
<rect width="450" height="46.2527" fill="white"/>
</clipPath>
</defs>
</svg>
