<svg width="390" height="79" viewBox="0 0 390 79" fill="none" xmlns="http://www.w3.org/2000/svg">
<path d="M41.1992 7.40625V33H36.7871V7.40625H41.1992ZM51.6406 18.6035V22.1016H40.0742V18.6035H51.6406ZM53.0996 7.40625V10.9219H40.0742V7.40625H53.0996ZM56.6152 7.40625H65.668C67.6133 7.40625 69.2715 7.69922 70.6426 8.28516C72.0137 8.87109 73.0625 9.73828 73.7891 10.8867C74.5273 12.0234 74.8965 13.4297 74.8965 15.1055C74.8965 16.3828 74.6621 17.5078 74.1934 18.4805C73.7246 19.4531 73.0625 20.2734 72.207 20.9414C71.3516 21.5977 70.332 22.1074 69.1484 22.4707L67.8125 23.1211H59.6738L59.6387 19.623H65.7383C66.793 19.623 67.6719 19.4355 68.375 19.0605C69.0781 18.6855 69.6055 18.1758 69.957 17.5312C70.3203 16.875 70.502 16.1367 70.502 15.3164C70.502 14.4258 70.3262 13.6523 69.9746 12.9961C69.6348 12.3281 69.1074 11.8184 68.3926 11.4668C67.6777 11.1035 66.7695 10.9219 65.668 10.9219H61.0273V33H56.6152V7.40625ZM71.2227 33L65.2109 21.5039L69.834 21.4863L75.9336 32.7715V33H71.2227ZM96.043 29.502V33H82.4551V29.502H96.043ZM83.7031 7.40625V33H79.291V7.40625H83.7031ZM94.2676 18.0938V21.5391H82.4551V18.0938H94.2676ZM95.9551 7.40625V10.9219H82.4551V7.40625H95.9551ZM116.398 29.502V33H102.811V29.502H116.398ZM104.059 7.40625V33H99.6465V7.40625H104.059ZM114.623 18.0938V21.5391H102.811V18.0938H114.623ZM116.311 7.40625V10.9219H102.811V7.40625H116.311ZM133.379 7.40625V33H128.967V7.40625H133.379ZM143.82 18.6035V22.1016H132.254V18.6035H143.82ZM145.279 7.40625V10.9219H132.254V7.40625H145.279ZM169.203 19.5V20.9062C169.203 22.8398 168.951 24.5742 168.447 26.1094C167.943 27.6445 167.223 28.9512 166.285 30.0293C165.359 31.1074 164.246 31.9336 162.945 32.5078C161.645 33.0703 160.203 33.3516 158.621 33.3516C157.051 33.3516 155.615 33.0703 154.314 32.5078C153.025 31.9336 151.906 31.1074 150.957 30.0293C150.008 28.9512 149.27 27.6445 148.742 26.1094C148.227 24.5742 147.969 22.8398 147.969 20.9062V19.5C147.969 17.5664 148.227 15.8379 148.742 14.3145C149.258 12.7793 149.984 11.4727 150.922 10.3945C151.871 9.30469 152.99 8.47852 154.279 7.91602C155.58 7.3418 157.016 7.05469 158.586 7.05469C160.168 7.05469 161.609 7.3418 162.91 7.91602C164.211 8.47852 165.33 9.30469 166.268 10.3945C167.205 11.4727 167.926 12.7793 168.43 14.3145C168.945 15.8379 169.203 17.5664 169.203 19.5ZM164.791 20.9062V19.4648C164.791 18.0352 164.65 16.7754 164.369 15.6855C164.1 14.584 163.695 13.6641 163.156 12.9258C162.629 12.1758 161.979 11.6133 161.205 11.2383C160.432 10.8516 159.559 10.6582 158.586 10.6582C157.613 10.6582 156.746 10.8516 155.984 11.2383C155.223 11.6133 154.572 12.1758 154.033 12.9258C153.506 13.6641 153.102 14.584 152.82 15.6855C152.539 16.7754 152.398 18.0352 152.398 19.4648V20.9062C152.398 22.3359 152.539 23.6016 152.82 24.7031C153.102 25.8047 153.512 26.7363 154.051 27.498C154.602 28.248 155.258 28.8164 156.02 29.2031C156.781 29.5781 157.648 29.7656 158.621 29.7656C159.605 29.7656 160.479 29.5781 161.24 29.2031C162.002 28.8164 162.646 28.248 163.174 27.498C163.701 26.7363 164.1 25.8047 164.369 24.7031C164.65 23.6016 164.791 22.3359 164.791 20.9062ZM173.615 7.40625H182.668C184.613 7.40625 186.271 7.69922 187.643 8.28516C189.014 8.87109 190.062 9.73828 190.789 10.8867C191.527 12.0234 191.896 13.4297 191.896 15.1055C191.896 16.3828 191.662 17.5078 191.193 18.4805C190.725 19.4531 190.062 20.2734 189.207 20.9414C188.352 21.5977 187.332 22.1074 186.148 22.4707L184.812 23.1211H176.674L176.639 19.623H182.738C183.793 19.623 184.672 19.4355 185.375 19.0605C186.078 18.6855 186.605 18.1758 186.957 17.5312C187.32 16.875 187.502 16.1367 187.502 15.3164C187.502 14.4258 187.326 13.6523 186.975 12.9961C186.635 12.3281 186.107 11.8184 185.393 11.4668C184.678 11.1035 183.77 10.9219 182.668 10.9219H178.027V33H173.615V7.40625ZM188.223 33L182.211 21.5039L186.834 21.4863L192.934 32.7715V33H188.223ZM221.287 29.502V33H208.438V29.502H221.287ZM209.668 7.40625V33H205.256V7.40625H209.668ZM229.408 7.40625V33H224.996V7.40625H229.408ZM239.305 7.40625V33H234.893V7.40625H239.305ZM249.746 18.6035V22.1016H238.18V18.6035H249.746ZM251.205 7.40625V10.9219H238.18V7.40625H251.205ZM271.473 29.502V33H257.885V29.502H271.473ZM259.133 7.40625V33H254.721V7.40625H259.133ZM269.697 18.0938V21.5391H257.885V18.0938H269.697ZM271.385 7.40625V10.9219H257.885V7.40625H271.385ZM285.957 7.40625V33H281.58V7.40625H285.957ZM293.99 7.40625V10.9219H273.617V7.40625H293.99ZM302.076 7.40625V33H297.664V7.40625H302.076ZM309.354 7.40625H313.291L320.691 27.1465L328.074 7.40625H332.012L322.238 33H319.109L309.354 7.40625ZM307.561 7.40625H311.305L311.955 24.4922V33H307.561V7.40625ZM330.061 7.40625H333.822V33H329.41V24.4922L330.061 7.40625ZM355.812 29.502V33H342.225V29.502H355.812ZM343.473 7.40625V33H339.061V7.40625H343.473ZM354.037 18.0938V21.5391H342.225V18.0938H354.037ZM355.725 7.40625V10.9219H342.225V7.40625H355.725Z" fill="black"/>
<path d="M125 46C142.816 63.816 166.98 73.8249 192.175 73.8249C217.371 73.8249 241.534 63.816 259.35 46" stroke="#F7CD38" stroke-width="10" stroke-linecap="round"/>
<circle cx="378" cy="21" r="9" fill="white" stroke="#F7CD38" stroke-width="6"/>
<circle cx="12" cy="21" r="9" fill="white" stroke="#F7CD38" stroke-width="6"/>
</svg>
