<svg width="112" height="159" viewBox="0 0 112 159" fill="none" xmlns="http://www.w3.org/2000/svg">
<path d="M10.8711 135.938H13.0625L18.6523 149.848L24.2305 135.938H26.4336L19.4961 153H17.7852L10.8711 135.938ZM10.1562 135.938H12.0898L12.4062 146.344V153H10.1562V135.938ZM25.2031 135.938H27.1367V153H24.8867V146.344L25.2031 135.938ZM41.9492 151.16V153H32.9141V151.16H41.9492ZM33.3711 135.938V153H31.1094V135.938H33.3711ZM40.7539 143.273V145.113H32.9141V143.273H40.7539ZM41.832 135.938V137.789H32.9141V135.938H41.832ZM51.0664 137.449L45.418 153H43.1094L49.6133 135.938H51.1016L51.0664 137.449ZM55.8008 153L50.1406 137.449L50.1055 135.938H51.5938L58.1211 153H55.8008ZM55.5078 146.684V148.535H45.9219V146.684H55.5078ZM71.8555 151.16V153H60.3008V151.16H71.8555ZM71.4805 137.578L60.8398 153H59.4453V151.312L70.0742 135.938H71.4805V137.578ZM70.5195 135.938V137.789H59.5977V135.938H70.5195ZM87.6289 143.93V145.008C87.6289 146.289 87.4688 147.438 87.1484 148.453C86.8281 149.469 86.3672 150.332 85.7656 151.043C85.1641 151.754 84.4414 152.297 83.5977 152.672C82.7617 153.047 81.8242 153.234 80.7852 153.234C79.7773 153.234 78.8516 153.047 78.0078 152.672C77.1719 152.297 76.4453 151.754 75.8281 151.043C75.2188 150.332 74.7461 149.469 74.4102 148.453C74.0742 147.438 73.9062 146.289 73.9062 145.008V143.93C73.9062 142.648 74.0703 141.504 74.3984 140.496C74.7344 139.48 75.207 138.617 75.8164 137.906C76.4258 137.188 77.1484 136.641 77.9844 136.266C78.8281 135.891 79.7539 135.703 80.7617 135.703C81.8008 135.703 82.7383 135.891 83.5742 136.266C84.418 136.641 85.1406 137.188 85.7422 137.906C86.3516 138.617 86.8164 139.48 87.1367 140.496C87.4648 141.504 87.6289 142.648 87.6289 143.93ZM85.3906 145.008V143.906C85.3906 142.891 85.2852 141.992 85.0742 141.211C84.8711 140.43 84.5703 139.773 84.1719 139.242C83.7734 138.711 83.2852 138.309 82.707 138.035C82.1367 137.762 81.4883 137.625 80.7617 137.625C80.0586 137.625 79.4219 137.762 78.8516 138.035C78.2891 138.309 77.8047 138.711 77.3984 139.242C77 139.773 76.6914 140.43 76.4727 141.211C76.2539 141.992 76.1445 142.891 76.1445 143.906V145.008C76.1445 146.031 76.2539 146.938 76.4727 147.727C76.6914 148.508 77.0039 149.168 77.4102 149.707C77.8242 150.238 78.3125 150.641 78.875 150.914C79.4453 151.188 80.082 151.324 80.7852 151.324C81.5195 151.324 82.1719 151.188 82.7422 150.914C83.3125 150.641 83.793 150.238 84.1836 149.707C84.582 149.168 84.8828 148.508 85.0859 147.727C85.2891 146.938 85.3906 146.031 85.3906 145.008ZM91.0156 135.938H96.6641C97.9453 135.938 99.0273 136.133 99.9102 136.523C100.801 136.914 101.477 137.492 101.938 138.258C102.406 139.016 102.641 139.949 102.641 141.059C102.641 141.84 102.48 142.555 102.16 143.203C101.848 143.844 101.395 144.391 100.801 144.844C100.215 145.289 99.5117 145.621 98.6914 145.84L98.0586 146.086H92.75L92.7266 144.246H96.7344C97.5469 144.246 98.2227 144.105 98.7617 143.824C99.3008 143.535 99.707 143.148 99.9805 142.664C100.254 142.18 100.391 141.645 100.391 141.059C100.391 140.402 100.262 139.828 100.004 139.336C99.7461 138.844 99.3398 138.465 98.7852 138.199C98.2383 137.926 97.5312 137.789 96.6641 137.789H93.2773V153H91.0156V135.938ZM100.988 153L96.8398 145.266L99.1953 145.254L103.402 152.859V153H100.988Z" fill="black"/>
<g filter="url(#filter0_d_826_583)">
<rect x="6" width="100" height="100" rx="16.6667" fill="#1F2837"/>
<path d="M54.7886 68.6135C54.295 68.6146 53.8094 68.4896 53.3776 68.2506C52.9458 68.0115 52.5822 67.6662 52.3212 67.2473C52.0601 66.8285 51.9103 66.35 51.8859 65.857C51.8615 65.3641 51.9632 64.8731 52.1816 64.4305L69.7266 28.801C70.0632 28.1112 70.5867 27.5299 71.2376 27.1233C71.8885 26.7166 72.6406 26.501 73.4081 26.501H77.0831C78.1694 26.501 79.2112 26.9325 79.9794 27.7007C80.7475 28.4688 81.1791 29.5107 81.1791 30.597V71.7085C81.1791 72.1726 80.9947 72.6177 80.6665 72.9459C80.3383 73.2741 79.8932 73.4585 79.4291 73.4585H74.7386C74.275 73.4585 73.8303 73.2745 73.5022 72.947C73.1741 72.6195 72.9894 72.1751 72.9886 71.7115L72.9386 45.895C72.9378 45.5838 72.8315 45.2821 72.6371 45.0391C72.4428 44.7961 72.1718 44.6261 71.8684 44.557C71.565 44.4878 71.2471 44.5235 70.9667 44.6583C70.6862 44.7931 70.4596 45.0189 70.3241 45.299L59.8471 66.9715C59.6101 67.4619 59.2399 67.8757 58.7788 68.1654C58.3176 68.4552 57.7842 68.6093 57.2396 68.61L54.7886 68.6135Z" fill="#15A6BD"/>
<path d="M39.0385 73.459H32.75C32.2859 73.459 31.8408 73.2746 31.5126 72.9464C31.1844 72.6182 31 72.1731 31 71.709V67.959H35.6755V65.441H31V60.004H35.6755V57.486H31V52.0325H40.5095V49.547H31V44.0935H35.6755V41.576H31V36.139H35.6755V33.6195H31V30.596C31.0011 29.5099 31.433 28.4686 32.201 27.7007C32.9691 26.9327 34.0103 26.5009 35.0964 26.5H38.8435C39.6098 26.4999 40.3608 26.7147 41.0111 27.1201C41.6614 27.5256 42.1848 28.1053 42.522 28.7935L51.2625 46.6325C51.6288 47.3804 51.8193 48.2022 51.8193 49.035C51.8193 49.8678 51.6288 50.6896 51.2625 51.4375L41.1165 72.162C40.9275 72.552 40.6322 72.8806 40.2645 73.1101C39.8969 73.3396 39.4718 73.4605 39.0385 73.459Z" fill="#15A6BD"/>
</g>
<defs>
<filter id="filter0_d_826_583" x="0.936342" y="0" width="110.127" height="111.14" filterUnits="userSpaceOnUse" color-interpolation-filters="sRGB">
<feFlood flood-opacity="0" result="BackgroundImageFix"/>
<feColorMatrix in="SourceAlpha" type="matrix" values="0 0 0 0 0 0 0 0 0 0 0 0 0 0 0 0 0 0 127 0" result="hardAlpha"/>
<feOffset dy="6.07639"/>
<feGaussianBlur stdDeviation="2.53183"/>
<feComposite in2="hardAlpha" operator="out"/>
<feColorMatrix type="matrix" values="0 0 0 0 0.121569 0 0 0 0 0.156863 0 0 0 0 0.215686 0 0 0 0.25 0"/>
<feBlend mode="normal" in2="BackgroundImageFix" result="effect1_dropShadow_826_583"/>
<feBlend mode="normal" in="SourceGraphic" in2="effect1_dropShadow_826_583" result="shape"/>
</filter>
</defs>
</svg>
