<svg width="200" height="200" viewBox="0 0 200 200" fill="none" xmlns="http://www.w3.org/2000/svg">
<path d="M7.51562 59.334H188.262C182.78 86.534 144.41 107.602 97.8896 107.602C51.3696 107.602 12.9976 86.534 7.51562 59.334Z" fill="#C6FF00"/>
<path d="M91.5553 61.1562C94.4782 61.1562 97.3353 62.023 99.7656 63.6468C102.196 65.2706 104.09 67.5786 105.208 70.279C106.327 72.9793 106.62 75.9506 106.049 78.8173C105.479 81.6839 104.072 84.3171 102.005 86.3839C99.9382 88.4506 97.305 89.8581 94.4384 90.4283C91.5717 90.9985 88.6004 90.7059 85.9 89.5873C83.1997 88.4688 80.8917 86.5747 79.2679 84.1445C77.6441 81.7142 76.7773 78.8571 76.7773 75.9342C76.7773 72.0149 78.3343 68.256 81.1057 65.4846C83.8771 62.7132 87.636 61.1563 91.5553 61.1562V61.1562Z" fill="#B6D158"/>
<path d="M189 148H11C9.4087 148 7.88258 147.368 6.75736 146.243C5.63214 145.117 5 143.591 5 142V59C5 57.4087 5.63214 55.8826 6.75736 54.7574C7.88258 53.6321 9.4087 53 11 53H36.666V71.266C36.675 79.2197 39.8386 86.8451 45.4627 92.4693C51.0869 98.0934 58.7123 101.257 66.666 101.266H133.332C141.286 101.257 148.911 98.0934 154.535 92.4693C160.159 86.8451 163.323 79.2197 163.332 71.266V53H189C190.591 53 192.117 53.6321 193.243 54.7574C194.368 55.8826 195 57.4087 195 59V142C195 143.591 194.368 145.117 193.243 146.243C192.117 147.368 190.591 148 189 148Z" fill="#55C1C5"/>
<path d="M71.498 59.0439V101.266" stroke="#C0C0C0" stroke-width="4"/>
<path d="M128.498 59.0439V101.266" stroke="#C0C0C0" stroke-width="4"/>
</svg>
