<svg width="94" height="19" viewBox="0 0 94 19" fill="none" xmlns="http://www.w3.org/2000/svg">
<path d="M0.871094 0.9375H3.0625L8.65234 14.8477L14.2305 0.9375H16.4336L9.49609 18H7.78516L0.871094 0.9375ZM0.15625 0.9375H2.08984L2.40625 11.3438V18H0.15625V0.9375ZM15.2031 0.9375H17.1367V18H14.8867V11.3438L15.2031 0.9375ZM31.9492 16.1602V18H22.9141V16.1602H31.9492ZM23.3711 0.9375V18H21.1094V0.9375H23.3711ZM30.7539 8.27344V10.1133H22.9141V8.27344H30.7539ZM31.832 0.9375V2.78906H22.9141V0.9375H31.832ZM41.0664 2.44922L35.418 18H33.1094L39.6133 0.9375H41.1016L41.0664 2.44922ZM45.8008 18L40.1406 2.44922L40.1055 0.9375H41.5938L48.1211 18H45.8008ZM45.5078 11.6836V13.5352H35.9219V11.6836H45.5078ZM61.8555 16.1602V18H50.3008V16.1602H61.8555ZM61.4805 2.57812L50.8398 18H49.4453V16.3125L60.0742 0.9375H61.4805V2.57812ZM60.5195 0.9375V2.78906H49.5977V0.9375H60.5195ZM77.6289 8.92969V10.0078C77.6289 11.2891 77.4688 12.4375 77.1484 13.4531C76.8281 14.4688 76.3672 15.332 75.7656 16.043C75.1641 16.7539 74.4414 17.2969 73.5977 17.6719C72.7617 18.0469 71.8242 18.2344 70.7852 18.2344C69.7773 18.2344 68.8516 18.0469 68.0078 17.6719C67.1719 17.2969 66.4453 16.7539 65.8281 16.043C65.2188 15.332 64.7461 14.4688 64.4102 13.4531C64.0742 12.4375 63.9062 11.2891 63.9062 10.0078V8.92969C63.9062 7.64844 64.0703 6.50391 64.3984 5.49609C64.7344 4.48047 65.207 3.61719 65.8164 2.90625C66.4258 2.1875 67.1484 1.64062 67.9844 1.26562C68.8281 0.890625 69.7539 0.703125 70.7617 0.703125C71.8008 0.703125 72.7383 0.890625 73.5742 1.26562C74.418 1.64062 75.1406 2.1875 75.7422 2.90625C76.3516 3.61719 76.8164 4.48047 77.1367 5.49609C77.4648 6.50391 77.6289 7.64844 77.6289 8.92969ZM75.3906 10.0078V8.90625C75.3906 7.89062 75.2852 6.99219 75.0742 6.21094C74.8711 5.42969 74.5703 4.77344 74.1719 4.24219C73.7734 3.71094 73.2852 3.30859 72.707 3.03516C72.1367 2.76172 71.4883 2.625 70.7617 2.625C70.0586 2.625 69.4219 2.76172 68.8516 3.03516C68.2891 3.30859 67.8047 3.71094 67.3984 4.24219C67 4.77344 66.6914 5.42969 66.4727 6.21094C66.2539 6.99219 66.1445 7.89062 66.1445 8.90625V10.0078C66.1445 11.0312 66.2539 11.9375 66.4727 12.7266C66.6914 13.5078 67.0039 14.168 67.4102 14.707C67.8242 15.2383 68.3125 15.6406 68.875 15.9141C69.4453 16.1875 70.082 16.3242 70.7852 16.3242C71.5195 16.3242 72.1719 16.1875 72.7422 15.9141C73.3125 15.6406 73.793 15.2383 74.1836 14.707C74.582 14.168 74.8828 13.5078 75.0859 12.7266C75.2891 11.9375 75.3906 11.0312 75.3906 10.0078ZM81.0156 0.9375H86.6641C87.9453 0.9375 89.0273 1.13281 89.9102 1.52344C90.8008 1.91406 91.4766 2.49219 91.9375 3.25781C92.4062 4.01562 92.6406 4.94922 92.6406 6.05859C92.6406 6.83984 92.4805 7.55469 92.1602 8.20312C91.8477 8.84375 91.3945 9.39062 90.8008 9.84375C90.2148 10.2891 89.5117 10.6211 88.6914 10.8398L88.0586 11.0859H82.75L82.7266 9.24609H86.7344C87.5469 9.24609 88.2227 9.10547 88.7617 8.82422C89.3008 8.53516 89.707 8.14844 89.9805 7.66406C90.2539 7.17969 90.3906 6.64453 90.3906 6.05859C90.3906 5.40234 90.2617 4.82812 90.0039 4.33594C89.7461 3.84375 89.3398 3.46484 88.7852 3.19922C88.2383 2.92578 87.5312 2.78906 86.6641 2.78906H83.2773V18H81.0156V0.9375ZM90.9883 18L86.8398 10.2656L89.1953 10.2539L93.4023 17.8594V18H90.9883Z" fill="black"/>
</svg>
