<svg width="220" height="223" viewBox="0 0 220 223" fill="none" xmlns="http://www.w3.org/2000/svg">
<g filter="url(#filter0_d_530_1478)">
<rect x="10" y="0.0175781" width="200" height="200" rx="30" fill="#1F2837"/>
<path d="M107.578 137.246C106.591 137.248 105.62 136.998 104.756 136.52C103.892 136.042 103.165 135.351 102.643 134.513C102.121 133.676 101.821 132.718 101.772 131.733C101.724 130.747 101.927 129.765 102.364 128.879L137.454 57.6205C138.127 56.241 139.174 55.0784 140.476 54.2651C141.778 53.4518 143.282 53.0205 144.817 53.0205H152.167C154.339 53.0205 156.423 53.8836 157.96 55.4199C159.496 56.9562 160.359 59.0399 160.359 61.2125V143.435C160.359 144.364 159.99 145.254 159.334 145.91C158.677 146.567 157.787 146.935 156.859 146.935H147.478C146.551 146.935 145.661 146.568 145.005 145.913C144.349 145.257 143.979 144.369 143.978 143.441L143.878 91.8085C143.876 91.1862 143.664 90.5828 143.275 90.0967C142.886 89.6107 142.344 89.2708 141.738 89.1325C141.131 88.9942 140.495 89.0656 139.934 89.3351C139.373 89.6047 138.92 90.0564 138.649 90.6165L117.695 133.961C117.221 134.942 116.481 135.77 115.558 136.349C114.636 136.929 113.569 137.237 112.48 137.238L107.578 137.246Z" fill="#15A6BD"/>
<path d="M76.0769 146.936H63.5C62.5717 146.936 61.6815 146.567 61.0251 145.91C60.3688 145.254 60 144.364 60 143.436V135.936H69.3511V130.9H60V120.026H69.3511V114.99H60V104.083H79.019V99.1116H60V88.2046H69.3511V83.1696H60V72.2955H69.3511V67.2566H60V61.2096C60.0021 59.0374 60.866 56.9548 62.4021 55.4189C63.9382 53.8831 66.0207 53.0194 68.1929 53.0176H75.687C77.2196 53.0173 78.7217 53.4469 80.0222 54.2578C81.3228 55.0687 82.3696 56.2282 83.0439 57.6045L100.525 93.2826C101.258 94.7784 101.639 96.4219 101.639 98.0875C101.639 99.7532 101.258 101.397 100.525 102.893L80.2329 144.342C79.8549 145.122 79.2643 145.779 78.5291 146.238C77.7938 146.697 76.9437 146.939 76.0769 146.936Z" fill="#15A6BD"/>
</g>
<defs>
<filter id="filter0_d_530_1478" x="0" y="0.0175781" width="220" height="222" filterUnits="userSpaceOnUse" color-interpolation-filters="sRGB">
<feFlood flood-opacity="0" result="BackgroundImageFix"/>
<feColorMatrix in="SourceAlpha" type="matrix" values="0 0 0 0 0 0 0 0 0 0 0 0 0 0 0 0 0 0 127 0" result="hardAlpha"/>
<feOffset dy="12"/>
<feGaussianBlur stdDeviation="5"/>
<feComposite in2="hardAlpha" operator="out"/>
<feColorMatrix type="matrix" values="0 0 0 0 0.121569 0 0 0 0 0.156863 0 0 0 0 0.215686 0 0 0 0.25 0"/>
<feBlend mode="normal" in2="BackgroundImageFix" result="effect1_dropShadow_530_1478"/>
<feBlend mode="normal" in="SourceGraphic" in2="effect1_dropShadow_530_1478" result="shape"/>
</filter>
</defs>
</svg>
