<svg width="598" height="42" viewBox="0 0 598 42" fill="none" xmlns="http://www.w3.org/2000/svg">
<path d="M9.18177 0.984375L21.8538 26.8444L34.4538 0.984375H43.3218V41.2984H36.3078L36.2538 12.4984L24.3318 37.1584H19.3158L7.39377 12.5104V41.3104H0.259766V0.996387L9.18177 0.984375Z" fill="#15A6BD"/>
<path d="M91.0876 0.984375V7.72236H69.2596V17.6884H88.8376V24.4264H69.2596V34.5604H91.7776V41.2984H61.5376V0.984375H91.0876Z" fill="#15A6BD"/>
<path d="M134.114 32.7784H114.416L110.846 41.2984H102.86L120.548 0.984375H128.552L146 41.2984H137.66L134.114 32.7784ZM131.348 26.1784L124.322 9.24639L117.182 26.1784H131.348Z" fill="#15A6BD"/>
<path d="M190.328 0.982715V6.38271L166.598 34.5467H190.598V41.2847H156.158V35.8187L179.888 7.70876H156.86L156.92 0.970703L190.328 0.982715Z" fill="#15A6BD"/>
<path d="M245.624 21.1441C245.624 32.7181 236.294 41.6461 224.144 41.6461C211.994 41.6461 202.658 32.7181 202.658 21.1441C202.658 9.57014 211.988 0.744141 224.144 0.744141C236.3 0.744141 245.624 9.55814 245.624 21.1441ZM210.548 21.1441C210.565 24.7661 212.018 28.2332 214.588 30.7853C217.158 33.3374 220.636 34.7661 224.258 34.7581C226.925 34.7238 229.523 33.9022 231.724 32.3966C233.926 30.8909 235.634 28.7682 236.633 26.2951C237.633 23.822 237.879 21.1088 237.342 18.4961C236.805 15.8834 235.507 13.4877 233.613 11.6098C231.718 9.73201 229.311 8.45578 226.694 7.94136C224.077 7.42694 221.366 7.69729 218.902 8.71846C216.437 9.73963 214.33 11.4661 212.844 13.6811C211.357 15.896 210.559 18.5007 210.548 21.1681V21.1441Z" fill="#15A6BD"/>
<path d="M285.89 41.2988L278.918 29.3588C278.439 29.41 277.958 29.43 277.478 29.4187H268.382V41.2808H260.66V0.966797H277.46C287.888 0.966797 293.816 5.9768 293.816 14.8448C293.816 21.1808 290.996 25.7347 285.812 27.9187L294.68 41.2808L285.89 41.2988ZM268.382 22.6388H277.46C283.22 22.6388 286.46 20.1668 286.46 15.0968C286.46 10.1408 283.232 7.72273 277.46 7.72273H268.382V22.6388Z" fill="#15A6BD"/>
<path d="M362.324 32.7784H342.626L339.026 41.2984H331.046L348.728 0.984375H356.738L374.186 41.2984H365.894L362.324 32.7784ZM359.558 26.1784L352.532 9.24639L345.392 26.1784H359.558Z" fill="#040000"/>
<path d="M416.738 14.8624C416.738 24.0784 410.924 29.4364 400.784 29.4364H391.994V41.2984H384.26V0.984375H400.784C410.924 0.984375 416.738 5.99438 416.738 14.8624ZM409.424 15.0964C409.424 10.1404 406.142 7.72236 400.382 7.72236H391.994V22.6384H400.394C406.142 22.6384 409.424 20.1664 409.424 15.0964Z" fill="#040000"/>
<path d="M463.856 14.8624C463.856 24.0784 458.042 29.4364 447.902 29.4364H439.088V41.2984H431.372V0.984375H447.902C458.042 0.984375 463.856 5.99438 463.856 14.8624ZM456.542 15.0964C456.542 10.1404 453.26 7.72236 447.5 7.72236H439.1V22.6384H447.5C453.26 22.6384 456.542 20.1664 456.542 15.0964Z" fill="#040000"/>
<path d="M521.972 12.042C521.972 9.04202 519.572 7.32002 515.522 7.32002C511.922 7.32002 507.722 9.27599 504.236 12.39L501.128 6.45598C505.79 2.76598 511.148 0.582031 516.62 0.582031C524.57 0.582031 530.036 4.61399 530.036 10.89C530.036 15.036 526.868 19.59 522.38 24.192L511.994 34.506H531.794V41.298H501.932V35.712L517.136 20.046C520.016 17.226 521.972 14.172 521.972 12.042Z" fill="#040000"/>
<path d="M553.25 37.6136C553.25 40.0136 551.582 41.8136 549.278 41.8136C546.974 41.8136 545.36 40.0136 545.36 37.6136C545.34 37.0826 545.426 36.5528 545.615 36.0562C545.804 35.5595 546.092 35.106 546.46 34.723C546.828 34.34 547.27 34.0352 547.759 33.8271C548.248 33.619 548.774 33.5117 549.305 33.5117C549.837 33.5117 550.363 33.619 550.852 33.8271C551.341 34.0352 551.783 34.34 552.151 34.723C552.519 35.106 552.807 35.5595 552.996 36.0562C553.184 36.5528 553.271 37.0826 553.25 37.6136Z" fill="#040000"/>
<path d="M597.14 21.0836C597.14 34.2176 591.668 41.5316 581.822 41.5316C571.976 41.5316 566.444 34.2176 566.444 21.0836C566.444 7.94959 571.916 0.683594 581.822 0.683594C591.728 0.683594 597.14 7.94959 597.14 21.0836ZM574.046 21.0836C574.046 31.0496 576.578 35.5976 581.846 35.5976C587.114 35.5976 589.562 31.0496 589.562 21.0836C589.562 11.1176 587.03 6.62961 581.846 6.62961C576.662 6.62961 574.046 11.1176 574.046 21.0836Z" fill="#040000"/>
</svg>
