<svg width="737" height="47" viewBox="0 0 737 47" fill="none" xmlns="http://www.w3.org/2000/svg">
<path d="M676.181 31.8516C676.181 40.2204 669.396 46.0482 658.631 46.0482C652.612 46.0482 646.276 44.0681 642.131 41.0387L645.616 34.1352C648.992 37.2285 653.393 38.9655 657.971 39.0126C664.241 39.0126 667.871 36.2868 667.871 31.9836C667.871 27.5484 664.195 25.2648 657.925 25.2648H651.154V20.3874L663.509 8.66575H644.415L644.356 1.31995H673.943V6.59995L660.255 19.5624L662.789 19.8198C670.815 20.6382 676.181 24.8886 676.181 31.8516Z" fill="#040000"/>
<path d="M736.155 23.4894C736.155 36.4188 726.393 45.6653 712.712 45.6653H694.615V1.31995H713.055C726.486 1.31995 736.155 10.5072 736.155 23.4894ZM727.469 23.5553C727.469 14.8763 721.199 8.79115 712.897 8.79115H703.109V38.1876H713.246C721.417 38.1876 727.496 32.1749 727.496 23.5553H727.469Z" fill="#040000"/>
<path d="M377.656 45.0516C376.995 45.0543 376.345 44.8916 375.763 44.5784C375.181 44.2651 374.687 43.8113 374.325 43.2582C373.964 42.7052 373.747 42.0705 373.693 41.4119C373.64 40.7534 373.752 40.0919 374.02 39.4878L389.787 3.53104C390.096 2.82371 390.604 2.22201 391.25 1.79989C391.896 1.37777 392.652 1.15363 393.423 1.15504H396.935C397.709 1.15531 398.466 1.38237 399.112 1.80816C399.758 2.23396 400.266 2.83981 400.571 3.55084L416.147 39.5076C416.411 40.1119 416.52 40.7724 416.464 41.4292C416.407 42.0861 416.188 42.7185 415.826 43.2692C415.463 43.8198 414.969 44.2713 414.388 44.5825C413.806 44.8938 413.157 45.055 412.498 45.0516H412.161C411.377 45.0527 410.611 44.8213 409.959 44.3866C409.307 43.9518 408.798 43.3334 408.498 42.6096L397.654 16.5792C397.431 16.0481 397.056 15.5946 396.577 15.2757C396.097 14.9568 395.534 14.7867 394.958 14.7867C394.382 14.7867 393.819 14.9568 393.339 15.2757C392.86 15.5946 392.485 16.0481 392.262 16.5792L381.319 42.6228C381.017 43.3442 380.507 43.9598 379.855 44.392C379.204 44.8243 378.438 45.0538 377.656 45.0516Z" fill="#040000"/>
<path d="M470.406 4.82472V5.70912C470.407 6.57637 470.101 7.41598 469.541 8.07852L447.101 34.7293C446.879 34.9948 446.737 35.318 446.692 35.6611C446.648 36.0042 446.701 36.353 446.847 36.6667C446.994 36.9803 447.226 37.2459 447.517 37.4323C447.809 37.6187 448.148 37.7182 448.494 37.7191H467.073C467.554 37.7183 468.031 37.8124 468.475 37.9962C468.92 38.18 469.324 38.4497 469.665 38.7901C470.005 39.1304 470.275 39.5345 470.459 39.9793C470.642 40.4241 470.736 40.9009 470.736 41.3821C470.736 41.8637 470.642 42.3407 470.459 42.7859C470.275 43.2311 470.005 43.6357 469.665 43.9765C469.325 44.3174 468.921 44.5878 468.476 44.7723C468.031 44.9568 467.554 45.0517 467.073 45.0517H436.871C436.389 45.0517 435.913 44.9568 435.468 44.7723C435.023 44.5878 434.619 44.3174 434.279 43.9765C433.938 43.6357 433.669 43.2311 433.485 42.7859C433.301 42.3407 433.207 41.8637 433.208 41.3821V40.4383C433.208 39.5713 433.514 38.7321 434.073 38.0689L456.513 11.4775C456.735 11.2132 456.877 10.8909 456.923 10.5485C456.968 10.2061 456.915 9.85782 456.77 9.54458C456.624 9.23133 456.392 8.96611 456.101 8.78008C455.81 8.59404 455.472 8.49491 455.127 8.49432H437.67C437.185 8.49347 436.706 8.39687 436.259 8.21009C435.812 8.0233 435.406 7.75002 435.065 7.40593C434.724 7.06185 434.454 6.65376 434.272 6.20513C434.089 5.75649 433.997 5.27615 434 4.79172C434.009 3.82422 434.399 2.89929 435.086 2.21823C435.774 1.53717 436.702 1.15509 437.67 1.15512H466.71C467.194 1.15164 467.674 1.24399 468.122 1.42684C468.57 1.6097 468.978 1.87945 469.322 2.22055C469.665 2.56165 469.938 2.96736 470.124 3.4143C470.31 3.86125 470.406 4.3406 470.406 4.82472Z" fill="#040000"/>
<path d="M534.182 23.1C534.182 35.706 524.018 45.4212 510.791 45.4212C497.565 45.4212 487.401 35.7126 487.401 23.1C487.401 10.4874 497.591 0.904175 510.791 0.904175C523.991 0.904175 534.182 10.5006 534.182 23.1ZM495.987 23.1C496.014 27.0392 497.599 30.8077 500.397 33.5809C503.195 36.354 506.977 37.906 510.917 37.8972C513.821 37.8594 516.649 36.9646 519.046 35.325C521.443 33.6855 523.302 31.3743 524.39 28.6816C525.478 25.989 525.746 23.0349 525.161 20.1904C524.575 17.3458 523.163 14.7376 521.1 12.6932C519.037 10.6489 516.417 9.25943 513.567 8.69942C510.717 8.13941 507.766 8.43379 505.083 9.54559C502.4 10.6574 500.106 12.537 498.487 14.9485C496.869 17.36 495.999 20.1959 495.987 23.1Z" fill="#040000"/>
<path d="M572.429 24.7368C578.699 24.7368 582.21 22.0374 582.21 16.5198C582.21 11.1276 578.699 8.49423 572.429 8.49423H564.119C563.696 8.49423 563.289 8.66251 562.99 8.96204C562.69 9.26157 562.522 9.66783 562.522 10.0914V43.4544C562.522 43.8735 562.358 44.2758 562.064 44.5746C561.77 44.8734 561.37 45.0447 560.951 45.0516H555.737C555.528 45.0516 555.321 45.0103 555.127 44.9299C554.934 44.8496 554.758 44.7318 554.61 44.5834C554.462 44.435 554.345 44.2589 554.266 44.0652C554.186 43.8714 554.146 43.6639 554.147 43.4544V2.75223C554.147 2.32977 554.314 1.92451 554.612 1.62517C554.91 1.32582 555.315 1.15678 555.737 1.15503H572.455C583.807 1.15503 590.275 6.61323 590.275 16.269C590.275 22.4994 587.774 27.1392 583.134 29.7396C582.941 29.8456 582.771 29.9904 582.637 30.1649C582.502 30.3395 582.405 30.54 582.352 30.7539C582.299 30.9678 582.29 31.1904 582.327 31.4077C582.364 31.625 582.445 31.8323 582.566 32.0166L589.576 42.5766C589.733 42.8164 589.824 43.0943 589.837 43.3811C589.85 43.6678 589.786 43.9528 589.651 44.2061C589.515 44.4594 589.315 44.6716 589.069 44.8204C588.824 44.9692 588.543 45.0491 588.256 45.0516H582.553C582.275 45.0517 582.001 44.9793 581.759 44.8415C581.518 44.7038 581.316 44.5056 581.174 44.2662L571.063 27.1392C570.919 26.8978 570.842 26.6229 570.84 26.3422C570.837 26.0615 570.909 25.7851 571.048 25.5411C571.186 25.2971 571.387 25.0942 571.63 24.9529C571.872 24.8117 572.148 24.7371 572.429 24.7368Z" fill="#040000"/>
<path d="M356.457 19.3578H328.446C327.09 19.3578 325.991 20.457 325.991 21.813V24.2286C325.991 25.5846 327.09 26.6838 328.446 26.6838H356.457C357.813 26.6838 358.912 25.5846 358.912 24.2286V21.813C358.912 20.457 357.813 19.3578 356.457 19.3578Z" fill="#040000"/>
<path d="M356.457 1.15503H328.446C327.09 1.15503 325.991 2.25426 325.991 3.61023V6.02583C325.991 7.3818 327.09 8.48103 328.446 8.48103H356.457C357.813 8.48103 358.912 7.3818 358.912 6.02583V3.61023C358.912 2.25426 357.813 1.15503 356.457 1.15503Z" fill="#040000"/>
<path d="M356.457 37.5543H328.446C327.09 37.5543 325.991 38.6535 325.991 40.0095V42.4251C325.991 43.7811 327.09 44.8803 328.446 44.8803H356.457C357.813 44.8803 358.912 43.7811 358.912 42.4251V40.0095C358.912 38.6535 357.813 37.5543 356.457 37.5543Z" fill="#040000"/>
<path d="M76.9335 28.9478C76.9809 30.882 77.6163 32.756 78.7551 34.3202C79.1989 34.9188 79.7154 35.4597 80.2929 35.9306C82.1055 37.3652 84.3644 38.1173 86.6751 38.0558C88.3687 38.0792 90.0495 37.7604 91.6168 37.1185C93.1842 36.4766 94.6058 35.5248 95.7963 34.3202L98.9511 37.6202C99.1197 37.8 99.2504 38.0119 99.3356 38.2432C99.4207 38.4745 99.4585 38.7205 99.4469 38.9667C99.4352 39.2129 99.3742 39.4542 99.2675 39.6764C99.1608 39.8986 99.0106 40.0971 98.8257 40.2602C95.5257 43.1048 91.1367 44.735 85.9491 44.735C75.4353 44.735 68.5317 37.772 68.5317 27.575C68.5317 17.246 75.6267 10.2764 85.7643 10.2764C94.8789 10.2764 100.027 14.8436 101.571 22.4996C101.756 23.45 101.73 24.4295 101.494 25.3686C101.258 26.3077 100.818 27.1834 100.206 27.9335C99.594 28.6837 98.8242 29.2899 97.9514 29.7093C97.0787 30.1287 96.1244 30.3509 95.1561 30.3602H85.9161C85.6749 30.3602 85.4361 30.3125 85.2135 30.2198C84.9908 30.1271 84.7887 29.9912 84.6187 29.82C84.4488 29.6489 84.3144 29.4458 84.2233 29.2224C84.1322 28.9991 84.0862 28.76 84.0879 28.5188L84.1275 24.8492H92.4501C92.7241 24.8513 92.995 24.7907 93.242 24.672C93.489 24.5533 93.7055 24.3796 93.8749 24.1642C94.0444 23.9489 94.1623 23.6976 94.2197 23.4297C94.277 23.1617 94.2722 22.8842 94.2057 22.6184C93.2355 18.9224 90.1731 16.6784 85.8501 16.6784C83.9419 16.6448 82.0714 17.2128 80.5041 18.302C79.5052 19.0154 78.6722 19.9362 78.0621 21.0014C77.1774 22.5728 76.752 24.3611 76.8345 26.1626L76.9335 28.9478Z" fill="#040000"/>
<path d="M126.955 28.9478C127.002 30.882 127.638 32.756 128.777 34.3202C129.22 34.9188 129.737 35.4597 130.314 35.9306C132.127 37.3652 134.386 38.1173 136.697 38.0558C138.389 38.0783 140.069 37.7591 141.635 37.1172C143.201 36.4753 144.621 35.524 145.811 34.3202L148.992 37.6202C149.162 37.7996 149.293 38.0113 149.379 38.2427C149.465 38.4741 149.503 38.7204 149.491 38.9668C149.479 39.2133 149.418 39.4549 149.311 39.6771C149.204 39.8993 149.053 40.0976 148.867 40.2602C145.567 43.1048 141.178 44.735 135.997 44.735C125.477 44.735 118.573 37.772 118.573 27.575C118.573 17.246 125.668 10.2764 135.806 10.2764C144.92 10.2764 150.068 14.8436 151.646 22.4996C151.832 23.4565 151.804 24.4429 151.563 25.3877C151.323 26.3325 150.876 27.2123 150.255 27.9639C149.634 28.7155 148.854 29.3202 147.972 29.7345C147.089 30.1489 146.126 30.3625 145.151 30.3602H135.911C135.67 30.3611 135.431 30.3139 135.207 30.2215C134.984 30.1292 134.782 29.9933 134.612 29.822C134.442 29.6507 134.307 29.4472 134.217 29.2235C134.126 28.9997 134.08 28.7602 134.083 28.5188L134.116 24.8492H142.439C142.713 24.851 142.984 24.7903 143.231 24.6716C143.478 24.5529 143.695 24.3794 143.865 24.1643C144.035 23.9492 144.153 23.6981 144.211 23.4302C144.27 23.1623 144.266 22.8846 144.201 22.6184C143.224 18.9224 140.162 16.6784 135.839 16.6784C133.93 16.6448 132.06 17.2128 130.493 18.302C129.494 19.0154 128.661 19.9362 128.051 21.0014C127.165 22.5722 126.742 24.3615 126.83 26.1626L126.955 28.9478Z" fill="#040000"/>
<path d="M174.257 2.64001H180.197C180.565 2.64001 180.918 2.78604 181.178 3.04596C181.437 3.30589 181.583 3.65842 181.583 4.02601V33.2046C181.583 36.4386 182.903 37.5144 185.128 37.5144C186.816 37.4085 188.461 36.9331 189.946 36.1218L191.101 39.8904C191.326 40.5995 191.281 41.3669 190.974 42.0446C190.667 42.7222 190.119 43.2621 189.437 43.56C187.515 44.3694 185.451 44.7911 183.365 44.8008C177.848 44.8008 173.413 41.6328 173.413 34.6632V19.3248C173.414 19.1431 173.379 18.963 173.31 18.7949C173.241 18.6268 173.139 18.4739 173.011 18.3452C172.883 18.2164 172.73 18.1142 172.563 18.0444C172.395 17.9747 172.215 17.9388 172.033 17.9388H170.053C169.688 17.9371 169.339 17.7924 169.08 17.5356C168.821 17.2789 168.672 16.9308 168.667 16.566L168.628 12.2628C168.62 12.0334 168.672 11.8059 168.779 11.6028L173.05 3.33961C173.172 3.12704 173.348 2.95041 173.56 2.82757C173.772 2.70473 174.012 2.64004 174.257 2.64001Z" fill="#040000"/>
<path d="M11.7917 2.1714L23.2955 25.6476C23.4244 25.9125 23.6252 26.1357 23.8749 26.292C24.1247 26.4482 24.4133 26.531 24.7079 26.531C25.0024 26.531 25.2911 26.4482 25.5408 26.292C25.7906 26.1357 25.9914 25.9125 26.1203 25.6476L37.5713 2.178C37.8907 1.52566 38.3864 0.975842 39.0023 0.590886C39.6183 0.20593 40.3297 0.00123251 41.0561 0L44.5409 0C45.5701 0 46.5572 0.408869 47.285 1.13666C48.0128 1.86445 48.4217 2.85155 48.4217 3.8808V42.8208C48.4217 43.0389 48.3786 43.2549 48.2949 43.4563C48.2113 43.6577 48.0887 43.8406 47.9341 43.9945C47.7796 44.1485 47.5962 44.2703 47.3944 44.3532C47.1927 44.4361 46.9766 44.4783 46.7585 44.4774H42.3167C41.8784 44.4774 41.4581 44.3038 41.1476 43.9945C40.8371 43.6853 40.6618 43.2656 40.6601 42.8274L40.6139 17.589C40.6134 17.3336 40.5263 17.0859 40.3668 16.8864C40.2073 16.6869 39.9849 16.5474 39.7358 16.4907C39.4868 16.434 39.2259 16.4635 38.9958 16.5743C38.7656 16.685 38.5799 16.8706 38.4689 17.1006L28.5029 37.7256C28.1869 38.3789 27.6942 38.9305 27.0805 39.3178C26.4669 39.7052 25.7569 39.9127 25.0313 39.9168H24.3713C23.6422 39.9164 22.9281 39.7106 22.3106 39.3231C21.6931 38.9355 21.1973 38.3819 20.8799 37.7256L10.8941 17.16C10.7809 16.9331 10.5945 16.751 10.3652 16.643C10.1358 16.5349 9.87672 16.5072 9.62971 16.5644C9.3827 16.6216 9.16213 16.7603 9.00357 16.9581C8.845 17.156 8.75768 17.4015 8.75567 17.655V42.834C8.75567 43.2734 8.58113 43.6947 8.27046 44.0054C7.95979 44.3161 7.53842 44.4906 7.09907 44.4906H2.53187C2.09251 44.4906 1.67115 44.3161 1.36047 44.0054C1.0498 43.6947 0.875267 43.2734 0.875267 42.834V3.894C0.873529 3.38326 0.972627 2.87719 1.16688 2.40483C1.36113 1.93246 1.64671 1.50309 2.00725 1.14132C2.36779 0.779558 2.79619 0.492519 3.26789 0.296666C3.7396 0.100813 4.24532 -2.95442e-06 4.75607 0L8.30687 0C9.0325 0.000626319 9.74347 0.204339 10.3593 0.588085C10.9752 0.971831 11.4714 1.52029 11.7917 2.1714Z" fill="#040000"/>
<path d="M263.008 2.55426L274.511 26.0305C274.64 26.2953 274.841 26.5186 275.091 26.6748C275.341 26.831 275.629 26.9138 275.924 26.9138C276.218 26.9138 276.507 26.831 276.757 26.6748C277.006 26.5186 277.207 26.2953 277.336 26.0305L288.781 2.56086C289.1 1.90751 289.597 1.35703 290.214 0.972004C290.832 0.586979 291.544 0.382862 292.272 0.382863H295.75C296.779 0.382863 297.766 0.791732 298.494 1.51952C299.222 2.24731 299.631 3.23441 299.631 4.26366V43.2037C299.634 43.4229 299.593 43.6404 299.511 43.8437C299.428 44.047 299.307 44.2319 299.153 44.3879C298.999 44.5438 298.815 44.6676 298.613 44.7521C298.411 44.8366 298.194 44.8801 297.974 44.8801H293.533C293.094 44.8783 292.673 44.7032 292.363 44.3929C292.053 44.0826 291.878 43.6623 291.876 43.2235L291.823 17.9851C291.826 17.7286 291.741 17.4789 291.583 17.2774C291.424 17.076 291.201 16.935 290.951 16.8779C290.701 16.8208 290.439 16.851 290.209 16.9636C289.978 17.0762 289.793 17.2643 289.685 17.4967L279.719 38.1085C279.401 38.7658 278.904 39.3201 278.285 39.7077C277.666 40.0953 276.951 40.3005 276.221 40.2997H275.561C274.832 40.2992 274.118 40.0935 273.5 39.7059C272.883 39.3184 272.387 38.7648 272.069 38.1085L262.11 17.5231C262.001 17.2907 261.816 17.1026 261.586 16.99C261.356 16.8774 261.094 16.8472 260.844 16.9043C260.594 16.9614 260.371 17.1024 260.212 17.3038C260.053 17.5053 259.968 17.755 259.972 18.0115V43.2169C259.972 43.6568 259.797 44.0789 259.487 44.3906C259.176 44.7023 258.755 44.8783 258.315 44.8801H253.748C253.528 44.8827 253.31 44.8416 253.106 44.7591C252.902 44.6766 252.717 44.5544 252.561 44.3996C252.405 44.2448 252.281 44.0605 252.197 43.8575C252.113 43.6544 252.07 43.4366 252.071 43.2169V4.27686C252.07 3.76445 252.169 3.25676 252.365 2.7831C252.56 2.30944 252.848 1.87918 253.21 1.51715C253.573 1.15512 254.004 0.868498 254.478 0.673815C254.952 0.479132 255.46 0.380246 255.972 0.382863H259.523C260.248 0.383489 260.959 0.587202 261.575 0.970948C262.191 1.35469 262.687 1.90315 263.008 2.55426Z" fill="#040000"/>
<path d="M184.17 11.9193H191.628C191.843 11.9193 192.054 11.9615 192.252 12.0434C192.45 12.1253 192.63 12.2454 192.781 12.3968C192.933 12.5482 193.053 12.7279 193.135 12.9257C193.216 13.1234 193.259 13.3354 193.259 13.5495V16.3083C193.259 16.5224 193.216 16.7344 193.135 16.9322C193.053 17.1299 192.933 17.3097 192.781 17.461C192.63 17.6124 192.45 17.7325 192.252 17.8144C192.054 17.8963 191.843 17.9385 191.628 17.9385H184.17V11.9193Z" fill="#040000"/>
</svg>
