<svg width="40" height="40" viewBox="0 0 40 40" fill="none" xmlns="http://www.w3.org/2000/svg">
<g clip-path="url(#clip0_726_927)">
<path d="M39.6264 12.9133L19.9997 25.9933L0.373047 12.9133C0.62638 12.42 1.00638 11.9867 1.48638 11.6733L18.153 0.56C19.273 -0.186667 20.7264 -0.186667 21.8464 0.56L38.513 11.6733C38.993 11.9867 39.373 12.42 39.6264 12.9133Z" fill="#2166CC"/>
<path d="M29.9998 37.6934H9.99984C8.15984 37.6934 6.6665 36.2001 6.6665 34.3601V14.3601C6.6665 12.5201 8.15984 11.0267 9.99984 11.0267H29.9998C31.8398 11.0267 33.3332 12.5201 33.3332 14.3601V34.3601C33.3332 36.2001 31.8398 37.6934 29.9998 37.6934Z" fill="white"/>
<path d="M14.0003 17.6934H11.3337C10.967 17.6934 10.667 17.3934 10.667 17.0267V14.36C10.667 13.9934 10.967 13.6934 11.3337 13.6934H14.0003C14.367 13.6934 14.667 13.9934 14.667 14.36V17.0267C14.667 17.3934 14.367 17.6934 14.0003 17.6934Z" fill="#4E8DF6"/>
<path d="M37.6333 37.7533C36.4733 38.7333 34.9733 39.3267 33.3333 39.3267H6.66667C5.02667 39.3267 3.52667 38.7333 2.36667 37.7533C0.92 36.5267 0 34.7 0 32.66V14.4467C0 13.9067 0.133333 13.38 0.373333 12.9133L20 25.9933L37.6333 37.7533Z" fill="#629FF9"/>
<path d="M40 14.4467V32.66C40 34.7 39.08 36.5267 37.6333 37.7533L20 25.9933L39.6267 12.9133C39.8667 13.38 40 13.9067 40 14.4467Z" fill="#4E8DF6"/>
<path d="M24.6668 15.0267H18.0002C17.6335 15.0267 17.3335 14.7267 17.3335 14.36C17.3335 13.9934 17.6335 13.6934 18.0002 13.6934H24.6668C25.0335 13.6934 25.3335 13.9934 25.3335 14.36C25.3335 14.7267 25.0335 15.0267 24.6668 15.0267Z" fill="#E1E1DF"/>
<path d="M27.3335 17.6933H18.0002C17.6335 17.6933 17.3335 17.3933 17.3335 17.0267C17.3335 16.66 17.6335 16.36 18.0002 16.36H27.3335C27.7002 16.36 28.0002 16.66 28.0002 17.0267C28.0002 17.3933 27.7002 17.6933 27.3335 17.6933Z" fill="#E1E1DF"/>
</g>
<defs>
<clipPath id="clip0_726_927">
<rect width="40" height="39.3267" fill="white"/>
</clipPath>
</defs>
</svg>
