<svg width="200" height="200" viewBox="0 0 200 200" fill="none" xmlns="http://www.w3.org/2000/svg">
<path d="M184 166.996H16C15.4696 166.996 14.9609 166.785 14.5858 166.41C14.2107 166.035 14 165.527 14 164.996V138.996C14 138.466 14.2107 137.957 14.5858 137.582C14.9609 137.207 15.4696 136.996 16 136.996H34V145.664C34 146.46 34.3161 147.223 34.8787 147.785C35.4413 148.348 36.2044 148.664 37 148.664C37.7956 148.664 38.5587 148.348 39.1213 147.785C39.6839 147.223 40 146.46 40 145.664V136.996H54V151.496C54 152.292 54.3161 153.055 54.8787 153.617C55.4413 154.18 56.2043 154.496 57 154.496C57.7957 154.496 58.5587 154.18 59.1213 153.617C59.6839 153.055 60 152.292 60 151.496V136.996H76V145.664C76 146.46 76.3161 147.223 76.8787 147.785C77.4413 148.348 78.2044 148.664 79 148.664C79.7956 148.664 80.5587 148.348 81.1213 147.785C81.6839 147.223 82 146.46 82 145.664V136.996H96V151.496C96 152.292 96.3161 153.055 96.8787 153.617C97.4413 154.18 98.2044 154.496 99 154.496C99.7956 154.496 100.559 154.18 101.121 153.617C101.684 153.055 102 152.292 102 151.496V136.996H116V145.664C116 146.46 116.316 147.223 116.879 147.785C117.441 148.348 118.204 148.664 119 148.664C119.796 148.664 120.559 148.348 121.121 147.785C121.684 147.223 122 146.46 122 145.664V136.996H138V151.496C138 152.292 138.316 153.055 138.879 153.617C139.441 154.18 140.204 154.496 141 154.496C141.796 154.496 142.559 154.18 143.121 153.617C143.684 153.055 144 152.292 144 151.496V136.996H158V145.664C158 146.46 158.316 147.223 158.879 147.785C159.441 148.348 160.204 148.664 161 148.664C161.796 148.664 162.559 148.348 163.121 147.785C163.684 147.223 164 146.46 164 145.664V136.996H184C184.53 136.996 185.039 137.207 185.414 137.582C185.789 137.957 186 138.466 186 138.996V164.996C186 165.527 185.789 166.035 185.414 166.41C185.039 166.785 184.53 166.996 184 166.996Z" fill="#55C1C5"/>
<path d="M14.002 128.052V119C15.902 70.75 53.602 33 100.002 33C146.402 33 184.192 70.75 186.002 119V128.054L14.002 128.052ZM174.55 116.782C174.313 113.274 173.85 109.786 173.164 106.338L170.974 106.902L168.724 98.134L170.896 97.576C169.821 94.2159 168.524 90.9313 167.012 87.744L161.296 91.042L156.772 83.2L162.664 79.8C160.95 77.0573 159.067 74.4242 157.026 71.916L155.002 73.9L148.664 67.432L150.906 65.232C148.301 62.7064 145.517 60.3717 142.576 58.246L138.68 65L130.84 60.474L134.916 53.4C131.979 51.78 128.934 50.364 125.802 49.162L124.648 53.3L115.922 50.866L117.152 46.456C113.509 45.5611 109.803 44.9506 106.066 44.63V53.73H97.014V44.412C93.5726 44.5399 90.1447 44.9115 86.756 45.524L88.066 50.618L79.2999 52.866L77.968 47.69C74.3394 48.8316 70.8065 50.2573 67.402 51.954L72.218 60.298L64.378 64.824L59.564 56.482C56.671 58.4022 53.9156 60.522 51.318 62.826L55.032 66.616L48.568 72.954L44.916 69.226C42.4106 72.0487 40.1158 75.0514 38.05 78.21L46.202 82.912L41.676 90.752L33.54 86.058C31.9907 89.1554 30.6458 92.3509 29.514 95.624L34.486 97.01L32.048 105.728L27.038 104.328C26.1188 108.427 25.5137 112.589 25.228 116.78L174.55 116.782ZM25.226 116.782H25.182H25.226Z" fill="#55C1C5"/>
<path d="M145.707 116.292H139.823C139.823 95.9036 122.239 79.3776 100.551 79.3776C78.8625 79.3776 61.2785 95.9056 61.2785 116.292H55.4785C55.4785 92.8716 75.6785 73.8916 100.595 73.8916C125.511 73.8916 145.707 92.8716 145.707 116.292Z" fill="#FF5D5D"/>
</svg>
