<svg width="204" height="108" viewBox="0 0 204 108" fill="none" xmlns="http://www.w3.org/2000/svg">
<path fill-rule="evenodd" clip-rule="evenodd" d="M46.0571 105.975C29.482 103.675 17.4153 90.6078 11.9101 72.7461C9.64852 65.3535 9.32119 57.1544 10.1098 48.582C11.5679 33.2741 18.5758 19.9824 28.7976 10.2899C28.8422 10.2451 28.8571 10.2302 28.872 10.275C28.9018 10.3198 28.991 10.3646 29.0357 10.3944C29.0952 10.4243 29.1101 10.3944 29.0654 10.4691C18.2187 20.4304 11.2554 36.276 10.4966 52.2858C9.32119 75.1506 20.3911 95.4018 36.981 102.376C39.7633 103.556 42.6796 104.452 45.7149 104.915C45.9232 105.184 46.0422 105.557 46.0571 105.975Z" fill="black"/>
<path fill-rule="evenodd" clip-rule="evenodd" d="M4.7385 67.7878C6.09248 69.4008 8.24991 70.9838 10.571 70.3715C10.69 70.5507 11.3001 71.4468 11.3893 71.5812C11.4935 71.7455 11.6869 71.9098 11.8357 71.7753C11.925 71.7156 11.9994 71.5812 11.9101 71.3721C11.5679 70.9539 11.2406 70.5208 10.8537 70.0728C10.1693 66.4437 9.1724 64.0243 7.08936 61.5751C4.67898 58.7674 2.20909 57.5129 0.676571 56.9902C0.453388 56.9304 0.245085 56.8707 0.0219018 56.796C-0.126887 58.1999 0.512904 60.2459 1.01878 61.4108C2.00079 63.8003 3.07207 65.8911 4.7385 67.7878Z" fill="black"/>
<path fill-rule="evenodd" clip-rule="evenodd" d="M24.6762 16.6669C24.4827 16.7416 23.352 17.0403 23.218 16.8163C23.1734 16.7565 23.2329 16.5325 23.3371 16.5176C23.7537 16.4728 24.2149 16.4429 24.6167 16.3533C25.3457 14.0534 27.3692 13.0528 29.2291 12.6645C31.4609 12.2164 33.9159 12.9034 36.5495 13.2768C36.6834 13.3067 36.8322 13.3216 36.9512 13.3216C36.9066 13.4112 36.8471 13.4709 36.7876 13.5606C35.6865 15.0689 33.9606 16.4579 32.2793 17.1448C31.1485 17.6227 29.7945 17.8916 28.4703 17.8468C27.0717 17.787 25.8962 17.4734 24.6762 16.6669Z" fill="black"/>
<path fill-rule="evenodd" clip-rule="evenodd" d="M29.0357 10.3795C29.125 10.4094 29.1249 10.3795 29.2886 10.2899C29.6011 9.9912 29.8689 9.81199 30.1813 9.52823C31.9668 9.54316 33.663 9.00552 35.2699 7.93024C35.9841 7.45233 36.6983 6.86988 37.2934 6.16796C38.7218 4.6297 39.8675 2.37459 40.3882 0.313626C40.418 0.19415 40.4329 0.119476 40.4478 0C40.3139 0.0597381 40.1948 0.119478 40.0609 0.179216C37.1744 1.34411 34.3772 1.88175 32.0561 4.13687C30.4789 5.64525 29.6606 7.46726 29.9879 9.22954C29.6308 9.5133 29.2589 9.78212 28.9166 10.1107C28.7679 10.2451 28.9464 10.3795 29.0357 10.3795Z" fill="black"/>
<path fill-rule="evenodd" clip-rule="evenodd" d="M18.5312 26.2997C18.3378 26.4042 17.2516 26.9718 17.088 26.7776C17.0136 26.7029 17.0433 26.464 17.1475 26.4192C17.5492 26.2698 18.0253 26.1653 18.427 25.9861C18.5758 24.3582 19.4834 22.8349 21.2838 21.7895C24.0364 20.3259 27.1609 20.5648 30.107 20.311C30.2557 20.296 30.3897 20.296 30.5236 20.2811C30.4789 20.3707 30.4343 20.4454 30.4045 20.535C29.4225 22.2375 27.8305 24.0745 26.2087 25.1199C25.1225 25.8517 23.7834 26.4042 22.4443 26.6731C21.0308 26.9568 19.8257 26.7925 18.5312 26.2997Z" fill="black"/>
<path fill-rule="evenodd" clip-rule="evenodd" d="M4.11359 51.4196C5.00632 53.4357 6.61323 55.6461 8.96409 55.7954C9.03849 56.0045 9.46998 56.9752 9.52949 57.1246C9.57413 57.3337 9.72292 57.5577 9.91634 57.4681C10.0056 57.4382 10.0949 57.3187 10.08 57.1096C9.85683 56.572 9.57413 56.1538 9.30631 55.6013C9.51461 51.8975 9.30631 49.1943 7.89282 46.1477C6.2859 42.6381 4.08383 40.6219 2.72985 39.6362C2.56619 39.4869 2.37276 39.3674 2.17934 39.2479C1.86688 40.6817 1.97103 42.9069 2.16446 44.1913C2.50667 46.7899 3.05719 49.0749 4.11359 51.4196Z" fill="black"/>
<path fill-rule="evenodd" clip-rule="evenodd" d="M6.74714 36.5448C7.134 38.6954 8.10112 40.8609 10.2437 41.8017C10.2734 42.0258 10.5115 43.0712 10.5413 43.2355C10.5413 43.4595 10.6156 43.7134 10.824 43.6835C10.8835 43.6686 11.0323 43.6088 11.0471 43.3848C10.9579 42.8173 10.7942 42.1751 10.69 41.5628C11.4042 38.9492 11.7911 36.5597 11.672 34.0059C11.4786 30.4067 10.1395 27.2854 8.02673 24.7764C7.86306 24.5972 7.74403 24.403 7.59524 24.2387C7.00008 25.4783 6.61323 27.599 6.50908 28.8684C6.2859 31.4372 6.30078 34.0209 6.74714 36.5448Z" fill="black"/>
<path fill-rule="evenodd" clip-rule="evenodd" d="M12.1482 22.9693C12.0887 25.1796 12.6243 27.6587 14.4693 29.0925C14.4544 29.3165 14.4098 30.3918 14.4098 30.5411C14.38 30.7502 14.3949 31.0041 14.6032 31.0489C14.6776 31.0489 14.8115 31.034 14.8561 30.8249C14.9008 30.2723 14.9156 29.421 14.9454 28.8087C16.5226 26.1205 17.3706 23.1933 17.4004 19.848C17.4599 15.9799 16.5077 13.5157 15.7489 11.9626C15.6447 11.7535 15.5406 11.5444 15.4364 11.3353C14.6032 12.3509 13.8146 14.2923 13.4575 15.4871C12.7433 17.9065 12.2226 20.4304 12.1482 22.9693Z" fill="black"/>
<path fill-rule="evenodd" clip-rule="evenodd" d="M20.3315 10.5736C19.8554 12.6495 19.9893 15.6962 21.5367 16.9507C21.4772 17.2195 21.3433 18.1455 21.3284 18.3545C21.2689 18.5786 21.2243 18.7876 21.4028 18.8772C21.4772 18.9071 21.5367 18.9071 21.626 18.713C21.7302 18.1305 21.7599 17.6526 21.8492 17.0552C24.0513 14.6956 25.3011 12.3658 26.0004 9.18473C26.6997 5.85433 26.5955 3.21092 26.298 1.34411C26.2682 1.12009 26.2087 0.896073 26.1492 0.657121C24.2149 2.21031 22.8461 4.25634 21.6855 6.58613C21.0606 7.85556 20.5696 9.15487 20.3315 10.5736Z" fill="black"/>
<path fill-rule="evenodd" clip-rule="evenodd" d="M13.5914 39.009C13.4129 39.1733 12.4309 40.1141 12.1928 39.9947C12.1333 39.9349 12.0887 39.6213 12.1928 39.5616C12.5648 39.2629 13.0409 39.0389 13.4129 38.7551C13.2938 36.963 13.6956 35.1409 15.3174 33.4384C17.817 31.0041 21.135 30.1827 24.1554 28.9282C24.2893 28.8684 24.4232 28.7938 24.5869 28.734C24.5571 28.8386 24.5423 28.9581 24.4976 29.0626C23.9025 31.1534 22.7122 33.5877 21.2689 35.2305C20.3315 36.3357 19.0668 37.3961 17.7426 38.098C16.3589 38.8447 15.0495 39.0837 13.5914 39.009Z" fill="black"/>
<path fill-rule="evenodd" clip-rule="evenodd" d="M11.5084 53.6C11.3745 53.839 10.5859 55.1233 10.3329 55.0636C10.2288 55.0636 10.1246 54.75 10.199 54.6305C10.5264 54.1974 10.943 53.8539 11.2257 53.4059C10.7198 51.7631 10.9579 49.3885 12.1779 47.1184C14.1122 43.803 16.9392 42.19 19.6769 39.8752C19.7959 39.7557 19.9149 39.6512 20.0488 39.5168C20.0637 39.6213 20.0786 39.7408 20.0637 39.8752C20.0042 42.1452 19.4091 44.9977 18.3527 47.1483C17.6682 48.597 16.6565 50.0456 15.4959 51.2553C14.2907 52.465 13.0111 53.1669 11.5084 53.6Z" fill="black"/>
<path fill-rule="evenodd" clip-rule="evenodd" d="M12.8772 67.9073C12.7731 68.1911 12.2374 69.7144 11.9696 69.7741C11.8804 69.7592 11.7018 69.5352 11.7762 69.3709C11.9994 68.8631 12.2523 68.2807 12.4606 67.758C11.5381 66.8768 11.2257 64.4276 11.9696 61.8588C13.2046 58.0953 15.9572 55.2727 18.1741 52.1514C18.2783 52.002 18.3824 51.8527 18.4866 51.7033C18.5163 51.8079 18.5312 51.9274 18.561 52.0468C18.9478 54.2422 18.9181 57.1544 18.3229 59.529C17.9212 61.1121 17.2219 62.8594 16.3143 64.3529C15.3769 65.9359 14.261 67.0262 12.8772 67.9073Z" fill="black"/>
<path fill-rule="evenodd" clip-rule="evenodd" d="M9.55925 84.6489C11.2406 85.7541 14.2461 86.5904 16.3143 85.2313C16.4779 85.3508 17.3409 85.8735 17.445 85.9632C17.5938 86.1125 17.8021 86.217 17.936 86.0079C18.0104 85.9183 18.0551 85.769 17.9063 85.6047C17.4748 85.306 16.9987 85.1119 16.5374 84.8132C14.9603 81.5276 13.2641 79.3023 10.6603 77.6595C7.68451 75.7479 5.19974 75.7181 3.60771 75.7181C3.38452 75.7181 3.16134 75.733 2.93816 75.733C3.32501 78.9738 7.32742 83.26 9.55925 84.6489Z" fill="black"/>
<path fill-rule="evenodd" clip-rule="evenodd" d="M17.817 82.11C17.8021 82.3191 17.698 83.2451 17.5492 83.8126C17.5046 83.9768 17.4897 84.2158 17.2665 84.1262C17.1772 84.1113 17.0879 83.9171 17.0879 83.8275C17.1921 83.2749 17.2814 82.6477 17.326 82.0951C16.2994 81.438 15.4959 79.2874 15.3322 76.644C15.5108 72.6565 17.2963 69.0423 18.7246 65.2788C18.7693 65.1145 18.8288 64.9353 18.8883 64.7561C18.9478 64.8457 18.9776 64.9353 19.0371 65.0249C19.9893 66.9963 20.7184 69.7592 20.7779 72.2533C20.8374 73.8811 20.5994 75.7778 20.1232 77.5401C19.6174 79.3471 18.8734 80.7659 17.817 82.11Z" fill="black"/>
<path fill-rule="evenodd" clip-rule="evenodd" d="M18.6651 98.2841C20.5994 98.6724 23.218 98.5828 24.8547 96.492C25.2713 96.5517 25.9409 96.6563 26.3724 96.6861C26.4914 96.7011 26.5807 96.6115 26.6253 96.4621C26.6551 96.3576 26.6253 96.2232 26.4319 96.1186C25.9409 96.0141 25.4499 96.0141 24.9291 95.9245C22.7568 93.3707 20.7035 91.937 17.7426 91.3993C14.3205 90.7721 11.4191 91.6532 9.87171 92.2954C9.6634 92.3701 9.44022 92.4597 9.24679 92.5642C9.79731 93.8038 11.4042 95.0732 12.416 95.6855C14.3502 96.9699 16.3291 97.8958 18.6651 98.2841Z" fill="black"/>
<path fill-rule="evenodd" clip-rule="evenodd" d="M25.5838 92.8928C25.6135 93.1168 25.6433 94.0129 25.6433 94.6102C25.6284 94.7745 25.6731 94.9985 25.4499 95.0135C25.3457 95.0135 25.2267 94.8791 25.2267 94.7745C25.1821 94.2219 25.2118 93.6246 25.1225 93.057C23.9769 92.6986 22.4592 90.9513 21.7599 88.5468C20.9565 84.6937 21.8343 80.7211 22.2509 76.644C22.2807 76.4648 22.2658 76.2856 22.2807 76.0914C22.3551 76.1661 22.4443 76.2408 22.5187 76.3154C23.9173 77.8537 25.316 80.2283 25.9855 82.5581C26.4468 84.0814 26.6848 85.9631 26.6848 87.7702C26.6551 89.6669 26.2682 91.2649 25.5838 92.8928Z" fill="black"/>
<path fill-rule="evenodd" clip-rule="evenodd" d="M36.4156 100.733C36.5197 100.898 36.6536 101.644 36.8024 102.212C36.8471 102.346 36.9363 102.555 36.728 102.63C36.6239 102.675 36.49 102.585 36.4602 102.496C36.2668 102.018 36.2668 101.51 36.0287 101.032C34.9128 101.301 32.9786 99.8821 31.7139 98.0303C29.9582 94.8343 29.7647 91.0857 29.0803 87.2774C29.0654 87.0982 29.0059 86.9339 28.9762 86.7547C29.0654 86.7696 29.1547 86.8294 29.244 86.8592C30.9253 87.7105 32.8447 89.2189 34.0796 91.0708C34.9277 92.2655 35.7163 93.9233 36.1626 95.581C36.6239 97.3283 36.6388 98.9861 36.4156 100.733Z" fill="black"/>
<path fill-rule="evenodd" clip-rule="evenodd" d="M30.3301 107.842C32.309 107.573 34.8682 106.662 35.999 104.124C36.4007 104.004 37.1 103.929 37.5166 103.81C37.6357 103.795 37.6952 103.661 37.71 103.496C37.71 103.407 37.6505 103.272 37.4422 103.242C36.9512 103.317 36.4602 103.466 35.9097 103.526C33.0381 101.824 30.717 101.047 27.6966 101.48C24.2298 101.973 21.7004 103.72 20.3464 104.84C20.153 105.005 19.9596 105.154 19.781 105.318C20.6142 106.349 22.489 107.036 23.6049 107.334C25.7921 107.947 27.9346 108.186 30.3301 107.842Z" fill="black"/>
<path fill-rule="evenodd" clip-rule="evenodd" d="M157.943 105.975C174.518 103.675 186.585 90.6078 192.09 72.7461C194.351 65.3535 194.679 57.1544 193.89 48.582C192.432 33.2741 185.424 19.9824 175.202 10.2899C175.158 10.2451 175.143 10.2302 175.128 10.275C175.098 10.3198 175.009 10.3646 174.964 10.3944C174.905 10.4243 174.89 10.3944 174.935 10.4691C185.781 20.4304 192.745 36.276 193.503 52.2858C194.679 75.1506 183.609 95.4018 167.019 102.376C164.237 103.556 161.32 104.452 158.285 104.915C158.077 105.184 157.958 105.557 157.943 105.975Z" fill="black"/>
<path fill-rule="evenodd" clip-rule="evenodd" d="M199.262 67.7878C197.908 69.4008 195.75 70.9838 193.429 70.3715C193.31 70.5507 192.7 71.4468 192.611 71.5812C192.507 71.7455 192.313 71.9098 192.164 71.7753C192.075 71.7156 192.001 71.5812 192.09 71.3721C192.432 70.9539 192.759 70.5208 193.146 70.0728C193.831 66.4437 194.828 64.0243 196.911 61.5751C199.321 58.7674 201.791 57.5129 203.323 56.9902C203.547 56.9304 203.755 56.8707 203.978 56.796C204.127 58.1999 203.487 60.2459 202.981 61.4108C201.999 63.8003 200.928 65.8911 199.262 67.7878Z" fill="black"/>
<path fill-rule="evenodd" clip-rule="evenodd" d="M179.324 16.6669C179.517 16.7416 180.648 17.0403 180.782 16.8163C180.827 16.7565 180.767 16.5325 180.663 16.5176C180.246 16.4728 179.785 16.4429 179.383 16.3533C178.654 14.0534 176.631 13.0528 174.771 12.6645C172.539 12.2164 170.084 12.9034 167.451 13.2768C167.317 13.3067 167.168 13.3216 167.049 13.3216C167.093 13.4112 167.153 13.4709 167.212 13.5606C168.313 15.0689 170.039 16.4579 171.721 17.1448C172.852 17.6227 174.206 17.8916 175.53 17.8468C176.928 17.787 178.104 17.4734 179.324 16.6669Z" fill="black"/>
<path fill-rule="evenodd" clip-rule="evenodd" d="M174.964 10.3795C174.875 10.4094 174.875 10.3795 174.711 10.2899C174.399 9.9912 174.131 9.81199 173.819 9.52823C172.033 9.54316 170.337 9.00552 168.73 7.93024C168.016 7.45233 167.302 6.86988 166.707 6.16796C165.278 4.6297 164.133 2.37459 163.612 0.313626C163.582 0.19415 163.567 0.119476 163.552 0C163.686 0.0597381 163.805 0.119478 163.939 0.179216C166.826 1.34411 169.623 1.88175 171.944 4.13687C173.521 5.64525 174.339 7.46726 174.012 9.22954C174.369 9.5133 174.741 9.78212 175.083 10.1107C175.232 10.2451 175.054 10.3795 174.964 10.3795Z" fill="black"/>
<path fill-rule="evenodd" clip-rule="evenodd" d="M185.469 26.2997C185.662 26.4042 186.748 26.9718 186.912 26.7776C186.986 26.7029 186.957 26.464 186.853 26.4192C186.451 26.2698 185.975 26.1653 185.573 25.9861C185.424 24.3582 184.517 22.8349 182.716 21.7895C179.964 20.3259 176.839 20.5648 173.893 20.311C173.744 20.296 173.61 20.296 173.476 20.2811C173.521 20.3707 173.566 20.4454 173.595 20.535C174.577 22.2375 176.17 24.0745 177.791 25.1199C178.877 25.8517 180.217 26.4042 181.556 26.6731C182.969 26.9568 184.174 26.7925 185.469 26.2997Z" fill="black"/>
<path fill-rule="evenodd" clip-rule="evenodd" d="M199.886 51.4196C198.994 53.4357 197.387 55.6461 195.036 55.7954C194.962 56.0045 194.53 56.9752 194.471 57.1246C194.426 57.3337 194.277 57.5577 194.084 57.4681C193.994 57.4382 193.905 57.3187 193.92 57.1096C194.143 56.572 194.426 56.1538 194.694 55.6013C194.485 51.8975 194.694 49.1943 196.107 46.1477C197.714 42.6381 199.916 40.6219 201.27 39.6362C201.434 39.4869 201.627 39.3674 201.821 39.2479C202.133 40.6817 202.029 42.9069 201.836 44.1913C201.493 46.7899 200.943 49.0749 199.886 51.4196Z" fill="black"/>
<path fill-rule="evenodd" clip-rule="evenodd" d="M197.253 36.5448C196.866 38.6954 195.899 40.8609 193.756 41.8017C193.727 42.0258 193.489 43.0712 193.459 43.2355C193.459 43.4595 193.384 43.7134 193.176 43.6835C193.117 43.6686 192.968 43.6088 192.953 43.3848C193.042 42.8173 193.206 42.1751 193.31 41.5628C192.596 38.9492 192.209 36.5597 192.328 34.0059C192.521 30.4067 193.86 27.2854 195.973 24.7764C196.137 24.5972 196.256 24.403 196.405 24.2387C197 25.4783 197.387 27.599 197.491 28.8684C197.714 31.4372 197.699 34.0209 197.253 36.5448Z" fill="black"/>
<path fill-rule="evenodd" clip-rule="evenodd" d="M191.852 22.9693C191.911 25.1796 191.376 27.6587 189.531 29.0925C189.546 29.3165 189.59 30.3918 189.59 30.5411C189.62 30.7502 189.605 31.0041 189.397 31.0489C189.322 31.0489 189.189 31.034 189.144 30.8249C189.099 30.2723 189.084 29.421 189.055 28.8087C187.477 26.1205 186.629 23.1933 186.6 19.848C186.54 15.9799 187.492 13.5157 188.251 11.9626C188.355 11.7535 188.459 11.5444 188.564 11.3353C189.397 12.3509 190.185 14.2923 190.542 15.4871C191.257 17.9065 191.777 20.4304 191.852 22.9693Z" fill="black"/>
<path fill-rule="evenodd" clip-rule="evenodd" d="M183.668 10.5736C184.145 12.6495 184.011 15.6962 182.463 16.9507C182.523 17.2195 182.657 18.1455 182.672 18.3545C182.731 18.5786 182.776 18.7876 182.597 18.8772C182.523 18.9071 182.463 18.9071 182.374 18.713C182.27 18.1305 182.24 17.6526 182.151 17.0552C179.949 14.6956 178.699 12.3658 178 9.18473C177.3 5.85433 177.404 3.21092 177.702 1.34411C177.732 1.12009 177.791 0.896073 177.851 0.657121C179.785 2.21031 181.154 4.25634 182.314 6.58613C182.939 7.85556 183.43 9.15487 183.668 10.5736Z" fill="black"/>
<path fill-rule="evenodd" clip-rule="evenodd" d="M190.409 39.009C190.587 39.1733 191.569 40.1141 191.807 39.9947C191.867 39.9349 191.911 39.6213 191.807 39.5616C191.435 39.2629 190.959 39.0389 190.587 38.7551C190.706 36.963 190.304 35.1409 188.683 33.4384C186.183 31.0041 182.865 30.1827 179.845 28.9282C179.711 28.8684 179.577 28.7938 179.413 28.734C179.443 28.8386 179.458 28.9581 179.502 29.0626C180.098 31.1534 181.288 33.5877 182.731 35.2305C183.668 36.3357 184.933 37.3961 186.257 38.098C187.641 38.8447 188.95 39.0837 190.409 39.009Z" fill="black"/>
<path fill-rule="evenodd" clip-rule="evenodd" d="M192.492 53.6C192.626 53.839 193.414 55.1233 193.667 55.0636C193.771 55.0636 193.875 54.75 193.801 54.6305C193.474 54.1974 193.057 53.8539 192.774 53.4059C193.28 51.7631 193.042 49.3885 191.822 47.1184C189.888 43.803 187.061 42.19 184.323 39.8752C184.204 39.7557 184.085 39.6512 183.951 39.5168C183.936 39.6213 183.921 39.7408 183.936 39.8752C183.996 42.1452 184.591 44.9977 185.647 47.1483C186.332 48.597 187.344 50.0456 188.504 51.2553C189.709 52.465 190.989 53.1669 192.492 53.6Z" fill="black"/>
<path fill-rule="evenodd" clip-rule="evenodd" d="M191.123 67.9073C191.227 68.1911 191.763 69.7144 192.03 69.7741C192.12 69.7592 192.298 69.5352 192.224 69.3709C192.001 68.8631 191.748 68.2807 191.539 67.758C192.462 66.8768 192.774 64.4276 192.03 61.8588C190.795 58.0953 188.043 55.2727 185.826 52.1514C185.722 52.002 185.618 51.8527 185.513 51.7033C185.484 51.8079 185.469 51.9274 185.439 52.0468C185.052 54.2422 185.082 57.1544 185.677 59.529C186.079 61.1121 186.778 62.8594 187.686 64.3529C188.623 65.9359 189.739 67.0262 191.123 67.9073Z" fill="black"/>
<path fill-rule="evenodd" clip-rule="evenodd" d="M194.441 84.6489C192.759 85.7541 189.754 86.5904 187.686 85.2313C187.522 85.3508 186.659 85.8735 186.555 85.9632C186.406 86.1125 186.198 86.217 186.064 86.0079C185.99 85.9183 185.945 85.769 186.094 85.6047C186.525 85.306 187.001 85.1119 187.463 84.8132C189.04 81.5276 190.736 79.3023 193.34 77.6595C196.315 75.7479 198.8 75.7181 200.392 75.7181C200.615 75.7181 200.839 75.733 201.062 75.733C200.675 78.9738 196.673 83.26 194.441 84.6489Z" fill="black"/>
<path fill-rule="evenodd" clip-rule="evenodd" d="M186.183 82.11C186.198 82.3191 186.302 83.2451 186.451 83.8126C186.495 83.9768 186.51 84.2158 186.734 84.1262C186.823 84.1113 186.912 83.9171 186.912 83.8275C186.808 83.2749 186.719 82.6477 186.674 82.0951C187.701 81.438 188.504 79.2874 188.668 76.644C188.489 72.6565 186.704 69.0423 185.275 65.2788C185.231 65.1145 185.171 64.9353 185.112 64.7561C185.052 64.8457 185.022 64.9353 184.963 65.0249C184.011 66.9963 183.282 69.7592 183.222 72.2533C183.163 73.8811 183.401 75.7778 183.877 77.5401C184.383 79.3471 185.127 80.7659 186.183 82.11Z" fill="black"/>
<path fill-rule="evenodd" clip-rule="evenodd" d="M185.335 98.2841C183.401 98.6724 180.782 98.5828 179.145 96.492C178.729 96.5517 178.059 96.6563 177.628 96.6861C177.509 96.7011 177.419 96.6115 177.375 96.4621C177.345 96.3576 177.375 96.2232 177.568 96.1186C178.059 96.0141 178.55 96.0141 179.071 95.9245C181.243 93.3707 183.296 91.937 186.257 91.3993C189.68 90.7721 192.581 91.6532 194.128 92.2954C194.337 92.3701 194.56 92.4597 194.753 92.5642C194.203 93.8038 192.596 95.0732 191.584 95.6855C189.65 96.9699 187.671 97.8958 185.335 98.2841Z" fill="black"/>
<path fill-rule="evenodd" clip-rule="evenodd" d="M178.416 92.8928C178.386 93.1168 178.357 94.0129 178.357 94.6102C178.372 94.7745 178.327 94.9985 178.55 95.0135C178.654 95.0135 178.773 94.8791 178.773 94.7745C178.818 94.2219 178.788 93.6246 178.877 93.057C180.023 92.6986 181.541 90.9513 182.24 88.5468C183.044 84.6937 182.166 80.7211 181.749 76.644C181.719 76.4648 181.734 76.2856 181.719 76.0914C181.645 76.1661 181.556 76.2408 181.481 76.3154C180.083 77.8537 178.684 80.2283 178.014 82.5581C177.553 84.0814 177.315 85.9631 177.315 87.7702C177.345 89.6669 177.732 91.2649 178.416 92.8928Z" fill="black"/>
<path fill-rule="evenodd" clip-rule="evenodd" d="M167.584 100.733C167.48 100.898 167.346 101.644 167.198 102.212C167.153 102.346 167.064 102.555 167.272 102.63C167.376 102.675 167.51 102.585 167.54 102.496C167.733 102.018 167.733 101.51 167.971 101.032C169.087 101.301 171.021 99.8821 172.286 98.0303C174.042 94.8343 174.235 91.0857 174.92 87.2774C174.935 87.0982 174.994 86.9339 175.024 86.7547C174.935 86.7696 174.845 86.8294 174.756 86.8592C173.075 87.7105 171.155 89.2189 169.92 91.0708C169.072 92.2655 168.284 93.9233 167.837 95.581C167.376 97.3283 167.361 98.9861 167.584 100.733Z" fill="black"/>
<path fill-rule="evenodd" clip-rule="evenodd" d="M173.67 107.842C171.691 107.573 169.132 106.662 168.001 104.124C167.599 104.004 166.9 103.929 166.483 103.81C166.364 103.795 166.305 103.661 166.29 103.496C166.29 103.407 166.349 103.272 166.558 103.242C167.049 103.317 167.54 103.466 168.09 103.526C170.962 101.824 173.283 101.047 176.303 101.48C179.77 101.973 182.3 103.72 183.654 104.84C183.847 105.005 184.04 105.154 184.219 105.318C183.386 106.349 181.511 107.036 180.395 107.334C178.208 107.947 176.065 108.186 173.67 107.842Z" fill="black"/>
<path d="M43.7897 64.368C43.9924 63.8773 44.6826 63.8773 44.8853 64.368L47.3366 70.3042C47.422 70.5111 47.6152 70.6524 47.8369 70.6703L54.1996 71.1841C54.7256 71.2265 54.9389 71.8877 54.5381 72.2334L49.6904 76.416C49.5214 76.5617 49.4476 76.7905 49.4993 77.0083L50.9803 83.262C51.1027 83.7789 50.5444 84.1876 50.094 83.9105L44.6467 80.5594C44.4568 80.4426 44.2181 80.4426 44.0283 80.5594L38.5809 83.9105C38.1306 84.1876 37.5722 83.7789 37.6946 83.262L39.1757 77.0083C39.2273 76.7905 39.1535 76.5617 38.9846 76.416L34.1368 72.2334C33.7361 71.8877 33.9494 71.2265 34.4754 71.1841L40.8381 70.6703C41.0598 70.6524 41.253 70.5111 41.3384 70.3042L43.7897 64.368Z" fill="#FDB022"/>
<path d="M72.2646 64.368C72.4672 63.8773 73.1575 63.8773 73.3601 64.368L75.8115 70.3042C75.8969 70.5111 76.09 70.6524 76.3118 70.6703L82.6745 71.1841C83.2005 71.2265 83.4138 71.8877 83.013 72.2334L78.1653 76.416C77.9963 76.5617 77.9225 76.7905 77.9741 77.0083L79.4552 83.262C79.5776 83.7789 79.0193 84.1876 78.5689 83.9105L73.1215 80.5594C72.9317 80.4426 72.693 80.4426 72.5032 80.5594L67.0558 83.9105C66.6054 84.1876 66.0471 83.7789 66.1695 83.262L67.6506 77.0083C67.7022 76.7905 67.6284 76.5617 67.4594 76.416L62.6117 72.2334C62.2109 71.8877 62.4243 71.2265 62.9502 71.1841L69.3129 70.6703C69.5347 70.6524 69.7278 70.5111 69.8132 70.3042L72.2646 64.368Z" fill="#FDB022"/>
<path d="M100.739 64.368C100.942 63.8773 101.632 63.8773 101.835 64.368L104.286 70.3042C104.372 70.5111 104.565 70.6524 104.787 70.6703L111.149 71.1841C111.675 71.2265 111.889 71.8877 111.488 72.2334L106.64 76.416C106.471 76.5617 106.397 76.7905 106.449 77.0083L107.93 83.262C108.052 83.7789 107.494 84.1876 107.044 83.9105L101.596 80.5594C101.407 80.4426 101.168 80.4426 100.978 80.5594L95.5307 83.9105C95.0803 84.1876 94.5219 83.7789 94.6444 83.262L96.1254 77.0083C96.177 76.7905 96.1032 76.5617 95.9343 76.416L91.0866 72.2334C90.6858 71.8877 90.8991 71.2265 91.4251 71.1841L97.7878 70.6703C98.0095 70.6524 98.2027 70.5111 98.2881 70.3042L100.739 64.368Z" fill="#FDB022"/>
<path d="M129.214 64.368C129.417 63.8773 130.107 63.8773 130.31 64.368L132.761 70.3042C132.847 70.5111 133.04 70.6524 133.261 70.6703L139.624 71.1841C140.15 71.2265 140.363 71.8877 139.963 72.2334L135.115 76.416C134.946 76.5617 134.872 76.7905 134.924 77.0083L136.405 83.262C136.527 83.7789 135.969 84.1876 135.519 83.9105L130.071 80.5594C129.881 80.4426 129.643 80.4426 129.453 80.5594L124.006 83.9105C123.555 84.1876 122.997 83.7789 123.119 83.262L124.6 77.0083C124.652 76.7905 124.578 76.5617 124.409 76.416L119.561 72.2334C119.161 71.8877 119.374 71.2265 119.9 71.1841L126.263 70.6703C126.484 70.6524 126.678 70.5111 126.763 70.3042L129.214 64.368Z" fill="#FDB022"/>
<path d="M157.689 64.368C157.892 63.8773 158.582 63.8773 158.785 64.368L161.236 70.3042C161.322 70.5111 161.515 70.6524 161.736 70.6703L168.099 71.1841C168.625 71.2265 168.838 71.8877 168.438 72.2334L163.59 76.416C163.421 76.5617 163.347 76.7905 163.399 77.0083L164.88 83.262C165.002 83.7789 164.443 84.1876 163.994 83.9105L158.547 80.5594C158.357 80.4426 158.117 80.4426 157.927 80.5594L152.48 83.9105C152.031 84.1876 151.472 83.7789 151.594 83.262L153.075 77.0083C153.127 76.7905 153.053 76.5617 152.884 76.416L148.036 72.2334C147.635 71.8877 147.849 71.2265 148.375 71.1841L154.738 70.6703C154.959 70.6524 155.152 70.5111 155.238 70.3042L157.689 64.368Z" fill="#FDB022"/>
<path d="M70.5938 35.0625L63.8125 33.4492L66.1367 13.1875H88.9414V19.9414H73.1367L72.1797 28.3359C72.6719 28.0443 73.4466 27.7253 74.5039 27.3789C75.5612 27.0143 76.7461 26.832 78.0586 26.832C80.0091 26.832 81.7409 27.1328 83.2539 27.7344C84.7669 28.3359 86.043 29.2109 87.082 30.3594C88.1393 31.4896 88.9323 32.8841 89.4609 34.543C90.0078 36.2018 90.2812 38.0885 90.2812 40.2031C90.2812 41.9531 90.0078 43.6302 89.4609 45.2344C88.9141 46.8203 88.0755 48.2422 86.9453 49.5C85.8333 50.7396 84.4206 51.724 82.707 52.4531C80.9935 53.1823 78.9792 53.5469 76.6641 53.5469C74.9141 53.5469 73.2188 53.2826 71.5781 52.7539C69.9375 52.2253 68.4609 51.4596 67.1484 50.457C65.8542 49.4362 64.8242 48.1966 64.0586 46.7383C63.3112 45.2799 62.9284 43.6393 62.9102 41.8164H71.4414C71.5326 42.8737 71.7969 43.7852 72.2344 44.5508C72.6719 45.2982 73.2643 45.8815 74.0117 46.3008C74.7591 46.7018 75.625 46.9023 76.6094 46.9023C77.5573 46.9023 78.3594 46.7201 79.0156 46.3555C79.6719 45.9727 80.1914 45.4531 80.5742 44.7969C80.9753 44.1406 81.2669 43.375 81.4492 42.5C81.6315 41.625 81.7227 40.6862 81.7227 39.6836C81.7227 38.6445 81.6042 37.7148 81.3672 36.8945C81.1302 36.056 80.7656 35.3451 80.2734 34.7617C79.7812 34.1602 79.1523 33.7044 78.3867 33.3945C77.6393 33.0664 76.737 32.9023 75.6797 32.9023C74.2943 32.9023 73.2096 33.1302 72.4258 33.5859C71.6419 34.0417 71.0312 34.5339 70.5938 35.0625ZM95.9961 48.9531C95.9961 47.7135 96.4336 46.6745 97.3086 45.8359C98.2018 44.9974 99.3594 44.5781 100.781 44.5781C102.221 44.5781 103.37 44.9974 104.227 45.8359C105.102 46.6745 105.539 47.7135 105.539 48.9531C105.539 50.1745 105.102 51.2044 104.227 52.043C103.37 52.8815 102.221 53.3008 100.781 53.3008C99.3594 53.3008 98.2018 52.8815 97.3086 52.043C96.4336 51.2044 95.9961 50.1745 95.9961 48.9531ZM139.117 29.5391V36.6211C139.117 39.5378 138.789 42.0625 138.133 44.1953C137.495 46.3281 136.565 48.0872 135.344 49.4727C134.141 50.8581 132.701 51.888 131.023 52.5625C129.365 53.2188 127.523 53.5469 125.5 53.5469C123.878 53.5469 122.365 53.3372 120.961 52.918C119.557 52.4987 118.29 51.8516 117.16 50.9766C116.048 50.0833 115.091 48.9714 114.289 47.6406C113.487 46.3099 112.867 44.724 112.43 42.8828C112.01 41.0417 111.801 38.9544 111.801 36.6211V29.5391C111.801 26.5859 112.12 24.0521 112.758 21.9375C113.414 19.8229 114.353 18.0729 115.574 16.6875C116.796 15.3021 118.236 14.2812 119.895 13.625C121.572 12.9688 123.422 12.6406 125.445 12.6406C127.068 12.6406 128.572 12.8503 129.957 13.2695C131.361 13.6888 132.628 14.3359 133.758 15.2109C134.888 16.0859 135.845 17.1888 136.629 18.5195C137.431 19.8503 138.042 21.4362 138.461 23.2773C138.898 25.1003 139.117 27.1875 139.117 29.5391ZM130.586 37.6875V28.418C130.586 27.0508 130.504 25.8659 130.34 24.8633C130.194 23.8424 129.975 22.9766 129.684 22.2656C129.41 21.5547 129.064 20.9805 128.645 20.543C128.225 20.1055 127.742 19.7865 127.195 19.5859C126.667 19.3672 126.083 19.2578 125.445 19.2578C124.643 19.2578 123.923 19.4219 123.285 19.75C122.647 20.0781 122.109 20.5977 121.672 21.3086C121.234 22.0013 120.897 22.9401 120.66 24.125C120.441 25.2917 120.332 26.7227 120.332 28.418V37.6875C120.332 39.0547 120.405 40.2487 120.551 41.2695C120.715 42.2904 120.934 43.1654 121.207 43.8945C121.499 44.6055 121.854 45.1888 122.273 45.6445C122.693 46.082 123.176 46.401 123.723 46.6016C124.27 46.8021 124.862 46.9023 125.5 46.9023C126.302 46.9023 127.013 46.7474 127.633 46.4375C128.253 46.1094 128.781 45.5898 129.219 44.8789C129.674 44.1497 130.012 43.1927 130.23 42.0078C130.467 40.8229 130.586 39.3828 130.586 37.6875Z" fill="black"/>
</svg>
