<svg width="200" height="200" viewBox="0 0 200 200" fill="none" xmlns="http://www.w3.org/2000/svg">
<path d="M169.99 178.984C169.814 178.994 169.638 179 169.46 179H29.54C29.362 179 29.186 179 29.01 178.984C28.834 178.968 28.658 179 28.48 179C26.231 179 24.074 178.107 22.4837 176.516C20.8934 174.926 20 172.769 20 170.52V28.48C20 26.231 20.8934 24.074 22.4837 22.4837C24.074 20.8934 26.231 20 28.48 20C28.658 20 28.834 20 29.01 20.016C29.186 20.032 29.362 20 29.54 20H44.38C46.629 20 48.786 20.8934 50.3763 22.4837C51.9666 24.074 52.86 26.231 52.86 28.48C52.86 30.729 51.9666 32.886 50.3763 34.4763C48.786 36.0666 46.629 36.96 44.38 36.96H36.96V87.84H52.86C55.109 87.84 57.266 88.7334 58.8563 90.3237C60.4466 91.914 61.34 94.071 61.34 96.32C61.34 98.569 60.4466 100.726 58.8563 102.316C57.266 103.907 55.109 104.8 52.86 104.8H36.96V162.04H113.28V142.96C113.28 140.711 114.173 138.554 115.764 136.964C117.354 135.373 119.511 134.48 121.76 134.48C124.009 134.48 126.166 135.373 127.756 136.964C129.347 138.554 130.24 140.711 130.24 142.96V162.04H162.04V83.6H133.42C132.33 83.6021 131.25 83.3929 130.24 82.984V96.32C130.24 98.569 129.347 100.726 127.756 102.316C126.166 103.907 124.009 104.8 121.76 104.8C121.582 104.8 121.406 104.8 121.23 104.784C121.054 104.768 120.878 104.8 120.7 104.8H97.38C96.2664 104.8 95.1637 104.581 94.1348 104.154C93.106 103.728 92.1712 103.104 91.3837 102.316C90.5963 101.529 89.9717 100.594 89.5455 99.5652C89.1193 98.5363 88.9 97.4336 88.9 96.32C88.9 95.2064 89.1193 94.1037 89.5455 93.0748C89.9717 92.046 90.5963 91.1112 91.3837 90.3237C92.1712 89.5363 93.106 88.9117 94.1348 88.4855C95.1637 88.0593 96.2664 87.84 97.38 87.84H113.28V36.96H86.78C84.531 36.96 82.374 36.0666 80.7837 34.4763C79.1934 32.886 78.3 30.729 78.3 28.48C78.3 26.231 79.1934 24.074 80.7837 22.4837C82.374 20.8934 84.531 20 86.78 20H120.7C120.878 20 121.054 20 121.23 20.016C121.406 20.032 121.582 20 121.76 20C124.009 20 126.166 20.8934 127.756 22.4837C129.347 24.074 130.24 26.231 130.24 28.48V67.254C131.25 66.8451 132.33 66.6359 133.42 66.638H169.46C169.638 66.638 169.814 66.638 169.99 66.654C170.166 66.67 170.342 66.638 170.52 66.638C172.769 66.638 174.926 67.5314 176.516 69.1217C178.107 70.712 179 72.869 179 75.118V170.518C179 172.767 178.107 174.924 176.516 176.514C174.926 178.105 172.769 178.998 170.52 178.998C170.342 179 170.166 179 169.99 178.984Z" fill="#55C1C5"/>
<path d="M124 93C119.582 93 116 96.5817 116 101C116 105.418 119.582 109 124 109C128.418 109 132 105.418 132 101C132 96.5817 128.418 93 124 93Z" fill="#FF5D5D"/>
<path d="M124 94C120.134 94 117 97.134 117 101C117 104.866 120.134 108 124 108C127.866 108 131 104.866 131 101C131 97.134 127.866 94 124 94Z" stroke="#FF5D5D" stroke-width="2"/>
<path d="M116 133V135C116 139.418 119.582 143 124 143C128.418 143 132 139.418 132 135V133C132 128.582 128.418 125 124 125C119.582 125 116 128.582 116 133Z" fill="#FF5D5D"/>
<path d="M117 133V135C117 138.866 120.134 142 124 142C127.866 142 131 138.866 131 135V133C131 129.134 127.866 126 124 126C120.134 126 117 129.134 117 133Z" stroke="#FF5D5D" stroke-width="2"/>
</svg>
