<svg width="200" height="200" viewBox="0 0 200 200" fill="none" xmlns="http://www.w3.org/2000/svg">
<path d="M186.666 167.282H14C12.4087 167.282 10.8826 166.65 9.75736 165.525C8.63214 164.4 8 162.874 8 161.282V104.566C8 102.975 8.63214 101.449 9.75736 100.324C10.8826 99.1985 12.4087 98.5664 14 98.5664H29.474V122.068C29.474 122.922 29.8132 123.741 30.4171 124.345C31.021 124.949 31.84 125.288 32.694 125.288C33.548 125.288 34.367 124.949 34.9709 124.345C35.5748 123.741 35.914 122.922 35.914 122.068V98.5664H50.946V135.43C50.9669 136.271 51.3155 137.07 51.9173 137.657C52.519 138.244 53.3264 138.572 54.167 138.572C55.0076 138.572 55.815 138.244 56.4167 137.657C57.0185 137.07 57.3671 136.271 57.388 135.43V98.5664H74.566V122.068C74.5869 122.909 74.9355 123.708 75.5373 124.295C76.139 124.882 76.9464 125.21 77.787 125.21C78.6276 125.21 79.435 124.882 80.0367 124.295C80.6385 123.708 80.9871 122.909 81.008 122.068V98.5664H96.04V135.43C96.04 136.284 96.3792 137.103 96.9831 137.707C97.587 138.311 98.406 138.65 99.26 138.65C100.114 138.65 100.933 138.311 101.537 137.707C102.141 137.103 102.48 136.284 102.48 135.43V98.5664H117.512V122.068C117.533 122.909 117.881 123.708 118.483 124.295C119.085 124.882 119.892 125.21 120.733 125.21C121.574 125.21 122.381 124.882 122.983 124.295C123.585 123.708 123.933 122.909 123.954 122.068V98.5664H141.132V135.43C141.153 136.271 141.501 137.07 142.103 137.657C142.705 138.244 143.512 138.572 144.353 138.572C145.194 138.572 146.001 138.244 146.603 137.657C147.205 137.07 147.553 136.271 147.574 135.43V98.5664H162.6V122.068C162.6 122.922 162.939 123.741 163.543 124.345C164.147 124.949 164.966 125.288 165.82 125.288C166.674 125.288 167.493 124.949 168.097 124.345C168.701 123.741 169.04 122.922 169.04 122.068V98.5664H186.66C188.251 98.5664 189.777 99.1985 190.903 100.324C192.028 101.449 192.66 102.975 192.66 104.566V161.28C192.661 162.871 192.029 164.397 190.905 165.522C189.781 166.648 188.257 167.281 186.666 167.282Z" fill="#55C1C5"/>
<path d="M155.794 74.946H43.25C41.6587 74.946 40.1326 74.3139 39.0074 73.1886C37.8821 72.0634 37.25 70.5373 37.25 68.946V38C37.25 36.4087 37.8821 34.8826 39.0074 33.7574C40.1326 32.6321 41.6587 32 43.25 32H52.282V47.4C52.299 47.9581 52.5327 48.4876 52.9335 48.8763C53.3343 49.2651 53.8707 49.4825 54.429 49.4825C54.9873 49.4825 55.5237 49.2651 55.9245 48.8763C56.3253 48.4876 56.559 47.9581 56.576 47.4V32H66.514V56.158C66.531 56.7161 66.7647 57.2456 67.1655 57.6343C67.5663 58.0231 68.1027 58.2405 68.661 58.2405C69.2193 58.2405 69.7557 58.0231 70.1565 57.6343C70.5573 57.2456 70.791 56.7161 70.808 56.158V32H82.168V47.4C82.185 47.9581 82.4187 48.4876 82.8195 48.8763C83.2203 49.2651 83.7567 49.4825 84.315 49.4825C84.8733 49.4825 85.4097 49.2651 85.8105 48.8763C86.2113 48.4876 86.445 47.9581 86.462 47.4V32H96.4V56.158C96.417 56.7161 96.6507 57.2456 97.0515 57.6343C97.4523 58.0231 97.9887 58.2405 98.547 58.2405C99.1053 58.2405 99.6417 58.0231 100.043 57.6343C100.443 57.2456 100.677 56.7161 100.694 56.158V32H110.632V47.4C110.632 47.9692 110.858 48.515 111.261 48.9175C111.663 49.3199 112.209 49.546 112.778 49.546C113.347 49.546 113.893 49.3199 114.295 48.9175C114.698 48.515 114.924 47.9692 114.924 47.4V32H126.286V56.158C126.277 56.4455 126.326 56.7318 126.43 56.9999C126.534 57.2681 126.691 57.5126 126.891 57.7191C127.091 57.9255 127.331 58.0896 127.596 58.2017C127.861 58.3138 128.145 58.3715 128.433 58.3715C128.721 58.3715 129.005 58.3138 129.27 58.2017C129.535 58.0896 129.775 57.9255 129.975 57.7191C130.175 57.5126 130.332 57.2681 130.436 56.9999C130.54 56.7318 130.589 56.4455 130.58 56.158V32H140.516V47.4C140.533 47.9581 140.767 48.4876 141.167 48.8763C141.568 49.2651 142.105 49.4825 142.663 49.4825C143.221 49.4825 143.758 49.2651 144.159 48.8763C144.559 48.4876 144.793 47.9581 144.81 47.4V32H155.79C157.381 32 158.907 32.6321 160.033 33.7574C161.158 34.8826 161.79 36.4087 161.79 38V68.946C161.79 70.5366 161.158 72.0621 160.034 73.1872C158.91 74.3123 157.385 74.9449 155.794 74.946Z" fill="#C0C0C0"/>
</svg>
