<svg width="590" height="35" viewBox="0 0 590 35" fill="none" xmlns="http://www.w3.org/2000/svg">
<path d="M14.925 28.7065C20.015 28.7065 23.23 25.5366 23.23 20.1616V0.581543H29.665V20.1616C29.665 28.9916 24.045 34.4666 14.925 34.4666C5.805 34.4666 0 28.9666 0 20.1616V0.581543H6.43V20.1616C6.43 25.4916 9.84 28.7065 14.925 28.7065Z" fill="#040000"/>
<path d="M50.5299 0.581543V28.3716H65.0299V34.1765H44.1099V0.581543H50.5299Z" fill="#040000"/>
<path d="M100.605 0.581543V6.29156H90.1402V34.1765H83.6652V6.29156H73.2002V0.581543H100.605Z" fill="#040000"/>
<path d="M133.055 34.1765L127.245 24.2466C126.847 24.2892 126.446 24.3059 126.045 24.2965H118.465V34.1815H112.03V0.581543H126.03C134.72 0.581543 139.66 4.75655 139.66 12.1465C139.66 17.4265 137.31 21.2166 132.99 23.0416L140.38 34.1765H133.055ZM118.465 18.6266H126.03C130.83 18.6266 133.53 16.5615 133.53 12.3365C133.53 8.21155 130.84 6.19656 126.03 6.19656H118.465V18.6266Z" fill="#040000"/>
<path d="M175.485 27.0716H159.07L156.095 34.1765H149.425L164.16 0.581543H170.83L185.375 34.1765H178.46L175.485 27.0716ZM173.18 21.5716L167.325 7.45654L161.375 21.5716H173.18Z" fill="#040000"/>
<path d="M240.095 23.7115C240.095 30.0515 234.955 34.4666 226.8 34.4666C222.24 34.4666 217.44 32.9665 214.3 30.6715L216.94 25.4416C219.498 27.785 222.831 29.1009 226.3 29.1366C231.05 29.1366 233.8 27.0716 233.8 23.8116C233.8 20.4516 231.015 18.7216 226.265 18.7216H221.135V15.0266L230.495 6.14655H216.03L215.985 0.581543H238.4V4.58154L228.03 14.4016L229.95 14.5966C236.03 15.2166 240.095 18.4365 240.095 23.7115Z" fill="#040000"/>
<path d="M285.53 17.3766C285.53 27.1716 278.135 34.1765 267.77 34.1765H254.06V0.581543H268.03C278.205 0.581543 285.53 7.54156 285.53 17.3766ZM278.95 17.4265C278.95 10.8515 274.2 6.24155 267.91 6.24155H260.495V28.5116H268.175C274.365 28.5116 278.97 23.9565 278.97 17.4265H278.95Z" fill="#040000"/>
<path d="M341.18 27.0716H324.765L321.765 34.1765H315.115L329.85 0.581543H336.53L351.07 34.1765H344.155L341.18 27.0716ZM338.875 21.5716L333.03 7.44156L327.08 21.5565L338.875 21.5716Z" fill="#040000"/>
<path d="M393.5 17.3766C393.5 27.1716 386.105 34.1765 375.74 34.1765H362.03V0.581543H375.98C386.155 0.581543 393.5 7.54156 393.5 17.3766ZM386.925 17.4265C386.925 10.8515 382.17 6.24155 375.885 6.24155H368.445V28.5116H376.125C382.315 28.5116 386.925 23.9565 386.925 17.4265Z" fill="#040000"/>
<path d="M427.03 27.0716H410.59L407.59 34.1765H400.94L415.675 0.581543H422.345L436.89 34.1765H429.98L427.03 27.0716ZM424.725 21.5716L418.87 7.45654L412.915 21.5716H424.725Z" fill="#040000"/>
<path d="M474.905 12.1465C474.905 19.8265 470.06 24.2916 461.61 24.2916H454.27V34.1765H447.835V0.581543H461.61C470.06 0.581543 474.905 4.74655 474.905 12.1465ZM468.81 12.3365C468.81 8.21155 466.075 6.19656 461.275 6.19656H454.275V18.6266H461.275C466.075 18.6266 468.81 16.5615 468.81 12.3365Z" fill="#040000"/>
<path d="M510.76 0.581543V6.29156H500.3V34.1765H493.8V6.29156H483.355V0.581543H510.76Z" fill="#040000"/>
<path d="M546.81 0.581543V6.19656H528.62V14.4966H544.94V20.1165H528.62V28.5616H547.385V34.1765H522.19V0.581543H546.81Z" fill="#040000"/>
<path d="M581.8 34.1765L575.995 24.2466C575.597 24.2891 575.196 24.3058 574.795 24.2965H567.21V34.1815H560.78V0.581543H574.78C583.465 0.581543 588.41 4.75655 588.41 12.1465C588.41 17.4265 586.06 21.2166 581.74 23.0416L589.13 34.1765H581.8ZM567.21 18.6266H574.795C579.595 18.6266 582.295 16.5615 582.295 12.3365C582.295 8.21155 579.61 6.19656 574.795 6.19656H567.21V18.6266Z" fill="#040000"/>
</svg>
