<svg width="129" height="157" viewBox="0 0 129 157" fill="none" xmlns="http://www.w3.org/2000/svg">
<g filter="url(#filter0_ii_590_1327)">
<path d="M35.7143 71.3143H92.8571V49.92C92.8571 34.2095 80.0214 21.3943 64.2857 21.3943C48.55 21.3943 35.7143 34.2095 35.7143 49.92V71.3143ZM128.571 82.0114V146.194C128.571 149.031 127.443 151.752 125.433 153.758C123.424 155.764 120.699 156.891 117.857 156.891H10.7143C9.30726 156.891 7.91402 156.615 6.6141 156.077C5.31419 155.54 4.13305 154.752 3.13814 153.758C2.14323 152.765 1.35402 151.586 0.815576 150.288C0.277133 148.99 0 147.599 0 146.194V82.0114C0 79.1744 1.12882 76.4535 3.13814 74.4474C5.14746 72.4413 7.87268 71.3143 10.7143 71.3143H14.2857V49.92C14.2857 22.5068 36.8286 0 64.2857 0C91.7429 0 114.286 22.5068 114.286 49.92V71.3143H117.857C120.699 71.3143 123.424 72.4413 125.433 74.4474C127.443 76.4535 128.571 79.1744 128.571 82.0114V82.0114Z" fill="#B4C6BE" fill-opacity="0.2"/>
</g>
<defs>
<filter id="filter0_ii_590_1327" x="-2" y="-2" width="133.571" height="162.891" filterUnits="userSpaceOnUse" color-interpolation-filters="sRGB">
<feFlood flood-opacity="0" result="BackgroundImageFix"/>
<feBlend mode="normal" in="SourceGraphic" in2="BackgroundImageFix" result="shape"/>
<feColorMatrix in="SourceAlpha" type="matrix" values="0 0 0 0 0 0 0 0 0 0 0 0 0 0 0 0 0 0 127 0" result="hardAlpha"/>
<feOffset dx="3" dy="4"/>
<feGaussianBlur stdDeviation="3.5"/>
<feComposite in2="hardAlpha" operator="arithmetic" k2="-1" k3="1"/>
<feColorMatrix type="matrix" values="0 0 0 0 0.409236 0 0 0 0 0.525992 0 0 0 0 0.591667 0 0 0 0.6 0"/>
<feBlend mode="normal" in2="shape" result="effect1_innerShadow_590_1327"/>
<feColorMatrix in="SourceAlpha" type="matrix" values="0 0 0 0 0 0 0 0 0 0 0 0 0 0 0 0 0 0 127 0" result="hardAlpha"/>
<feOffset dx="-2" dy="-2"/>
<feGaussianBlur stdDeviation="2.5"/>
<feComposite in2="hardAlpha" operator="arithmetic" k2="-1" k3="1"/>
<feColorMatrix type="matrix" values="0 0 0 0 0.794219 0 0 0 0 0.920833 0 0 0 0 0.920833 0 0 0 0.24 0"/>
<feBlend mode="normal" in2="effect1_innerShadow_590_1327" result="effect2_innerShadow_590_1327"/>
</filter>
</defs>
</svg>
